<svg width="100" height="145" viewBox="0 0 100 145" fill="none" xmlns="http://www.w3.org/2000/svg">
<path fill-rule="evenodd" clip-rule="evenodd" d="M80 12H20C15.5817 12 12 15.5817 12 20V125C12 129.418 15.5817 133 20 133H80C84.4183 133 88 129.418 88 125V20C88 15.5817 84.4183 12 80 12ZM20 0C8.95431 0 0 8.95431 0 20V125C0 136.046 8.9543 145 20 145H80C91.0457 145 100 136.046 100 125V20C100 8.95431 91.0457 0 80 0H20Z" fill="white"/>
<path fill-rule="evenodd" clip-rule="evenodd" d="M50 120C63.8071 120 75 108.807 75 95C75 81.1929 63.8071 70 50 70C36.1929 70 25 81.1929 25 95C25 108.807 36.1929 120 50 120ZM50 126C67.1208 126 81 112.121 81 95C81 77.8792 67.1208 64 50 64C32.8792 64 19 77.8792 19 95C19 112.121 32.8792 126 50 126Z" fill="white"/>
<path fill-rule="evenodd" clip-rule="evenodd" d="M50 105C55.5228 105 60 100.523 60 95C60 89.4772 55.5228 85 50 85C44.4772 85 40 89.4772 40 95C40 100.523 44.4772 105 50 105ZM50 111C58.8366 111 66 103.837 66 95C66 86.1634 58.8366 79 50 79C41.1634 79 34 86.1634 34 95C34 103.837 41.1634 111 50 111Z" fill="white"/>
<path fill-rule="evenodd" clip-rule="evenodd" d="M50 48C55.5228 48 60 43.5228 60 38C60 32.4772 55.5228 28 50 28C44.4772 28 40 32.4772 40 38C40 43.5228 44.4772 48 50 48ZM50 54C58.8366 54 66 46.8366 66 38C66 29.1634 58.8366 22 50 22C41.1634 22 34 29.1634 34 38C34 46.8366 41.1634 54 50 54Z" fill="white"/>
</svg>
