<svg width="115" height="150" viewBox="0 0 115 150" fill="none" xmlns="http://www.w3.org/2000/svg">
<path fill-rule="evenodd" clip-rule="evenodd" d="M17 97C17 100.314 19.6863 103 23 103L23 109C16.3726 109 11 103.627 11 97C11 90.3726 16.3726 85 23 85L23 91C19.6863 91 17 93.6863 17 97Z" fill="white"/>
<path fill-rule="evenodd" clip-rule="evenodd" d="M46.2297 49H32.7704C29.9405 49 28.0055 51.8581 29.0565 54.4856L31.0565 59.4856C31.6639 61.0042 33.1347 62 34.7704 62H44.2297C45.8653 62 47.3362 61.0042 47.9436 59.4856L49.9436 54.4856C50.9946 51.8581 49.0596 49 46.2297 49ZM32.7704 43C25.6957 43 20.8581 50.1453 23.4856 56.7139L25.4856 61.7139C27.0042 65.5105 30.6813 68 34.7704 68H44.2297C48.3187 68 51.9958 65.5105 53.5145 61.7139L55.5145 56.7139C58.1419 50.1453 53.3043 43 46.2297 43H32.7704Z" fill="white"/>
<path fill-rule="evenodd" clip-rule="evenodd" d="M69 55L69 112H10C4.47715 112 0 116.477 0 122V140C0 145.523 4.47715 150 10 150H105C109.745 150 113.718 146.695 114.743 142.261H115L115 10C115 4.47715 110.523 0 105 0H10C4.47715 0 0 4.47715 0 10V45C0 50.5228 4.47715 55 10 55H69ZM103 138V12H12V43H81L81 124H12V138H103Z" fill="white"/>
<path fill-rule="evenodd" clip-rule="evenodd" d="M25 85V100C25 107.732 31.268 114 39 114H41C48.732 114 55 107.732 55 100V85H25ZM24 79C21.2386 79 19 81.2386 19 84V100C19 111.046 27.9543 120 39 120H41C52.0457 120 61 111.046 61 100V84C61 81.2386 58.7614 79 56 79H24Z" fill="white"/>
</svg>
