<svg width="138" height="138" viewBox="0 0 138 138" fill="none" xmlns="http://www.w3.org/2000/svg">
<path fill-rule="evenodd" clip-rule="evenodd" d="M69 126C100.48 126 126 100.48 126 69C126 37.5198 100.48 12 69 12C37.5198 12 12 37.5198 12 69C12 100.48 37.5198 126 69 126ZM69 138C107.108 138 138 107.108 138 69C138 30.8924 107.108 0 69 0C30.8924 0 0 30.8924 0 69C0 107.108 30.8924 138 69 138Z" fill="white"/>
<path fill-rule="evenodd" clip-rule="evenodd" d="M104.225 48.7395C106.578 51.0728 106.594 54.8718 104.26 57.2248L65.5873 96.2248C64.4606 97.3609 62.9268 98 61.3268 98C59.7267 98 58.193 97.3609 57.0663 96.2248L34.7395 73.7093C32.4063 71.3563 32.4223 67.5574 34.7752 65.2241C37.1282 62.8908 40.9272 62.9068 43.2605 65.2598L61.3268 83.4788L95.7395 48.7752C98.0728 46.4223 101.872 46.4063 104.225 48.7395Z" fill="white"/>
</svg>
