<svg width="160" height="200" viewBox="0 0 160 200" fill="none" xmlns="http://www.w3.org/2000/svg">
<path fill-rule="evenodd" clip-rule="evenodd" d="M140 12H20C15.5817 12 12 15.5817 12 20V180C12 184.418 15.5817 188 20 188H140C144.418 188 148 184.418 148 180V20C148 15.5817 144.418 12 140 12ZM20 0C8.95431 0 0 8.95431 0 20V180C0 191.046 8.95431 200 20 200H140C151.046 200 160 191.046 160 180V20C160 8.95431 151.046 0 140 0H20Z" fill="white"/>
<path fill-rule="evenodd" clip-rule="evenodd" d="M79 156C99.9868 156 117 138.987 117 118C117 97.0132 99.9868 80 79 80C58.0132 80 41 97.0132 41 118C41 138.987 58.0132 156 79 156ZM79 168C106.614 168 129 145.614 129 118C129 90.3858 106.614 68 79 68C51.3858 68 29 90.3858 29 118C29 145.614 51.3858 168 79 168Z" fill="white"/>
<path fill-rule="evenodd" clip-rule="evenodd" d="M152 52H5V40H152V52Z" fill="white"/>
<path fill-rule="evenodd" clip-rule="evenodd" d="M81.4119 101.881C82.4036 102.842 82.4288 104.425 81.4681 105.416C80.3899 106.529 79.1238 108.471 78.7693 110.548C78.4482 112.43 78.8279 114.563 81.2856 116.639C85.1258 119.882 86.1244 123.687 85.5 127.136C84.9153 130.366 82.9681 133.013 81.3833 134.5C80.3765 135.445 78.7943 135.395 77.8495 134.388C76.9047 133.381 76.9549 131.799 77.9617 130.854C79.018 129.863 80.2402 128.122 80.58 126.246C80.88 124.589 80.558 122.569 78.0593 120.459C74.1783 117.181 73.2374 113.241 73.8406 109.707C74.4106 106.368 76.3139 103.551 77.8768 101.938C78.8375 100.946 80.4202 100.921 81.4119 101.881Z" fill="white"/>
<path fill-rule="evenodd" clip-rule="evenodd" d="M64.4119 101.881C65.4036 102.842 65.4288 104.425 64.4681 105.416C63.3899 106.529 62.1238 108.471 61.7693 110.548C61.4482 112.43 61.8278 114.563 64.2856 116.639C68.1258 119.882 69.1244 123.687 68.5 127.136C67.9153 130.366 65.9681 133.013 64.3833 134.5C63.3765 135.445 61.7944 135.395 60.8495 134.388C59.9047 133.381 59.9549 131.799 60.9617 130.854C62.018 129.863 63.2402 128.122 63.58 126.246C63.88 124.589 63.558 122.569 61.0593 120.459C57.1783 117.181 56.2374 113.241 56.8406 109.707C57.4106 106.368 59.3139 103.551 60.8769 101.938C61.8375 100.946 63.4202 100.921 64.4119 101.881Z" fill="white"/>
<path fill-rule="evenodd" clip-rule="evenodd" d="M98.4119 101.881C99.4036 102.842 99.4288 104.425 98.4681 105.416C97.3899 106.529 96.1238 108.471 95.7693 110.548C95.4482 112.43 95.8278 114.563 98.2856 116.639C102.126 119.882 103.124 123.687 102.5 127.136C101.915 130.366 99.9681 133.013 98.3833 134.5C97.3765 135.445 95.7943 135.395 94.8495 134.388C93.9047 133.381 93.9549 131.799 94.9617 130.854C96.018 129.863 97.2402 128.122 97.58 126.246C97.88 124.589 97.558 122.569 95.0593 120.459C91.1783 117.181 90.2374 113.241 90.8406 109.707C91.4105 106.368 93.3139 103.551 94.8768 101.938C95.8375 100.946 97.4202 100.921 98.4119 101.881Z" fill="white"/>
</svg>
