<svg width="160" height="197" viewBox="0 0 160 197" fill="none" xmlns="http://www.w3.org/2000/svg">
<path fill-rule="evenodd" clip-rule="evenodd" d="M82.214 145.098C83.7615 146.596 83.8007 149.063 82.3016 150.609C80.6191 152.344 78.6435 155.371 78.0903 158.608C77.5892 161.541 78.1816 164.866 82.0169 168.102C88.0092 173.158 89.5675 179.09 88.5931 184.466C87.6808 189.5 84.6423 193.626 82.1692 195.945C80.5982 197.417 78.1294 197.339 76.655 195.77C75.1806 194.2 75.259 191.734 76.8301 190.261C78.4784 188.716 80.3856 186.003 80.9158 183.078C81.3839 180.495 80.8815 177.346 76.9824 174.057C70.9263 168.947 69.458 162.806 70.3994 157.297C71.2887 152.092 74.2587 147.701 76.6977 145.186C78.1967 143.64 80.6665 143.6 82.214 145.098Z" fill="white"/>
<path fill-rule="evenodd" clip-rule="evenodd" d="M39.076 145.098C40.6235 146.596 40.6628 149.063 39.1637 150.609C37.4812 152.344 35.5055 155.371 34.9524 158.608C34.4512 161.541 35.0437 164.866 38.8789 168.102C44.8713 173.158 46.4296 179.09 45.4552 184.466C44.5429 189.5 41.5044 193.626 39.0313 195.945C37.4602 197.417 34.9914 197.339 33.5171 195.77C32.0427 194.2 32.1211 191.734 33.6921 190.261C35.3405 188.716 37.2476 186.003 37.7778 183.078C38.2459 180.495 37.7435 177.346 33.8445 174.057C27.7883 168.947 26.3201 162.806 27.2614 157.297C28.1508 152.092 31.1208 147.701 33.5597 145.186C35.0588 143.64 37.5285 143.6 39.076 145.098Z" fill="white"/>
<path fill-rule="evenodd" clip-rule="evenodd" d="M125.352 145.098C126.899 146.596 126.939 149.063 125.44 150.609C123.757 152.344 121.781 155.371 121.228 158.608C120.727 161.541 121.32 164.866 125.155 168.102C131.147 173.158 132.705 179.09 131.731 184.466C130.819 189.5 127.78 193.626 125.307 195.945C123.736 197.417 121.267 197.339 119.793 195.77C118.319 194.2 118.397 191.734 119.968 190.261C121.616 188.716 123.524 186.003 124.054 183.078C124.522 180.495 124.019 177.346 120.12 174.057C114.064 168.947 112.596 162.806 113.537 157.297C114.427 152.092 117.397 147.701 119.836 145.186C121.335 143.64 123.804 143.6 125.352 145.098Z" fill="white"/>
<path fill-rule="evenodd" clip-rule="evenodd" d="M12 93V121H148V93H12ZM10 81C4.47715 81 0 85.4772 0 91V123C0 128.523 4.47715 133 10 133H150C155.523 133 160 128.523 160 123V91C160 85.4772 155.523 81 150 81H10Z" fill="white"/>
<path fill-rule="evenodd" clip-rule="evenodd" d="M53.2365 51L32.735 81H126.265L105.763 51H53.2365ZM112.097 39H46.9027L10 93H149L112.097 39Z" fill="white"/>
<path d="M39 107C39 110.314 36.3137 113 33 113C29.6863 113 27 110.314 27 107C27 103.686 29.6863 101 33 101C36.3137 101 39 103.686 39 107Z" fill="white"/>
<path d="M57 107C57 110.314 54.3137 113 51 113C47.6863 113 45 110.314 45 107C45 103.686 47.6863 101 51 101C54.3137 101 57 103.686 57 107Z" fill="white"/>
<path fill-rule="evenodd" clip-rule="evenodd" d="M55 12V39H104V12H55ZM53 0C47.4772 0 43 4.47715 43 10V51H116V10C116 4.47715 111.523 0 106 0H53Z" fill="white"/>
</svg>
