<svg width="126" height="145" viewBox="0 0 126 145" fill="none" xmlns="http://www.w3.org/2000/svg">
<path fill-rule="evenodd" clip-rule="evenodd" d="M79.7401 93.125L93.3694 55.2115C100.932 34.1727 85.3413 12 62.9844 12C40.6275 12 25.0363 34.1727 32.5994 55.2115L46.2287 93.125H79.7401ZM88.1781 105.125L104.662 59.271C115.036 30.4131 93.6502 0 62.9844 0C32.3185 0 10.933 30.4131 21.3069 59.271L37.7906 105.125H88.1781Z" fill="white"/>
<path fill-rule="evenodd" clip-rule="evenodd" d="M78.8438 106.25H47.125C45.2438 106.25 43.7188 107.775 43.7188 109.656C43.7188 111.537 45.2438 113.062 47.125 113.062H78.8438C80.725 113.062 82.25 111.537 82.25 109.656C82.25 107.775 80.725 106.25 78.8438 106.25ZM47.125 94.25C38.6164 94.25 31.7188 101.148 31.7188 109.656C31.7188 118.165 38.6164 125.062 47.125 125.062H78.8438C87.3524 125.062 94.25 118.165 94.25 109.656C94.25 101.148 87.3524 94.25 78.8438 94.25H47.125Z" fill="white"/>
<path fill-rule="evenodd" clip-rule="evenodd" d="M78.8438 126.188H47.125C45.2438 126.188 43.7188 127.713 43.7188 129.594C43.7188 131.475 45.2438 133 47.125 133H78.8438C80.725 133 82.25 131.475 82.25 129.594C82.25 127.713 80.725 126.188 78.8438 126.188ZM47.125 114.188C38.6164 114.188 31.7188 121.085 31.7188 129.594C31.7188 138.102 38.6164 145 47.125 145H78.8438C87.3524 145 94.25 138.102 94.25 129.594C94.25 121.085 87.3524 114.188 78.8438 114.188H47.125Z" fill="white"/>
<path fill-rule="evenodd" clip-rule="evenodd" d="M96.9688 59.6406H27.1875V53.6406H96.9688V59.6406Z" fill="white"/>
</svg>
