<svg width="140" height="140" viewBox="0 0 187 200" fill="none" xmlns="http://www.w3.org/2000/svg">
<path fill-rule="evenodd" clip-rule="evenodd" d="M128.243 188.07C154.066 188.07 175 167.259 175 141.586C175 115.914 154.066 95.1025 128.243 95.1025C102.42 95.1025 81.4863 115.914 81.4863 141.586C81.4863 167.259 102.42 188.07 128.243 188.07ZM128.243 200C160.694 200 187 173.847 187 141.586C187 109.325 160.694 83.1726 128.243 83.1726C95.7927 83.1726 69.4863 109.325 69.4863 141.586C69.4863 173.847 95.7927 200 128.243 200Z" fill="white"/>
<path fill-rule="evenodd" clip-rule="evenodd" d="M20 28.0537H139.41C143.828 28.0537 147.41 31.6145 147.41 36.007V86.351C151.651 87.8052 155.672 89.7284 159.41 92.0583V36.007C159.41 25.0258 150.456 16.1238 139.41 16.1238H20C8.9543 16.1238 0 25.0258 0 36.007V154.719C0 165.701 8.95432 174.603 20 174.603H79.7654C77.2158 170.91 75.082 166.911 73.4313 162.673H20C15.5817 162.673 12 159.112 12 154.719V36.007C12 31.6145 15.5817 28.0537 20 28.0537Z" fill="white"/>
<path fill-rule="evenodd" clip-rule="evenodd" d="M79.7048 0C83.0185 0 85.7048 2.6706 85.7048 5.96496V38.4734C85.7048 41.7678 83.0185 44.4384 79.7048 44.4384C76.3911 44.4384 73.7048 41.7678 73.7048 38.4734V5.96496C73.7048 2.6706 76.3911 0 79.7048 0Z" fill="white"/>
<path fill-rule="evenodd" clip-rule="evenodd" d="M28.6121 0C31.9258 0 34.6121 2.6706 34.6121 5.96496V38.4734C34.6121 41.7678 31.9258 44.4384 28.6121 44.4384C25.2984 44.4384 22.6121 41.7678 22.6121 38.4734V5.96496C22.6121 2.6706 25.2984 0 28.6121 0Z" fill="white"/>
<path fill-rule="evenodd" clip-rule="evenodd" d="M130.798 0C134.112 0 136.798 2.6706 136.798 5.96496V38.4734C136.798 41.7678 134.112 44.4384 130.798 44.4384C127.484 44.4384 124.798 41.7678 124.798 38.4734V5.96496C124.798 2.6706 127.484 0 130.798 0Z" fill="white"/>
<path fill-rule="evenodd" clip-rule="evenodd" d="M153.79 63.2324H4.59839V51.3025H153.79V63.2324Z" fill="white"/>
<path fill-rule="evenodd" clip-rule="evenodd" d="M82.9891 75.931H77.4426C75.2335 75.931 73.4426 77.7114 73.4426 79.9077V85.4217C73.4426 87.618 75.2335 89.3984 77.4426 89.3984H82.9891C85.1982 89.3984 86.9891 87.618 86.9891 85.4217V79.9077C86.9891 77.7114 85.1982 75.931 82.9891 75.931ZM77.4426 69.9661C71.9198 69.9661 67.4426 74.4171 67.4426 79.9077V85.4217C67.4426 90.9123 71.9198 95.3633 77.4426 95.3633H82.9891C88.5119 95.3633 92.9891 90.9123 92.9891 85.4217V79.9077C92.9891 74.4171 88.5119 69.9661 82.9891 69.9661H77.4426Z" fill="white"/>
<path fill-rule="evenodd" clip-rule="evenodd" d="M43.1365 75.931H37.5901C35.3809 75.931 33.5901 77.7114 33.5901 79.9077V85.4217C33.5901 87.618 35.3809 89.3984 37.5901 89.3984H43.1365C45.3457 89.3984 47.1365 87.618 47.1365 85.4217V79.9077C47.1365 77.7114 45.3457 75.931 43.1365 75.931ZM37.5901 69.9661C32.0672 69.9661 27.5901 74.4171 27.5901 79.9077V85.4217C27.5901 90.9123 32.0672 95.3633 37.5901 95.3633H43.1365C48.6594 95.3633 53.1365 90.9123 53.1365 85.4217V79.9077C53.1365 74.4171 48.6594 69.9661 43.1365 69.9661H37.5901Z" fill="white"/>
<path fill-rule="evenodd" clip-rule="evenodd" d="M43.1365 105.392H37.5901C35.3809 105.392 33.5901 107.172 33.5901 109.369V114.883C33.5901 117.079 35.3809 118.859 37.5901 118.859H43.1365C45.3457 118.859 47.1365 117.079 47.1365 114.883V109.369C47.1365 107.172 45.3457 105.392 43.1365 105.392ZM37.5901 99.427C32.0672 99.427 27.5901 103.878 27.5901 109.369V114.883C27.5901 120.373 32.0672 124.824 37.5901 124.824H43.1365C48.6594 124.824 53.1365 120.373 53.1365 114.883V109.369C53.1365 103.878 48.6594 99.427 43.1365 99.427H37.5901Z" fill="white"/>
<path fill-rule="evenodd" clip-rule="evenodd" d="M43.1365 134.853H37.5901C35.3809 134.853 33.5901 136.633 33.5901 138.829V144.343C33.5901 146.54 35.3809 148.32 37.5901 148.32H43.1365C45.3457 148.32 47.1365 146.54 47.1365 144.343V138.829C47.1365 136.633 45.3457 134.853 43.1365 134.853ZM37.5901 128.888C32.0672 128.888 27.5901 133.339 27.5901 138.829V144.343C27.5901 149.834 32.0672 154.285 37.5901 154.285H43.1365C48.6594 154.285 53.1365 149.834 53.1365 144.343V138.829C53.1365 133.339 48.6594 128.888 43.1365 128.888H37.5901Z" fill="white"/>
<path fill-rule="evenodd" clip-rule="evenodd" d="M128.754 103.621C132.068 103.621 134.754 106.291 134.754 109.586L134.754 141.078C134.754 144.373 132.068 147.043 128.754 147.043C125.44 147.043 122.754 144.373 122.754 141.078L122.754 109.586C122.754 106.291 125.44 103.621 128.754 103.621Z" fill="white"/>
<path fill-rule="evenodd" clip-rule="evenodd" d="M156.213 141.078C156.213 144.373 153.527 147.043 150.213 147.043H128.754C125.44 147.043 122.754 144.373 122.754 141.078C122.754 137.784 125.44 135.114 128.754 135.114H150.213C153.527 135.114 156.213 137.784 156.213 141.078Z" fill="white"/>
</svg>
