<svg width="145" height="164" viewBox="0 0 145 164" fill="none" xmlns="http://www.w3.org/2000/svg">
<path fill-rule="evenodd" clip-rule="evenodd" d="M12 83V96C12 116.987 29.0132 134 50 134H95C115.987 134 133 116.987 133 96V83H12ZM10 71C4.47715 71 0 75.4772 0 81V96C0 123.614 22.3858 146 50 146H95C122.614 146 145 123.614 145 96V81C145 75.4772 140.523 71 135 71H10Z" fill="white"/>
<path fill-rule="evenodd" clip-rule="evenodd" d="M75 146H70V149.5C70 150.881 71.1193 152 72.5 152C73.8807 152 75 150.881 75 149.5V146ZM58 134V149.5C58 157.508 64.4919 164 72.5 164C80.5081 164 87 157.508 87 149.5V134H58Z" fill="white"/>
<path fill-rule="evenodd" clip-rule="evenodd" d="M70.5 12C54.7686 12 42 24.775 42 40.5533V41.18H52.6849V39.6067H52.7096C53.2011 30.2055 60.9701 22.72 70.5 22.72C80.3477 22.72 88.3151 30.713 88.3151 40.5533V71H99V40.5533C99 24.775 86.2314 12 70.5 12ZM64.6849 40.5533C64.6849 37.3229 67.2972 34.72 70.5 34.72C73.7028 34.72 76.3151 37.3229 76.3151 40.5533V77C76.3151 80.3137 79.0014 83 82.3151 83H105C108.314 83 111 80.3137 111 77V40.5533C111 18.1651 92.8763 0 70.5 0C48.1237 0 30 18.1651 30 40.5533V47.18C30 50.4937 32.6863 53.18 36 53.18H58.6849C61.9986 53.18 64.6849 50.4937 64.6849 47.18V40.5533Z" fill="white"/>
</svg>
