<svg width="160" height="197" viewBox="0 0 160 197" fill="none" xmlns="http://www.w3.org/2000/svg">
<path fill-rule="evenodd" clip-rule="evenodd" d="M140 12H20C15.5817 12 12 15.5817 12 20V170C12 174.418 15.5817 178 20 178H140C144.418 178 148 174.418 148 170V20C148 15.5817 144.418 12 140 12ZM20 0C8.95431 0 0 8.95431 0 20V170C0 181.046 8.95431 190 20 190H140C151.046 190 160 181.046 160 170V20C160 8.95431 151.046 0 140 0H20Z" fill="white"/>
<path fill-rule="evenodd" clip-rule="evenodd" d="M36 56C39.3137 56 42 58.6863 42 62L42 130C42 133.314 39.3137 136 36 136C32.6863 136 30 133.314 30 130L30 62C30 58.6863 32.6863 56 36 56Z" fill="white"/>
<path d="M28 190.5C28 186.91 30.9101 184 34.5 184H44.5C48.0899 184 51 186.91 51 190.5C51 194.09 48.0899 197 44.5 197H34.5C30.9101 197 28 194.09 28 190.5Z" fill="white"/>
<path d="M108 190.5C108 186.91 110.91 184 114.5 184H124.5C128.09 184 131 186.91 131 190.5C131 194.09 128.09 197 124.5 197H114.5C110.91 197 108 194.09 108 190.5Z" fill="white"/>
</svg>
