<svg width="133" height="149" viewBox="0 0 133 149" fill="none" xmlns="http://www.w3.org/2000/svg">
<path fill-rule="evenodd" clip-rule="evenodd" d="M98.0017 113L92.228 40.8296C90.9255 24.5485 77.3331 12 61 12C44.6669 12 31.0745 24.5485 29.772 40.8295L23.9983 113H98.0017ZM104.19 39.8726C102.388 17.3551 83.5894 0 61 0C38.4106 0 19.6116 17.3551 17.8102 39.8726L11 125H111L104.19 39.8726Z" fill="white"/>
<path fill-rule="evenodd" clip-rule="evenodd" d="M23 124V137H99V124H23ZM21 112C15.4772 112 11 116.477 11 122V139C11 144.523 15.4772 149 21 149H101C106.523 149 111 144.523 111 139V122C111 116.477 106.523 112 101 112H21Z" fill="white"/>
<path fill-rule="evenodd" clip-rule="evenodd" d="M121 65C121 53.402 111.598 44 100 44V32C118.225 32 133 46.7746 133 65C133 83.2254 118.225 98 100 98V86C111.598 86 121 76.598 121 65Z" fill="white"/>
<path fill-rule="evenodd" clip-rule="evenodd" d="M1.02786 18.6418C2.14353 16.9899 4.00671 16 6.00003 16H30V28H14.8836L27.0659 58.2592L15.9342 62.7408L0.434166 24.2408C-0.310272 22.3917 -0.0878003 20.2936 1.02786 18.6418Z" fill="white"/>
<path fill-rule="evenodd" clip-rule="evenodd" d="M67 39H55C52.7909 39 51 40.7909 51 43V90C51 92.2091 52.7909 94 55 94H67C69.2091 94 71 92.2091 71 90V43C71 40.7909 69.2091 39 67 39ZM55 33C49.4772 33 45 37.4772 45 43V90C45 95.5228 49.4772 100 55 100H67C72.5228 100 77 95.5228 77 90V43C77 37.4772 72.5228 33 67 33H55Z" fill="white"/>
<path fill-rule="evenodd" clip-rule="evenodd" d="M48 51C48 49.3431 49.3431 48 51 48H56C57.6569 48 59 49.3431 59 51C59 52.6569 57.6569 54 56 54H51C49.3431 54 48 52.6569 48 51Z" fill="white"/>
<path fill-rule="evenodd" clip-rule="evenodd" d="M48 66C48 64.3431 49.3431 63 51 63H56C57.6569 63 59 64.3431 59 66C59 67.6569 57.6569 69 56 69H51C49.3431 69 48 67.6569 48 66Z" fill="white"/>
<path fill-rule="evenodd" clip-rule="evenodd" d="M48 81C48 79.3431 49.3431 78 51 78H56C57.6569 78 59 79.3431 59 81C59 82.6569 57.6569 84 56 84H51C49.3431 84 48 82.6569 48 81Z" fill="white"/>
</svg>
