<svg width="160" height="135" viewBox="0 0 160 135" fill="none" xmlns="http://www.w3.org/2000/svg">
<path fill-rule="evenodd" clip-rule="evenodd" d="M140 12H20C15.5817 12 12 15.5817 12 20V95C12 99.4183 15.5817 103 20 103H140C144.418 103 148 99.4183 148 95V20C148 15.5817 144.418 12 140 12ZM20 0C8.95431 0 0 8.95431 0 20V95C0 106.046 8.95431 115 20 115H140C151.046 115 160 106.046 160 95V20C160 8.95431 151.046 0 140 0H20Z" fill="white"/>
<path fill-rule="evenodd" clip-rule="evenodd" d="M91 116H69V123H91V116ZM57 104V135H103V104H57Z" fill="white"/>
<path fill-rule="evenodd" clip-rule="evenodd" d="M26 129C26 125.686 28.6863 123 32 123H128C131.314 123 134 125.686 134 129C134 132.314 131.314 135 128 135H32C28.6863 135 26 132.314 26 129Z" fill="white"/>
<path fill-rule="evenodd" clip-rule="evenodd" d="M38.6874 20.7259C39.9434 21.8064 40.0856 23.7006 39.005 24.9566L25.2742 40.9166C24.1937 42.1726 22.2995 42.3148 21.0435 41.2342C19.7875 40.1537 19.6453 38.2595 20.7259 37.0035L34.4566 21.0435C35.5372 19.7875 37.4314 19.6453 38.6874 20.7259ZM58.9566 20.7259C60.2126 21.8064 60.3548 23.7006 59.2742 24.9566L43.5819 43.1966C42.5014 44.4526 40.6072 44.5948 39.3512 43.5142C38.0952 42.4337 37.953 40.5395 39.0336 39.2835L54.7259 21.0435C55.8064 19.7875 57.7006 19.6453 58.9566 20.7259ZM33.4566 50.3659C34.7126 51.4464 34.8548 53.3406 33.7742 54.5966L26.5819 62.9566C25.5014 64.2126 23.6072 64.3548 22.3512 63.2742C21.0952 62.1937 20.953 60.2995 22.0336 59.0435L29.2259 50.6835C30.3064 49.4275 32.2006 49.2853 33.4566 50.3659Z" fill="white"/>
</svg>
