<svg width="104" height="104" viewBox="0 0 104 104" fill="none" xmlns="http://www.w3.org/2000/svg">
<path fill-rule="evenodd" clip-rule="evenodd" d="M2.03634 9.71042C0.0837183 11.663 0.0837139 14.8289 2.03634 16.7815L37.1648 51.9099L2.03624 87.0385C0.0836219 88.9911 0.0836222 92.1569 2.03624 94.1096L9.70993 101.783C11.6626 103.736 14.8284 103.736 16.781 101.783L51.9095 66.6547L87.0381 101.783C88.9907 103.736 92.1565 103.736 94.1091 101.783L101.783 94.1095C103.735 92.1569 103.735 88.9911 101.783 87.0385L66.6543 51.9099L101.783 16.7815C103.735 14.8289 103.735 11.6631 101.783 9.71044L94.109 2.03676C92.1564 0.0841356 88.9906 0.0841313 87.038 2.03675L51.9095 37.1652L16.7811 2.03673C14.8285 0.0841101 11.6626 0.0841104 9.71003 2.03673L2.03634 9.71042Z" fill="white"/>
</svg>
