<svg width="145" height="145" viewBox="0 0 145 145" fill="none" xmlns="http://www.w3.org/2000/svg">
<path fill-rule="evenodd" clip-rule="evenodd" d="M125 12H20C15.5817 12 12 15.5817 12 20V125C12 129.418 15.5817 133 20 133H125C129.418 133 133 129.418 133 125V20C133 15.5817 129.418 12 125 12ZM20 0C8.95431 0 0 8.95431 0 20V125C0 136.046 8.95431 145 20 145H125C136.046 145 145 136.046 145 125V20C145 8.95431 136.046 0 125 0H20Z" fill="white"/>
<path d="M61 73C61 76.3137 58.3137 79 55 79C51.6863 79 49 76.3137 49 73C49 69.6863 51.6863 67 55 67C58.3137 67 61 69.6863 61 73Z" fill="white"/>
<path d="M96 73C96 76.3137 93.3137 79 90 79C86.6863 79 84 76.3137 84 73C84 69.6863 86.6863 67 90 67C93.3137 67 96 69.6863 96 73Z" fill="white"/>
<path fill-rule="evenodd" clip-rule="evenodd" d="M72.5 112C93.763 112 111 94.763 111 73.5C111 52.237 93.763 35 72.5 35C51.237 35 34 52.237 34 73.5C34 94.763 51.237 112 72.5 112ZM72.5 124C100.39 124 123 101.39 123 73.5C123 45.6096 100.39 23 72.5 23C44.6096 23 22 45.6096 22 73.5C22 101.39 44.6096 124 72.5 124Z" fill="white"/>
<path fill-rule="evenodd" clip-rule="evenodd" d="M66.5 45.5V29H78.5V45.5C78.5 48.8137 75.8137 51.5 72.5 51.5C69.1863 51.5 66.5 48.8137 66.5 45.5ZM72.5 97.5C75.8137 97.5 78.5 100.186 78.5 103.5V119H66.5V103.5C66.5 100.186 69.1863 97.5 72.5 97.5Z" fill="white"/>
</svg>
