<svg width="160" height="200" viewBox="0 0 160 200" fill="none" xmlns="http://www.w3.org/2000/svg">
<path fill-rule="evenodd" clip-rule="evenodd" d="M140 12H20C15.5817 12 12 15.5817 12 20V180C12 184.418 15.5817 188 20 188H140C144.418 188 148 184.418 148 180V20C148 15.5817 144.418 12 140 12ZM20 0C8.95431 0 0 8.95431 0 20V180C0 191.046 8.95431 200 20 200H140C151.046 200 160 191.046 160 180V20C160 8.95431 151.046 0 140 0H20Z" fill="white"/>
<path fill-rule="evenodd" clip-rule="evenodd" d="M79 156C99.9868 156 117 138.987 117 118C117 97.0132 99.9868 80 79 80C58.0132 80 41 97.0132 41 118C41 138.987 58.0132 156 79 156ZM79 168C106.614 168 129 145.614 129 118C129 90.3858 106.614 68 79 68C51.3858 68 29 90.3858 29 118C29 145.614 51.3858 168 79 168Z" fill="white"/>
<path fill-rule="evenodd" clip-rule="evenodd" d="M152 52H5V40H152V52Z" fill="white"/>
<path fill-rule="evenodd" clip-rule="evenodd" d="M72.6867 91.5758C73.1567 93.1646 72.2498 94.8336 70.661 95.3036C62.3009 97.7767 55.5247 105.086 53.9608 114.663C53.6938 116.299 52.1517 117.408 50.5165 117.141C48.8813 116.874 47.7722 115.332 48.0392 113.696C49.9732 101.852 58.3838 92.6785 68.959 89.55C70.5477 89.08 72.2167 89.987 72.6867 91.5758Z" fill="white"/>
<path fill-rule="evenodd" clip-rule="evenodd" d="M101.719 138.987C93.8058 139.614 85.6129 137.983 76.5186 134.835C70.6011 132.786 62.512 132.465 55.3184 133.233C51.7542 133.613 48.5297 134.249 46.0303 135.01C44.7794 135.391 43.7625 135.788 42.9968 136.172C42.1904 136.576 41.8446 136.877 41.7521 136.982L37.2478 133.018C38.072 132.081 39.1949 131.366 40.3077 130.808C41.4614 130.23 42.8142 129.718 44.2821 129.271C47.2201 128.376 50.829 127.678 54.6815 127.267C62.3212 126.451 71.3987 126.713 78.4813 129.165C87.1731 132.174 94.4802 133.542 101.245 133.006C107.951 132.474 114.364 130.05 121.24 125.07L124.759 129.93C117.136 135.45 109.691 138.354 101.719 138.987Z" fill="white"/>
<path fill-rule="evenodd" clip-rule="evenodd" d="M40 40L40 7L52 7L52 40L40 40Z" fill="white"/>
</svg>
