<svg width="125" height="200" viewBox="0 0 125 200" fill="none" xmlns="http://www.w3.org/2000/svg">
<path fill-rule="evenodd" clip-rule="evenodd" d="M33.0984 58.2764C20.8331 74.4454 -2.89959 113.251 0.292356 139.121C4.28228 171.459 28.2217 199.517 58.8112 199.993C89.4006 200.468 120.433 177.166 123.98 145.779C127.527 114.392 123.537 71.1164 84.0807 22.6094C51.7263 -17.167 49.1821 3.81419 46.8698 22.882C46.3623 27.0672 45.866 31.1603 45.0681 34.4984C45.0681 34.4984 42.4081 44.0096 33.0984 58.2764ZM34.6472 126.398C36.5239 122.705 35.0518 118.191 31.3593 116.314C27.6667 114.437 23.1519 115.909 21.2751 119.602C21.1804 119.788 21.0731 119.995 20.9559 120.22C20.1655 121.742 18.9211 124.138 17.9987 127.146C16.9035 130.719 16.2703 135.016 16.5775 140.456C16.9727 147.454 19.649 152.435 21.7456 156.337C21.9598 156.736 22.168 157.123 22.3671 157.501C24.3005 161.164 28.8375 162.566 32.5007 160.633C36.1639 158.699 37.5662 154.162 35.6328 150.499C35.4571 150.166 35.2871 149.845 35.1229 149.536C32.9252 145.388 31.7553 143.18 31.5536 139.61C31.3414 135.852 31.7903 133.336 32.3399 131.543C32.8381 129.918 33.4361 128.756 34.2179 127.236C34.3551 126.969 34.4982 126.691 34.6472 126.398Z" fill="white"/>
</svg>
