<svg width="1080" height="1080" viewBox="0 0 1080 1080" fill="none" xmlns="http://www.w3.org/2000/svg">
<path d="M540 1080C521.561 1080 503.134 1079.07 484.789 1077.21C466.791 1075.38 448.896 1072.65 431.171 1069.03C413.779 1065.47 396.371 1060.99 379.421 1055.72C362.676 1050.51 345.983 1044.4 329.808 1037.56C313.79 1030.79 297.908 1023.14 282.608 1014.82C267.419 1006.57 252.439 997.474 238.084 987.776C223.808 978.131 209.821 967.676 196.513 956.69C183.243 945.739 170.341 934.013 158.166 921.837C145.991 909.661 134.266 896.763 123.313 883.49C112.329 870.18 101.87 856.19 92.2271 841.919C82.5271 827.568 73.427 812.589 65.178 797.396C56.864 782.09 49.213 766.208 42.439 750.196C35.601 734.028 29.492 717.336 24.281 700.583C19.012 683.644 14.535 666.232 10.975 648.832C7.35327 631.107 4.6222 613.212 2.79199 595.214C0.933885 576.868 0.00204291 558.44 0 540C0.000838709 521.56 0.931317 503.133 2.78796 484.788C4.61811 466.79 7.34918 448.895 10.9709 431.171C14.5319 413.771 19.009 396.359 24.277 379.42C29.488 362.667 35.5971 345.975 42.4351 329.808C49.2101 313.79 56.861 297.908 65.174 282.608C73.4249 267.418 82.526 252.438 92.223 238.084C101.871 223.803 112.33 209.817 123.309 196.513C134.264 183.239 145.99 170.337 158.162 158.166C170.334 145.995 183.239 134.266 196.509 123.313C209.809 112.335 223.798 101.876 238.08 92.2266C252.427 82.5336 267.407 73.4326 282.604 65.1776C297.904 56.8636 313.789 49.2127 329.804 42.4387C345.973 35.5997 362.665 29.4896 379.417 24.2806C396.363 19.0096 413.774 14.5326 431.167 10.9736C448.892 7.35128 466.787 4.6202 484.785 2.79065C491.118 2.14765 497.585 1.60761 503.996 1.19061V329.024C501.621 329.424 499.223 329.873 496.868 330.355C483.099 333.175 469.644 337.352 456.698 342.824C443.972 348.211 431.798 354.819 420.346 362.555C408.982 370.237 398.377 378.987 388.675 388.686C378.977 398.387 370.227 408.992 362.544 420.357C354.809 431.809 348.202 443.982 342.813 456.708C337.341 469.653 333.164 483.109 330.343 496.878C327.451 511.069 325.996 525.516 326 540C325.996 554.485 327.453 568.934 330.347 583.128C333.168 596.897 337.345 610.353 342.817 623.299C348.206 636.024 354.813 648.198 362.548 659.65C370.231 671.014 378.981 681.619 388.679 691.321C398.381 701.019 408.986 709.769 420.35 717.453C431.801 725.188 443.975 731.795 456.7 737.183C469.646 742.655 483.101 746.831 496.87 749.652C511.064 752.546 525.514 754.003 540 754C554.486 754.003 568.935 752.546 583.129 749.652C596.898 746.831 610.354 742.655 623.3 737.183C636.025 731.794 648.199 725.187 659.65 717.452C671.015 709.769 681.62 701.018 691.322 691.32C701.02 681.618 709.77 671.013 717.453 659.649C725.188 648.197 731.795 636.024 737.184 623.3C742.656 610.353 746.833 596.898 749.654 583.129C752.548 568.935 754.004 554.485 754 540C754.003 525.514 752.547 511.064 749.653 496.871C746.832 483.102 742.655 469.646 737.183 456.701C731.795 443.975 725.187 431.801 717.452 420.35C709.769 408.985 701.019 398.38 691.321 388.679C681.619 378.98 671.014 370.23 659.649 362.548C648.198 354.813 636.025 348.205 623.3 342.817C610.354 337.345 596.899 333.168 583.13 330.348C580.774 329.866 578.376 329.418 576.001 329.017V1.18262C582.426 1.60462 588.89 2.14465 595.213 2.78265C613.211 4.61224 631.106 7.34332 648.83 10.9656C666.23 14.5256 683.643 19.0026 700.581 24.2726C717.334 29.4836 734.026 35.5927 750.194 42.4307C766.213 49.2057 782.094 56.8566 797.394 65.1696C812.585 73.4216 827.565 82.5216 841.917 92.2186C856.199 101.867 870.185 112.326 883.488 123.305C896.765 134.262 909.667 145.988 921.835 158.158C934.003 170.328 945.735 183.234 956.688 196.505C967.67 209.813 978.129 223.8 987.774 238.076C997.467 252.423 1006.57 267.404 1014.82 282.6C1023.14 297.907 1030.79 313.789 1037.56 329.8C1044.4 345.962 1050.51 362.654 1055.72 379.412C1060.99 396.35 1065.47 413.762 1069.03 431.163C1072.65 448.887 1075.38 466.782 1077.21 484.78C1079.07 503.128 1080 521.558 1080 540C1080 558.438 1079.07 576.865 1077.21 595.211C1075.38 613.209 1072.65 631.104 1069.03 648.829C1065.47 666.229 1060.99 683.64 1055.72 700.58C1050.51 717.33 1044.4 734.022 1037.56 750.193C1030.79 766.205 1023.14 782.087 1014.83 797.393C1006.57 812.593 997.468 827.572 987.777 841.916C978.124 856.203 967.665 870.19 956.691 883.487C945.738 896.758 934.011 909.66 921.838 921.834C909.665 934.008 896.766 945.734 883.491 956.687C870.191 967.664 856.204 978.123 841.92 987.773C827.575 997.464 812.595 1006.56 797.397 1014.82C782.09 1023.14 766.208 1030.79 750.197 1037.56C734.023 1044.4 717.33 1050.51 700.584 1055.72C683.636 1060.99 666.225 1065.47 648.833 1069.03C631.109 1072.65 613.214 1075.38 595.216 1077.21C576.869 1079.07 558.441 1080 540 1080Z" fill="black"/>
<mask id="mask0" mask-type="alpha" maskUnits="userSpaceOnUse" x="0" y="1" width="1080" height="1079">
<path d="M540 1080C521.561 1080 503.134 1079.07 484.789 1077.21C466.791 1075.38 448.896 1072.65 431.171 1069.03C413.779 1065.47 396.371 1060.99 379.421 1055.72C362.676 1050.51 345.983 1044.4 329.808 1037.56C313.79 1030.79 297.908 1023.14 282.608 1014.82C267.419 1006.57 252.439 997.474 238.084 987.776C223.808 978.131 209.821 967.676 196.513 956.69C183.243 945.739 170.341 934.013 158.166 921.837C145.991 909.661 134.266 896.763 123.313 883.49C112.329 870.18 101.87 856.19 92.2271 841.919C82.5271 827.568 73.427 812.589 65.178 797.396C56.864 782.09 49.213 766.208 42.439 750.196C35.601 734.028 29.492 717.336 24.281 700.583C19.012 683.644 14.535 666.232 10.975 648.832C7.35327 631.107 4.6222 613.212 2.79199 595.214C0.933885 576.868 0.00204291 558.44 0 540C0.000838709 521.56 0.931317 503.133 2.78796 484.788C4.61811 466.79 7.34918 448.895 10.9709 431.171C14.5319 413.771 19.009 396.359 24.277 379.42C29.488 362.667 35.5971 345.975 42.4351 329.808C49.2101 313.79 56.861 297.908 65.174 282.608C73.4249 267.418 82.526 252.438 92.223 238.084C101.871 223.803 112.33 209.817 123.309 196.513C134.264 183.239 145.99 170.337 158.162 158.166C170.334 145.995 183.239 134.266 196.509 123.313C209.809 112.335 223.798 101.876 238.08 92.2266C252.427 82.5336 267.407 73.4326 282.604 65.1776C297.904 56.8636 313.789 49.2127 329.804 42.4387C345.973 35.5997 362.665 29.4896 379.417 24.2806C396.363 19.0096 413.774 14.5326 431.167 10.9736C448.892 7.35128 466.787 4.6202 484.785 2.79065C491.118 2.14765 497.585 1.60761 503.996 1.19061V329.024C501.621 329.424 499.223 329.873 496.868 330.355C483.099 333.175 469.644 337.352 456.698 342.824C443.972 348.211 431.798 354.819 420.346 362.555C408.982 370.237 398.377 378.987 388.675 388.686C378.977 398.387 370.227 408.992 362.544 420.357C354.809 431.809 348.202 443.982 342.813 456.708C337.341 469.653 333.164 483.109 330.343 496.878C327.451 511.069 325.996 525.516 326 540C325.996 554.485 327.453 568.934 330.347 583.128C333.168 596.897 337.345 610.353 342.817 623.299C348.206 636.024 354.813 648.198 362.548 659.65C370.231 671.014 378.981 681.619 388.679 691.321C398.381 701.019 408.986 709.769 420.35 717.453C431.801 725.188 443.975 731.795 456.7 737.183C469.646 742.655 483.101 746.831 496.87 749.652C511.064 752.546 525.514 754.003 540 754C554.486 754.003 568.935 752.546 583.129 749.652C596.898 746.831 610.354 742.655 623.3 737.183C636.025 731.794 648.199 725.187 659.65 717.452C671.015 709.769 681.62 701.018 691.322 691.32C701.02 681.618 709.77 671.013 717.453 659.649C725.188 648.197 731.795 636.024 737.184 623.3C742.656 610.353 746.833 596.898 749.654 583.129C752.548 568.935 754.004 554.485 754 540C754.003 525.514 752.547 511.064 749.653 496.871C746.832 483.102 742.655 469.646 737.183 456.701C731.795 443.975 725.187 431.801 717.452 420.35C709.769 408.985 701.019 398.38 691.321 388.679C681.619 378.98 671.014 370.23 659.649 362.548C648.198 354.813 636.025 348.205 623.3 342.817C610.354 337.345 596.899 333.168 583.13 330.348C580.774 329.866 578.376 329.418 576.001 329.017V1.18262C582.426 1.60462 588.89 2.14465 595.213 2.78265C613.211 4.61224 631.106 7.34332 648.83 10.9656C666.23 14.5256 683.643 19.0026 700.581 24.2726C717.334 29.4836 734.026 35.5927 750.194 42.4307C766.213 49.2057 782.094 56.8566 797.394 65.1696C812.585 73.4216 827.565 82.5216 841.917 92.2186C856.199 101.867 870.185 112.326 883.488 123.305C896.765 134.262 909.667 145.988 921.835 158.158C934.003 170.328 945.735 183.234 956.688 196.505C967.67 209.813 978.129 223.8 987.774 238.076C997.467 252.423 1006.57 267.404 1014.82 282.6C1023.14 297.907 1030.79 313.789 1037.56 329.8C1044.4 345.962 1050.51 362.654 1055.72 379.412C1060.99 396.35 1065.47 413.762 1069.03 431.163C1072.65 448.887 1075.38 466.782 1077.21 484.78C1079.07 503.128 1080 521.558 1080 540C1080 558.438 1079.07 576.865 1077.21 595.211C1075.38 613.209 1072.65 631.104 1069.03 648.829C1065.47 666.229 1060.99 683.64 1055.72 700.58C1050.51 717.33 1044.4 734.022 1037.56 750.193C1030.79 766.205 1023.14 782.087 1014.83 797.393C1006.57 812.593 997.468 827.572 987.777 841.916C978.124 856.203 967.665 870.19 956.691 883.487C945.738 896.758 934.011 909.66 921.838 921.834C909.665 934.008 896.766 945.734 883.491 956.687C870.191 967.664 856.204 978.123 841.92 987.773C827.575 997.464 812.595 1006.56 797.397 1014.82C782.09 1023.14 766.208 1030.79 750.197 1037.56C734.023 1044.4 717.33 1050.51 700.584 1055.72C683.636 1060.99 666.225 1065.47 648.833 1069.03C631.109 1072.65 613.214 1075.38 595.216 1077.21C576.869 1079.07 558.441 1080 540 1080Z" fill="black"/>
</mask>
<g mask="url(#mask0)">
<circle cx="273.5" cy="807.5" r="126.5" fill="url(#paint0_linear)"/>
<circle opacity="0.5" cx="810.5" cy="807.5" r="119" stroke="white" stroke-width="15"/>
<circle opacity="0.5" cx="810.5" cy="273.5" r="119" stroke="white" stroke-width="15"/>
<path opacity="0.5" fill-rule="evenodd" clip-rule="evenodd" d="M540 170.5C482.991 170.5 428.989 183.376 380.744 206.378C376.194 199.125 370.93 192.367 365.049 186.201C417.794 160.143 477.187 145.5 540 145.5V170.5ZM185.86 364.722C192.004 370.626 198.743 375.916 205.978 380.492C182.6 429.054 169.5 483.497 169.5 541C169.5 598.201 182.463 652.374 205.61 700.742C198.382 705.348 191.654 710.668 185.524 716.602C159.264 663.694 144.5 604.071 144.5 541C144.5 477.66 159.39 417.798 185.86 364.722ZM364.398 895.476C417.306 921.736 476.929 936.5 540 936.5C604.149 936.5 664.731 921.227 718.308 894.12C712.494 887.934 707.295 881.163 702.81 873.904C653.669 897.982 598.413 911.5 540 911.5C482.799 911.5 428.626 898.537 380.258 875.39C375.652 882.618 370.332 889.346 364.398 895.476ZM935.5 541C935.5 603.052 921.21 661.766 895.741 714.031C889.471 708.31 882.624 703.211 875.297 698.833C897.876 650.95 910.5 597.449 910.5 541C910.5 484.247 897.74 430.47 874.929 382.386C882.263 378.037 889.119 372.969 895.401 367.278C921.081 419.713 935.5 478.671 935.5 541Z" fill="white"/>
<circle opacity="0.5" cx="273.5" cy="273.5" r="119" stroke="white" stroke-width="15"/>
<g opacity="0.5">
<path d="M296.44 207.118C298.54 201.605 291.388 197.373 287.68 201.934L228.177 275.13C225.714 278.159 227.319 282.754 231.113 283.541L268.532 291.295L249.137 342.903C247.036 348.493 254.375 352.674 257.997 347.95L314.551 274.202C316.887 271.156 315.257 266.684 311.528 265.908L276.8 258.678L296.44 207.118Z" fill="white"/>
</g>
<path fill-rule="evenodd" clip-rule="evenodd" d="M301.182 874.052C320.55 874.052 336.25 858.443 336.25 839.189C336.25 819.935 320.55 804.326 301.182 804.326C281.815 804.326 266.115 819.935 266.115 839.189C266.115 858.443 281.815 874.052 301.182 874.052ZM301.182 882.999C325.52 882.999 345.25 863.385 345.25 839.189C345.25 814.993 325.52 795.379 301.182 795.379C276.844 795.379 257.115 814.993 257.115 839.189C257.115 863.385 276.844 882.999 301.182 882.999Z" fill="white"/>
<path fill-rule="evenodd" clip-rule="evenodd" d="M220 754.04H309.557C312.871 754.04 315.557 756.711 315.557 760.005V797.763C318.738 798.854 321.754 800.296 324.557 802.044V760.005C324.557 751.769 317.842 745.093 309.557 745.093H220C211.716 745.093 205 751.769 205 760.005V849.04C205 857.275 211.716 863.952 220 863.952H264.824C262.912 861.182 261.312 858.183 260.073 855.005H220C216.686 855.005 214 852.334 214 849.04V760.005C214 756.711 216.686 754.04 220 754.04Z" fill="white"/>
<path fill-rule="evenodd" clip-rule="evenodd" d="M264.779 733C267.264 733 269.279 735.003 269.279 737.474V761.855C269.279 764.326 267.264 766.329 264.779 766.329C262.294 766.329 260.279 764.326 260.279 761.855V737.474C260.279 735.003 262.294 733 264.779 733Z" fill="white"/>
<path fill-rule="evenodd" clip-rule="evenodd" d="M226.459 733C228.944 733 230.959 735.003 230.959 737.474V761.855C230.959 764.326 228.944 766.329 226.459 766.329C223.974 766.329 221.959 764.326 221.959 761.855V737.474C221.959 735.003 223.974 733 226.459 733Z" fill="white"/>
<path fill-rule="evenodd" clip-rule="evenodd" d="M303.098 733C305.583 733 307.598 735.003 307.598 737.474V761.855C307.598 764.326 305.583 766.329 303.098 766.329C300.613 766.329 298.598 764.326 298.598 761.855V737.474C298.598 735.003 300.613 733 303.098 733Z" fill="white"/>
<path fill-rule="evenodd" clip-rule="evenodd" d="M320.342 780.424H208.449V771.477H320.342V780.424Z" fill="white"/>
<path fill-rule="evenodd" clip-rule="evenodd" d="M267.242 789.948H263.082C261.425 789.948 260.082 791.284 260.082 792.931V797.066C260.082 798.714 261.425 800.049 263.082 800.049H267.242C268.899 800.049 270.242 798.714 270.242 797.066V792.931C270.242 791.284 268.899 789.948 267.242 789.948ZM263.082 785.475C258.94 785.475 255.582 788.813 255.582 792.931V797.066C255.582 801.184 258.94 804.523 263.082 804.523H267.242C271.384 804.523 274.742 801.184 274.742 797.066V792.931C274.742 788.813 271.384 785.475 267.242 785.475H263.082Z" fill="white"/>
<path fill-rule="evenodd" clip-rule="evenodd" d="M237.352 789.948H233.192C231.536 789.948 230.192 791.284 230.192 792.931V797.066C230.192 798.714 231.536 800.049 233.192 800.049H237.352C239.009 800.049 240.352 798.714 240.352 797.066V792.931C240.352 791.284 239.009 789.948 237.352 789.948ZM233.192 785.475C229.05 785.475 225.692 788.813 225.692 792.931V797.066C225.692 801.184 229.05 804.523 233.192 804.523H237.352C241.494 804.523 244.852 801.184 244.852 797.066V792.931C244.852 788.813 241.494 785.475 237.352 785.475H233.192Z" fill="white"/>
<path fill-rule="evenodd" clip-rule="evenodd" d="M237.352 812.044H233.192C231.536 812.044 230.192 813.379 230.192 815.027V819.162C230.192 820.809 231.536 822.145 233.192 822.145H237.352C239.009 822.145 240.352 820.809 240.352 819.162V815.027C240.352 813.379 239.009 812.044 237.352 812.044ZM233.192 807.57C229.05 807.57 225.692 810.909 225.692 815.027V819.162C225.692 823.28 229.05 826.618 233.192 826.618H237.352C241.494 826.618 244.852 823.28 244.852 819.162V815.027C244.852 810.909 241.494 807.57 237.352 807.57H233.192Z" fill="white"/>
<path fill-rule="evenodd" clip-rule="evenodd" d="M237.352 834.14H233.192C231.536 834.14 230.192 835.475 230.192 837.122V841.258C230.192 842.905 231.536 844.24 233.192 844.24H237.352C239.009 844.24 240.352 842.905 240.352 841.258V837.122C240.352 835.475 239.009 834.14 237.352 834.14ZM233.192 829.666C229.05 829.666 225.692 833.004 225.692 837.122V841.258C225.692 845.376 229.05 848.714 233.192 848.714H237.352C241.494 848.714 244.852 845.376 244.852 841.258V837.122C244.852 833.004 241.494 829.666 237.352 829.666H233.192Z" fill="white"/>
<path fill-rule="evenodd" clip-rule="evenodd" d="M301.565 810.716C304.051 810.716 306.065 812.719 306.065 815.19L306.065 838.809C306.065 841.28 304.051 843.283 301.565 843.283C299.08 843.283 297.065 841.28 297.065 838.809L297.065 815.19C297.065 812.719 299.08 810.716 301.565 810.716Z" fill="white"/>
<path fill-rule="evenodd" clip-rule="evenodd" d="M322.16 838.809C322.16 841.279 320.145 843.282 317.66 843.282H301.565C299.08 843.282 297.065 841.279 297.065 838.809C297.065 836.338 299.08 834.335 301.565 834.335H317.66C320.145 834.335 322.16 836.338 322.16 838.809Z" fill="white"/>
<g opacity="0.5">
<path fill-rule="evenodd" clip-rule="evenodd" d="M868.109 779.826H802.891C800.49 779.826 798.543 781.773 798.543 784.174V871.13C798.543 873.532 800.49 875.478 802.891 875.478H868.109C870.51 875.478 872.457 873.532 872.457 871.13V784.174C872.457 781.773 870.51 779.826 868.109 779.826ZM802.891 773.304C796.888 773.304 792.022 778.171 792.022 784.174V871.13C792.022 877.134 796.888 882 802.891 882H868.109C874.112 882 878.978 877.134 878.978 871.13V784.174C878.978 778.171 874.112 773.304 868.109 773.304H802.891Z" fill="white"/>
<path fill-rule="evenodd" clip-rule="evenodd" d="M834.957 858.087C846.362 858.087 855.609 848.841 855.609 837.435C855.609 826.029 846.362 816.783 834.957 816.783C823.551 816.783 814.304 826.029 814.304 837.435C814.304 848.841 823.551 858.087 834.957 858.087ZM834.957 864.609C849.964 864.609 862.13 852.443 862.13 837.435C862.13 822.427 849.964 810.261 834.957 810.261C819.949 810.261 807.783 822.427 807.783 837.435C807.783 852.443 819.949 864.609 834.957 864.609Z" fill="white"/>
<path fill-rule="evenodd" clip-rule="evenodd" d="M874.63 801.565H794.739V795.043H874.63V801.565Z" fill="white"/>
<path fill-rule="evenodd" clip-rule="evenodd" d="M831.525 823.074C831.781 823.937 831.288 824.844 830.424 825.1C825.881 826.444 822.198 830.416 821.348 835.621C821.203 836.51 820.365 837.113 819.476 836.968C818.588 836.823 817.985 835.985 818.13 835.096C819.181 828.659 823.752 823.673 829.499 821.973C830.363 821.717 831.27 822.21 831.525 823.074Z" fill="white"/>
<path fill-rule="evenodd" clip-rule="evenodd" d="M847.304 848.841C843.003 849.182 838.551 848.295 833.608 846.584C830.392 845.471 825.996 845.296 822.086 845.714C820.149 845.92 818.397 846.266 817.038 846.68C816.358 846.887 815.806 847.102 815.39 847.311C814.951 847.531 814.763 847.694 814.713 847.751L812.265 845.597C812.713 845.088 813.323 844.699 813.928 844.396C814.555 844.082 815.29 843.803 816.088 843.56C817.685 843.074 819.646 842.695 821.74 842.471C825.892 842.028 830.825 842.17 834.675 843.503C839.398 845.138 843.37 845.882 847.046 845.59C850.691 845.301 854.176 843.984 857.913 841.277L859.826 843.918C855.683 846.919 851.637 848.497 847.304 848.841Z" fill="white"/>
<path fill-rule="evenodd" clip-rule="evenodd" d="M813.761 795.043V777.109H820.283V795.043H813.761Z" fill="white"/>
<path fill-rule="evenodd" clip-rule="evenodd" d="M758.87 738.522H824.087C826.488 738.522 828.435 740.468 828.435 742.87V778.739H834.957V742.87C834.957 736.866 830.09 732 824.087 732H758.87C752.866 732 748 736.866 748 742.87V867.326C748 873.329 752.866 878.196 758.87 878.196H763.228C763.221 878.285 763.217 878.376 763.217 878.467C763.217 880.418 764.799 882 766.75 882H772.185C774.136 882 775.717 880.418 775.717 878.467C775.717 878.376 775.714 878.285 775.707 878.196H806.706C806.699 878.285 806.696 878.376 806.696 878.467C806.696 880.418 808.277 882 810.228 882H815.663C817.614 882 819.196 880.418 819.196 878.467C819.196 878.376 819.192 878.285 819.185 878.196H824.087C825.788 878.196 827.397 877.805 828.831 877.109H796.37V871.674H758.87C756.468 871.674 754.522 869.727 754.522 867.326V790.696H796.37V784.174H754.522V742.87C754.522 740.468 756.468 738.522 758.87 738.522ZM770.826 812.978C770.826 811.177 769.366 809.717 767.565 809.717C765.764 809.717 764.304 811.177 764.304 812.978L764.304 849.935C764.304 851.736 765.764 853.196 767.565 853.196C769.366 853.196 770.826 851.736 770.826 849.935L770.826 812.978ZM767.565 747.761C769.366 747.761 770.826 749.221 770.826 751.022L770.826 770.043C770.826 771.844 769.366 773.304 767.565 773.304C765.764 773.304 764.304 771.844 764.304 770.043L764.304 751.022C764.304 749.221 765.764 747.761 767.565 747.761Z" fill="white"/>
</g>
<path opacity="0.5" fill-rule="evenodd" clip-rule="evenodd" d="M762.036 230.71C760.084 232.663 760.084 235.829 762.036 237.781L797.165 272.91L762.036 308.038C760.084 309.991 760.084 313.157 762.036 315.11L769.71 322.783C771.663 324.736 774.828 324.736 776.781 322.783L811.91 287.655L847.038 322.783C848.991 324.736 852.157 324.736 854.109 322.783L861.783 315.11C863.735 313.157 863.735 309.991 861.783 308.038L826.654 272.91L861.783 237.782C863.735 235.829 863.735 232.663 861.783 230.71L854.109 223.037C852.156 221.084 848.991 221.084 847.038 223.037L811.91 258.165L776.781 223.037C774.828 221.084 771.663 221.084 769.71 223.037L762.036 230.71Z" fill="white"/>
</g>
<defs>
<linearGradient id="paint0_linear" x1="147" y1="681" x2="400" y2="934" gradientUnits="userSpaceOnUse">
<stop stop-color="#E24C3A"/>
<stop offset="1" stop-color="#E24C3A" stop-opacity="0.5"/>
</linearGradient>
</defs>
</svg>
