<svg width="77" height="77" viewBox="0 0 77 77" fill="none" xmlns="http://www.w3.org/2000/svg">
<path fill-rule="evenodd" clip-rule="evenodd" d="M53.375 17.76H25.625C24.6033 17.76 23.775 18.5838 23.775 19.6V56.4C23.775 57.4162 24.6033 58.24 25.625 58.24H53.375C54.3967 58.24 55.225 57.4162 55.225 56.4V19.6C55.225 18.5838 54.3967 17.76 53.375 17.76ZM25.625 15C23.0707 15 21 17.0595 21 19.6V56.4C21 58.9405 23.0707 61 25.625 61H53.375C55.9293 61 58 58.9405 58 56.4V19.6C58 17.0595 55.9293 15 53.375 15H25.625Z" fill="white"/>
<path fill-rule="evenodd" clip-rule="evenodd" d="M56.15 26.96H22.1562V24.2H56.15V26.96Z" fill="white"/>
<path fill-rule="evenodd" clip-rule="evenodd" d="M34.6425 35.2401H28.0821V38.5451C28.0821 40.307 29.5576 41.7651 31.3623 41.7651C33.167 41.7651 34.6425 40.307 34.6425 38.5451V35.2401ZM26.6946 33.8601V38.5451C26.6946 41.0856 28.808 43.1451 31.3623 43.1451C33.9166 43.1451 36.03 41.0856 36.03 38.5451V33.8601H26.6946Z" fill="white"/>
<path fill-rule="evenodd" clip-rule="evenodd" d="M30.6252 49.7423L30.6252 42.1677L32.0127 42.1677L32.0127 49.7423L30.6252 49.7423Z" fill="white"/>
<path fill-rule="evenodd" clip-rule="evenodd" d="M35.1362 49.3371C35.1362 49.7182 34.8256 50.0271 34.4425 50.0271L28.2142 50.0271C27.8311 50.0271 27.5205 49.7182 27.5205 49.3371C27.5205 48.956 27.8311 48.6471 28.2142 48.6471L34.4425 48.6471C34.8256 48.6471 35.1362 48.956 35.1362 49.3371Z" fill="white"/>
<path fill-rule="evenodd" clip-rule="evenodd" d="M44.9056 49.0401C48.737 49.0401 51.8431 45.9509 51.8431 42.1401C51.8431 38.3293 48.737 35.2401 44.9056 35.2401C41.0741 35.2401 37.9681 38.3293 37.9681 42.1401C37.9681 45.9509 41.0741 49.0401 44.9056 49.0401ZM44.9056 50.4201C49.5033 50.4201 53.2306 46.713 53.2306 42.1401C53.2306 37.5672 49.5033 33.8601 44.9056 33.8601C40.3078 33.8601 36.5806 37.5672 36.5806 42.1401C36.5806 46.713 40.3078 50.4201 44.9056 50.4201Z" fill="white"/>
<path fill-rule="evenodd" clip-rule="evenodd" d="M44.9056 45.6764C46.8692 45.6764 48.4611 44.0931 48.4611 42.1401C48.4611 40.1871 46.8692 38.6039 44.9056 38.6039C42.942 38.6039 41.3501 40.1871 41.3501 42.1401C41.3501 44.0931 42.942 45.6764 44.9056 45.6764ZM44.9056 47.0564C47.6355 47.0564 49.8486 44.8553 49.8486 42.1401C49.8486 39.425 47.6355 37.2239 44.9056 37.2239C42.1757 37.2239 39.9626 39.425 39.9626 42.1401C39.9626 44.8553 42.1757 47.0564 44.9056 47.0564Z" fill="white"/>
<path d="M48.7501 20.9801C48.7501 21.7423 48.1289 22.3601 47.3626 22.3601C46.5963 22.3601 45.9751 21.7423 45.9751 20.9801C45.9751 20.2179 46.5963 19.6001 47.3626 19.6001C48.1289 19.6001 48.7501 20.2179 48.7501 20.9801Z" fill="white"/>
<path d="M52.9125 20.9801C52.9125 21.7423 52.2912 22.3601 51.525 22.3601C50.7587 22.3601 50.1375 21.7423 50.1375 20.9801C50.1375 20.2179 50.7587 19.6001 51.525 19.6001C52.2912 19.6001 52.9125 20.2179 52.9125 20.9801Z" fill="white"/>
</svg>
