<svg width="210" height="210" viewBox="0 0 210 210" fill="none" xmlns="http://www.w3.org/2000/svg">
<circle cx="105" cy="105" r="105" fill="black"/>
<circle cx="105" cy="105" r="105" fill="url(#paint0_linear)"/>
<path fill-rule="evenodd" clip-rule="evenodd" d="M142 54.14H70C67.349 54.14 65.2 56.2711 65.2 58.9V154.1C65.2 156.729 67.349 158.86 70 158.86H142C144.651 158.86 146.8 156.729 146.8 154.1V58.9C146.8 56.2711 144.651 54.14 142 54.14ZM70 47C63.3726 47 58 52.3278 58 58.9V154.1C58 160.672 63.3726 166 70 166H142C148.627 166 154 160.672 154 154.1V58.9C154 52.3278 148.627 47 142 47H70Z" fill="white"/>
<path fill-rule="evenodd" clip-rule="evenodd" d="M149.2 77.94H61V70.8H149.2V77.94Z" fill="white"/>
<path fill-rule="evenodd" clip-rule="evenodd" d="M93.3966 99.36H76.3749V107.91C76.3749 112.468 80.2034 116.24 84.8857 116.24C89.5681 116.24 93.3966 112.468 93.3966 107.91V99.36ZM72.7749 95.79V107.91C72.7749 114.482 78.2583 119.81 84.8857 119.81C91.5131 119.81 96.9966 114.482 96.9966 107.91V95.79H72.7749Z" fill="white"/>
<path fill-rule="evenodd" clip-rule="evenodd" d="M82.9732 136.877L82.9732 117.281L86.5732 117.281L86.5732 136.877L82.9732 136.877Z" fill="white"/>
<path fill-rule="evenodd" clip-rule="evenodd" d="M94.6777 135.828C94.6777 136.814 93.8718 137.613 92.8777 137.613L76.718 137.613C75.7238 137.613 74.918 136.814 74.918 135.828C74.918 134.842 75.7238 134.043 76.718 134.043L92.8777 134.043C93.8718 134.043 94.6777 134.842 94.6777 135.828Z" fill="white"/>
<path fill-rule="evenodd" clip-rule="evenodd" d="M120.025 135.06C129.966 135.06 138.025 127.068 138.025 117.21C138.025 107.352 129.966 99.36 120.025 99.36C110.084 99.36 102.025 107.352 102.025 117.21C102.025 127.068 110.084 135.06 120.025 135.06ZM120.025 138.63C131.954 138.63 141.625 129.04 141.625 117.21C141.625 105.38 131.954 95.79 120.025 95.79C108.095 95.79 98.4248 105.38 98.4248 117.21C98.4248 129.04 108.095 138.63 120.025 138.63Z" fill="white"/>
<path fill-rule="evenodd" clip-rule="evenodd" d="M120.025 126.358C125.12 126.358 129.25 122.262 129.25 117.21C129.25 112.158 125.12 108.062 120.025 108.062C114.93 108.062 110.8 112.158 110.8 117.21C110.8 122.262 114.93 126.358 120.025 126.358ZM120.025 129.928C127.108 129.928 132.85 124.234 132.85 117.21C132.85 110.186 127.108 104.492 120.025 104.492C112.942 104.492 107.2 110.186 107.2 117.21C107.2 124.234 112.942 129.928 120.025 129.928Z" fill="white"/>
<path d="M130 62.4699C130 64.4416 128.388 66.0399 126.4 66.0399C124.412 66.0399 122.8 64.4416 122.8 62.4699C122.8 60.4982 124.412 58.8999 126.4 58.8999C128.388 58.8999 130 60.4982 130 62.4699Z" fill="white"/>
<path d="M140.8 62.4699C140.8 64.4416 139.188 66.0399 137.2 66.0399C135.212 66.0399 133.6 64.4416 133.6 62.4699C133.6 60.4982 135.212 58.8999 137.2 58.8999C139.188 58.8999 140.8 60.4982 140.8 62.4699Z" fill="white"/>
<defs>
<linearGradient id="paint0_linear" x1="0" y1="0" x2="210" y2="210" gradientUnits="userSpaceOnUse">
<stop stop-color="#75C7CC"/>
<stop offset="1" stop-color="#75C7CC" stop-opacity="0.5"/>
</linearGradient>
</defs>
</svg>
