<svg width="210" height="210" viewBox="0 0 210 210" fill="none" xmlns="http://www.w3.org/2000/svg">
<path d="M140.503 106.039H72.4902C67.2489 106.039 63 110.288 63 115.53V115.53C63 120.771 67.2489 125.02 72.4902 125.02H136.51C141.751 125.02 146 129.269 146 134.51V134.51C146 139.751 141.751 144 136.51 144H68.4967" stroke="white" stroke-width="12" stroke-linecap="round" stroke-linejoin="round"/>
<path fill-rule="evenodd" clip-rule="evenodd" d="M105.177 56.7507C106.189 57.7745 106.215 59.4612 105.234 60.5181C104.133 61.7044 102.84 63.7741 102.478 65.9874C102.15 67.9926 102.538 70.2661 105.048 72.4784C108.969 75.9351 109.989 79.9903 109.351 83.6661C108.754 87.1078 106.766 89.9286 105.147 91.5137C104.119 92.5207 102.504 92.4672 101.539 91.3942C100.574 90.3212 100.626 88.6351 101.654 87.6281C102.732 86.5716 103.98 84.7169 104.327 82.7168C104.633 80.951 104.305 78.7985 101.753 76.5494C97.7903 73.0559 96.8295 68.8574 97.4455 65.0908C98.0275 61.5322 99.971 58.5301 101.567 56.8106C102.548 55.7536 104.164 55.7268 105.177 56.7507Z" fill="white"/>
<path fill-rule="evenodd" clip-rule="evenodd" d="M76.9485 56.7507C77.9612 57.7745 77.9869 59.4612 77.0059 60.5181C75.9049 61.7044 74.6121 63.7741 74.2502 65.9874C73.9222 67.9926 74.3099 70.2661 76.8196 72.4784C80.7408 75.9351 81.7605 79.9903 81.1229 83.6661C80.5259 87.1078 78.5376 89.9286 76.9193 91.5137C75.8912 92.5207 74.2757 92.4672 73.3109 91.3942C72.3462 90.3212 72.3975 88.6351 73.4255 87.6281C74.5041 86.5716 75.7521 84.7169 76.099 82.7168C76.4053 80.951 76.0766 78.7985 73.5252 76.5494C69.5622 73.0559 68.6015 68.8574 69.2174 65.0908C69.7994 61.5322 71.7429 58.5301 73.3389 56.8106C74.3198 55.7536 75.9359 55.7268 76.9485 56.7507Z" fill="white"/>
<path fill-rule="evenodd" clip-rule="evenodd" d="M133.405 56.7507C134.417 57.7745 134.443 59.4612 133.462 60.5181C132.361 61.7044 131.068 63.7741 130.706 65.9874C130.378 67.9926 130.766 70.2661 133.276 72.4784C137.197 75.9351 138.217 79.9903 137.579 83.6661C136.982 87.1078 134.994 89.9286 133.375 91.5137C132.347 92.5207 130.732 92.4672 129.767 91.3942C128.802 90.3212 128.854 88.6351 129.882 87.6281C130.96 86.5716 132.208 84.7169 132.555 82.7168C132.862 80.951 132.533 78.7985 129.981 76.5494C126.018 73.0559 125.058 68.8574 125.674 65.0908C126.256 61.5322 128.199 58.5301 129.795 56.8106C130.776 55.7536 132.392 55.7268 133.405 56.7507Z" fill="white"/>
</svg>
