<svg width="210" height="210" viewBox="0 0 210 210" fill="none" xmlns="http://www.w3.org/2000/svg">
<path fill-rule="evenodd" clip-rule="evenodd" d="M115.907 119.013L124.779 94.1731C129.703 80.389 119.553 65.8621 105 65.8621C90.4467 65.8621 80.2975 80.389 85.2208 94.1731L94.0928 119.013H115.907ZM121.4 126.875L132.13 96.8327C138.883 77.9258 124.962 58 105 58C85.0379 58 71.1169 77.9258 77.8699 96.8327L88.6 126.875H121.4Z" fill="white"/>
<path fill-rule="evenodd" clip-rule="evenodd" d="M115.324 127.612H94.6762C93.4516 127.612 92.4589 128.611 92.4589 129.844C92.4589 131.076 93.4516 132.075 94.6762 132.075H115.324C116.548 132.075 117.541 131.076 117.541 129.844C117.541 128.611 116.548 127.612 115.324 127.612ZM94.6762 119.75C89.1375 119.75 84.6475 124.269 84.6475 129.844C84.6475 135.418 89.1375 139.938 94.6762 139.938H115.324C120.862 139.938 125.352 135.418 125.352 129.844C125.352 124.269 120.862 119.75 115.324 119.75H94.6762Z" fill="white"/>
<path fill-rule="evenodd" clip-rule="evenodd" d="M115.324 140.675H94.6762C93.4516 140.675 92.4589 141.674 92.4589 142.906C92.4589 144.139 93.4516 145.138 94.6762 145.138H115.324C116.548 145.138 117.541 144.139 117.541 142.906C117.541 141.674 116.548 140.675 115.324 140.675ZM94.6762 132.812C89.1375 132.812 84.6475 137.332 84.6475 142.906C84.6475 148.481 89.1375 153 94.6762 153H115.324C120.862 153 125.352 148.481 125.352 142.906C125.352 137.332 120.862 132.812 115.324 132.812H94.6762Z" fill="white"/>
<path fill-rule="evenodd" clip-rule="evenodd" d="M127.122 97.0748H81.6978V93.1438H127.122V97.0748Z" fill="white"/>
</svg>
