<svg width="210" height="210" viewBox="0 0 210 210" fill="none" xmlns="http://www.w3.org/2000/svg">
<path fill-rule="evenodd" clip-rule="evenodd" d="M142.5 62.5H67.5C64.7386 62.5 62.5 64.7386 62.5 67.5V142.5C62.5 145.261 64.7386 147.5 67.5 147.5H142.5C145.261 147.5 147.5 145.261 147.5 142.5V67.5C147.5 64.7386 145.261 62.5 142.5 62.5ZM67.5 55C60.5964 55 55 60.5964 55 67.5V142.5C55 149.404 60.5964 155 67.5 155H142.5C149.404 155 155 149.404 155 142.5V67.5C155 60.5964 149.404 55 142.5 55H67.5Z" fill="white"/>
<path fill-rule="evenodd" clip-rule="evenodd" d="M129.375 102.5H80.625C79.5895 102.5 78.75 103.339 78.75 104.375V130.625C78.75 131.661 79.5895 132.5 80.625 132.5H129.375C130.411 132.5 131.25 131.661 131.25 130.625V104.375C131.25 103.339 130.411 102.5 129.375 102.5ZM80.625 95C75.4473 95 71.25 99.1973 71.25 104.375V130.625C71.25 135.803 75.4473 140 80.625 140H129.375C134.553 140 138.75 135.803 138.75 130.625V104.375C138.75 99.1973 134.553 95 129.375 95H80.625Z" fill="white"/>
<path fill-rule="evenodd" clip-rule="evenodd" d="M150.625 87.5H58.75V80H150.625V87.5Z" fill="white"/>
<path fill-rule="evenodd" clip-rule="evenodd" d="M91.6383 105.862C92.3706 106.594 92.3706 107.781 91.6383 108.513L85.0758 115.076C84.3436 115.808 83.1564 115.808 82.4242 115.076C81.6919 114.344 81.6919 113.156 82.4242 112.424L88.9867 105.862C89.7189 105.129 90.9061 105.129 91.6383 105.862ZM101.326 105.862C102.058 106.594 102.058 107.781 101.326 108.513L93.8258 116.013C93.0936 116.746 91.9064 116.746 91.1742 116.013C90.4419 115.281 90.4419 114.094 91.1742 113.362L98.6742 105.862C99.4064 105.129 100.594 105.129 101.326 105.862ZM89.1383 118.049C89.8706 118.781 89.8706 119.969 89.1383 120.701L85.7008 124.138C84.9686 124.871 83.7814 124.871 83.0492 124.138C82.3169 123.406 82.3169 122.219 83.0492 121.487L86.4867 118.049C87.2189 117.317 88.4061 117.317 89.1383 118.049Z" fill="white"/>
</svg>
