<svg width="210" height="210" viewBox="0 0 210 210" fill="none" xmlns="http://www.w3.org/2000/svg">
<path fill-rule="evenodd" clip-rule="evenodd" d="M140.25 58.0051H69.75C67.1543 58.0051 65.05 60.0959 65.05 62.6751V150.239C65.05 152.818 67.1543 154.909 69.75 154.909H140.25C142.846 154.909 144.95 152.818 144.95 150.239V62.6751C144.95 60.0959 142.846 58.0051 140.25 58.0051ZM69.75 51C63.2607 51 58 56.2271 58 62.6751V150.239C58 156.687 63.2607 161.914 69.75 161.914H140.25C146.739 161.914 152 156.687 152 150.239V62.6751C152 56.2271 146.739 51 140.25 51H69.75Z" fill="white"/>
<path fill-rule="evenodd" clip-rule="evenodd" d="M79.1498 83.6904C81.0966 83.6904 82.6748 85.2586 82.6748 87.193L82.6748 126.888C82.6748 128.823 81.0966 130.391 79.1498 130.391C77.203 130.391 75.6248 128.823 75.6248 126.888L75.6248 87.193C75.6248 85.2586 77.203 83.6904 79.1498 83.6904Z" fill="white"/>
<path d="M74.4502 162.206C74.4502 160.11 76.1599 158.411 78.2689 158.411H84.1439C86.253 158.411 87.9627 160.11 87.9627 162.206C87.9627 164.301 86.253 166 84.1439 166H78.2689C76.1599 166 74.4502 164.301 74.4502 162.206Z" fill="white"/>
<path d="M121.45 162.206C121.45 160.11 123.16 158.411 125.269 158.411H131.144C133.253 158.411 134.963 160.11 134.963 162.206C134.963 164.301 133.253 166 131.144 166H125.269C123.16 166 121.45 164.301 121.45 162.206Z" fill="white"/>
</svg>
