<svg width="210" height="210" viewBox="0 0 210 210" fill="none" xmlns="http://www.w3.org/2000/svg">
<path fill-rule="evenodd" clip-rule="evenodd" d="M131.671 130.664L127.424 77.8686C126.466 65.9583 116.468 56.7785 104.455 56.7785C92.441 56.7785 82.4432 65.9583 81.4852 77.8686L77.2385 130.664H131.671ZM136.222 77.1686C134.897 60.696 121.07 48 104.455 48C87.8392 48 74.0119 60.696 72.6869 77.1685L67.6777 139.443H141.231L136.222 77.1686Z" fill="white"/>
<path fill-rule="evenodd" clip-rule="evenodd" d="M76.5042 138.711V148.221H132.405V138.711H76.5042ZM75.0331 129.933C70.9708 129.933 67.6777 133.208 67.6777 137.248V149.685C67.6777 153.725 70.9708 157 75.0331 157H133.876C137.938 157 141.231 153.725 141.231 149.685V137.248C141.231 133.208 137.938 129.933 133.876 129.933H75.0331Z" fill="white"/>
<path fill-rule="evenodd" clip-rule="evenodd" d="M148.587 95.5504C148.587 87.0659 141.671 80.1879 133.141 80.1879V71.4094C146.546 71.4094 157.413 82.2177 157.413 95.5504C157.413 108.883 146.546 119.691 133.141 119.691V110.913C141.671 110.913 148.587 104.035 148.587 95.5504Z" fill="white"/>
<path fill-rule="evenodd" clip-rule="evenodd" d="M60.3429 61.6372C61.1636 60.4288 62.534 59.7046 64.0002 59.7046H81.653V68.4831H70.5344L79.4949 90.619L71.3071 93.8975L59.9063 65.7331C59.3587 64.3804 59.5223 62.8456 60.3429 61.6372Z" fill="white"/>
<path fill-rule="evenodd" clip-rule="evenodd" d="M108.868 76.5301H100.041C98.4165 76.5301 97.0993 77.8402 97.0993 79.4563V113.839C97.0993 115.455 98.4165 116.765 100.041 116.765H108.868C110.493 116.765 111.81 115.455 111.81 113.839V79.4563C111.81 77.8402 110.493 76.5301 108.868 76.5301ZM100.041 72.1409C95.9791 72.1409 92.686 75.4161 92.686 79.4563V113.839C92.686 117.879 95.9791 121.154 100.041 121.154H108.868C112.93 121.154 116.223 117.879 116.223 113.839V79.4563C116.223 75.4161 112.93 72.1409 108.868 72.1409H100.041Z" fill="white"/>
<path fill-rule="evenodd" clip-rule="evenodd" d="M94.8926 85.3086C94.8926 84.0966 95.8805 83.114 97.0992 83.114H100.777C101.996 83.114 102.983 84.0966 102.983 85.3086C102.983 86.5207 101.996 87.5033 100.777 87.5033H97.0992C95.8805 87.5033 94.8926 86.5207 94.8926 85.3086Z" fill="white"/>
<path fill-rule="evenodd" clip-rule="evenodd" d="M94.8926 96.2818C94.8926 95.0697 95.8805 94.0872 97.0992 94.0872H100.777C101.996 94.0872 102.983 95.0697 102.983 96.2818C102.983 97.4939 101.996 98.4764 100.777 98.4764H97.0992C95.8805 98.4764 94.8926 97.4939 94.8926 96.2818Z" fill="white"/>
<path fill-rule="evenodd" clip-rule="evenodd" d="M94.8926 107.255C94.8926 106.043 95.8805 105.06 97.0992 105.06H100.777C101.996 105.06 102.983 106.043 102.983 107.255C102.983 108.467 101.996 109.45 100.777 109.45H97.0992C95.8805 109.45 94.8926 108.467 94.8926 107.255Z" fill="white"/>
</svg>
