<svg width="210" height="210" viewBox="0 0 210 210" fill="none" xmlns="http://www.w3.org/2000/svg">
<path fill-rule="evenodd" clip-rule="evenodd" d="M138.897 65.8621H70.1034C67.2087 65.8621 64.8621 68.2087 64.8621 71.1034V139.897C64.8621 142.791 67.2087 145.138 70.1034 145.138H138.897C141.791 145.138 144.138 142.791 144.138 139.897V71.1034C144.138 68.2087 141.791 65.8621 138.897 65.8621ZM70.1034 58C62.8666 58 57 63.8666 57 71.1034V139.897C57 147.133 62.8666 153 70.1034 153H138.897C146.133 153 152 147.133 152 139.897V71.1034C152 63.8666 146.133 58 138.897 58H70.1034Z" fill="white"/>
<path d="M96.9656 105.828C96.9656 107.999 95.2056 109.759 93.0345 109.759C90.8635 109.759 89.1035 107.999 89.1035 105.828C89.1035 103.656 90.8635 101.896 93.0345 101.896C95.2056 101.896 96.9656 103.656 96.9656 105.828Z" fill="white"/>
<path d="M119.897 105.828C119.897 107.999 118.137 109.759 115.966 109.759C113.795 109.759 112.035 107.999 112.035 105.828C112.035 103.656 113.795 101.896 115.966 101.896C118.137 101.896 119.897 103.656 119.897 105.828Z" fill="white"/>
<path fill-rule="evenodd" clip-rule="evenodd" d="M104.5 131.379C118.431 131.379 129.724 120.086 129.724 106.155C129.724 92.2241 118.431 80.9309 104.5 80.9309C90.5689 80.9309 79.2756 92.2241 79.2756 106.155C79.2756 120.086 90.5689 131.379 104.5 131.379ZM104.5 139.241C122.773 139.241 137.586 124.428 137.586 106.155C137.586 87.882 122.773 73.0688 104.5 73.0688C86.2268 73.0688 71.4136 87.882 71.4136 106.155C71.4136 124.428 86.2268 139.241 104.5 139.241Z" fill="white"/>
<path fill-rule="evenodd" clip-rule="evenodd" d="M100.569 87.8103V77H108.431V87.8103C108.431 89.9814 106.671 91.7414 104.5 91.7414C102.329 91.7414 100.569 89.9814 100.569 87.8103ZM104.5 121.879C106.671 121.879 108.431 123.639 108.431 125.81V135.966H100.569V125.81C100.569 123.639 102.329 121.879 104.5 121.879Z" fill="white"/>
</svg>
