<svg width="51" height="60" viewBox="0 0 51 60" fill="none" xmlns="http://www.w3.org/2000/svg">
<circle cx="25.5" cy="34.1492" r="24.5" fill="url(#paint0_linear_1252_3148)" stroke="white" stroke-width="2"/>
<path fill-rule="evenodd" clip-rule="evenodd" d="M35.3519 20.4123H16.972C16.2953 20.4123 15.7467 20.9579 15.7467 21.631V46.005C15.7467 46.6781 16.2953 47.2237 16.972 47.2237H35.3519C36.0286 47.2237 36.5772 46.6781 36.5772 46.005V21.631C36.5772 20.9579 36.0286 20.4123 35.3519 20.4123ZM16.972 18.5842C15.2802 18.5842 13.9087 19.9483 13.9087 21.631V46.005C13.9087 47.6877 15.2802 49.0518 16.972 49.0518H35.3519C37.0437 49.0518 38.4152 47.6877 38.4152 46.005V21.631C38.4152 19.9483 37.0437 18.5842 35.3519 18.5842H16.972Z" fill="white"/>
<path fill-rule="evenodd" clip-rule="evenodd" d="M37.1897 26.5058H14.6743V24.6777H37.1897V26.5058Z" fill="white"/>
<path fill-rule="evenodd" clip-rule="evenodd" d="M22.9444 31.99H18.5992V34.179C18.5992 35.3459 19.5765 36.3117 20.7718 36.3117C21.9671 36.3117 22.9444 35.3459 22.9444 34.179V31.99ZM17.6802 31.0759V34.179C17.6802 35.8616 19.08 37.2257 20.7718 37.2257C22.4636 37.2257 23.8634 35.8616 23.8634 34.179V31.0759H17.6802Z" fill="white"/>
<path fill-rule="evenodd" clip-rule="evenodd" d="M20.2836 41.5953L20.2836 36.5784L21.2026 36.5784L21.2026 41.5953L20.2836 41.5953Z" fill="white"/>
<path fill-rule="evenodd" clip-rule="evenodd" d="M23.2715 41.3269C23.2715 41.5793 23.0658 41.7839 22.812 41.7839L18.6868 41.7839C18.433 41.7839 18.2273 41.5793 18.2273 41.3269C18.2273 41.0745 18.433 40.8699 18.6868 40.8699L22.812 40.8699C23.0658 40.8699 23.2715 41.0745 23.2715 41.3269Z" fill="white"/>
<path fill-rule="evenodd" clip-rule="evenodd" d="M29.742 41.1302C32.2797 41.1302 34.337 39.0841 34.337 36.5601C34.337 34.0361 32.2797 31.99 29.742 31.99C27.2043 31.99 25.147 34.0361 25.147 36.5601C25.147 39.0841 27.2043 41.1302 29.742 41.1302ZM29.742 42.0442C32.7873 42.0442 35.2559 39.5889 35.2559 36.5601C35.2559 33.5313 32.7873 31.0759 29.742 31.0759C26.6967 31.0759 24.228 33.5313 24.228 36.5601C24.228 39.5889 26.6967 42.0442 29.742 42.0442Z" fill="white"/>
<path fill-rule="evenodd" clip-rule="evenodd" d="M29.7422 38.9024C31.0428 38.9024 32.0971 37.8537 32.0971 36.5602C32.0971 35.2666 31.0428 34.218 29.7422 34.218C28.4416 34.218 27.3873 35.2666 27.3873 36.5602C27.3873 37.8537 28.4416 38.9024 29.7422 38.9024ZM29.7422 39.8164C31.5503 39.8164 33.0161 38.3585 33.0161 36.5602C33.0161 34.7618 31.5503 33.304 29.7422 33.304C27.934 33.304 26.4683 34.7618 26.4683 36.5602C26.4683 38.3585 27.934 39.8164 29.7422 39.8164Z" fill="white"/>
<path d="M32.2887 22.5451C32.2887 23.0499 31.8772 23.4592 31.3697 23.4592C30.8621 23.4592 30.4507 23.0499 30.4507 22.5451C30.4507 22.0403 30.8621 21.6311 31.3697 21.6311C31.8772 21.6311 32.2887 22.0403 32.2887 22.5451Z" fill="white"/>
<path d="M35.0455 22.5451C35.0455 23.0499 34.6341 23.4592 34.1265 23.4592C33.619 23.4592 33.2075 23.0499 33.2075 22.5451C33.2075 22.0403 33.619 21.6311 34.1265 21.6311C34.6341 21.6311 35.0455 22.0403 35.0455 22.5451Z" fill="white"/>
<path fill-rule="evenodd" clip-rule="evenodd" d="M0.382323 6.146C0.382323 6.65576 0.79557 7.06901 1.30533 7.06901L5.2231 7.06901L5.2231 10.9866C5.2231 11.4964 5.63635 11.9096 6.14611 11.9096C6.65588 11.9096 7.06912 11.4964 7.06912 10.9866L7.06912 7.06901L10.9867 7.06901C11.4965 7.06901 11.9097 6.65576 11.9097 6.146C11.9097 5.63623 11.4965 5.22299 10.9867 5.22299H7.06912L7.06912 1.30528C7.06912 0.795513 6.65588 0.382268 6.14611 0.382268C5.63635 0.382267 5.2231 0.795514 5.2231 1.30528L5.2231 5.22299L1.30533 5.22299C0.795569 5.22299 0.382323 5.63623 0.382323 6.146Z" fill="white"/>
<defs>
<linearGradient id="paint0_linear_1252_3148" x1="0" y1="8.64917" x2="51" y2="59.6492" gradientUnits="userSpaceOnUse">
<stop stop-color="#E24C3A"/>
<stop offset="1" stop-color="#E24C3A" stop-opacity="0.5"/>
</linearGradient>
</defs>
</svg>
