<svg width="51" height="60" viewBox="0 0 51 60" fill="none" xmlns="http://www.w3.org/2000/svg">
<circle cx="25.5" cy="34.1492" r="24.5" fill="url(#paint0_linear_1252_3212)" stroke="white" stroke-width="2"/>
<path fill-rule="evenodd" clip-rule="evenodd" d="M35 23.8H17C16.3373 23.8 15.8 24.3373 15.8 25V43C15.8 43.6627 16.3373 44.2 17 44.2H35C35.6627 44.2 36.2 43.6627 36.2 43V25C36.2 24.3373 35.6627 23.8 35 23.8ZM17 22C15.3431 22 14 23.3431 14 25V43C14 44.6569 15.3431 46 17 46H35C36.6569 46 38 44.6569 38 43V25C38 23.3431 36.6569 22 35 22H17Z" fill="white"/>
<path fill-rule="evenodd" clip-rule="evenodd" d="M31.8499 33.4001H20.1499C19.9014 33.4001 19.6999 33.6016 19.6999 33.8501V40.1501C19.6999 40.3986 19.9014 40.6001 20.1499 40.6001H31.8499C32.0984 40.6001 32.2999 40.3986 32.2999 40.1501V33.8501C32.2999 33.6016 32.0984 33.4001 31.8499 33.4001ZM20.1499 31.6001C18.9073 31.6001 17.8999 32.6075 17.8999 33.8501V40.1501C17.8999 41.3927 18.9073 42.4001 20.1499 42.4001H31.8499C33.0925 42.4001 34.0999 41.3927 34.0999 40.1501V33.8501C34.0999 32.6075 33.0925 31.6001 31.8499 31.6001H20.1499Z" fill="white"/>
<path fill-rule="evenodd" clip-rule="evenodd" d="M36.9499 29.8H14.8999V28H36.9499V29.8Z" fill="white"/>
<path fill-rule="evenodd" clip-rule="evenodd" d="M22.7934 34.2068C22.9691 34.3825 22.9691 34.6674 22.7934 34.8431L21.2184 36.4181C21.0427 36.5939 20.7577 36.5939 20.582 36.4181C20.4063 36.2424 20.4063 35.9575 20.582 35.7818L22.157 34.2068C22.3327 34.031 22.6177 34.031 22.7934 34.2068ZM25.1184 34.2068C25.2941 34.3825 25.2941 34.6674 25.1184 34.8431L23.3184 36.6431C23.1427 36.8189 22.8577 36.8189 22.682 36.6431C22.5063 36.4674 22.5063 36.1825 22.682 36.0068L24.482 34.2068C24.6577 34.031 24.9427 34.031 25.1184 34.2068ZM22.1934 37.1318C22.3691 37.3075 22.3691 37.5924 22.1934 37.7681L21.3684 38.5931C21.1927 38.7689 20.9077 38.7689 20.732 38.5931C20.5563 38.4174 20.5563 38.1325 20.732 37.9568L21.557 37.1318C21.7327 36.956 22.0177 36.956 22.1934 37.1318Z" fill="white"/>
<path fill-rule="evenodd" clip-rule="evenodd" d="M0.382323 6.146C0.382323 6.65576 0.79557 7.06901 1.30533 7.06901L5.2231 7.06901L5.2231 10.9866C5.2231 11.4964 5.63635 11.9096 6.14611 11.9096C6.65588 11.9096 7.06912 11.4964 7.06912 10.9866L7.06912 7.06901L10.9867 7.06901C11.4965 7.06901 11.9097 6.65576 11.9097 6.146C11.9097 5.63623 11.4965 5.22299 10.9867 5.22299H7.06912L7.06912 1.30528C7.06912 0.795513 6.65588 0.382268 6.14611 0.382268C5.63635 0.382267 5.2231 0.795514 5.2231 1.30528L5.2231 5.22299L1.30533 5.22299C0.795569 5.22299 0.382323 5.63623 0.382323 6.146Z" fill="white"/>
<defs>
<linearGradient id="paint0_linear_1252_3212" x1="0" y1="8.64917" x2="51" y2="59.6492" gradientUnits="userSpaceOnUse">
<stop stop-color="#E24C3A"/>
<stop offset="1" stop-color="#E24C3A" stop-opacity="0.5"/>
</linearGradient>
</defs>
</svg>
