<svg width="210" height="210" viewBox="0 0 210 210" fill="none" xmlns="http://www.w3.org/2000/svg">
<path fill-rule="evenodd" clip-rule="evenodd" d="M129.6 55.8483H80.4C76.777 55.8483 73.84 58.7878 73.84 62.4138V148.586C73.84 152.212 76.777 155.152 80.4 155.152H129.6C133.223 155.152 136.16 152.212 136.16 148.586V62.4138C136.16 58.7878 133.223 55.8483 129.6 55.8483ZM80.4 46C71.3425 46 64 53.3487 64 62.4138V148.586C64 157.651 71.3425 165 80.4 165H129.6C138.657 165 146 157.651 146 148.586V62.4138C146 53.3487 138.657 46 129.6 46H80.4Z" fill="white"/>
<path fill-rule="evenodd" clip-rule="evenodd" d="M105 144.483C116.322 144.483 125.5 135.297 125.5 123.966C125.5 112.634 116.322 103.448 105 103.448C93.6782 103.448 84.5001 112.634 84.5001 123.966C84.5001 135.297 93.6782 144.483 105 144.483ZM105 149.407C119.039 149.407 130.42 138.016 130.42 123.966C130.42 109.915 119.039 98.5242 105 98.5242C90.961 98.5242 79.5801 109.915 79.5801 123.966C79.5801 138.016 90.961 149.407 105 149.407Z" fill="white"/>
<path fill-rule="evenodd" clip-rule="evenodd" d="M105 132.172C109.529 132.172 113.2 128.498 113.2 123.966C113.2 119.433 109.529 115.759 105 115.759C100.471 115.759 96.7999 119.433 96.7999 123.966C96.7999 128.498 100.471 132.172 105 132.172ZM105 137.097C112.246 137.097 118.12 131.218 118.12 123.966C118.12 116.713 112.246 110.834 105 110.834C97.7539 110.834 91.8799 116.713 91.8799 123.966C91.8799 131.218 97.7539 137.097 105 137.097Z" fill="white"/>
<path fill-rule="evenodd" clip-rule="evenodd" d="M105 85.3931C109.529 85.3931 113.2 81.7188 113.2 77.1862C113.2 72.6537 109.529 68.9793 105 68.9793C100.471 68.9793 96.7999 72.6537 96.7999 77.1862C96.7999 81.7188 100.471 85.3931 105 85.3931ZM105 90.3172C112.246 90.3172 118.12 84.4383 118.12 77.1862C118.12 69.9341 112.246 64.0552 105 64.0552C97.7539 64.0552 91.8799 69.9341 91.8799 77.1862C91.8799 84.4383 97.7539 90.3172 105 90.3172Z" fill="white"/>
</svg>
