<svg width="210" height="210" viewBox="0 0 210 210" fill="none" xmlns="http://www.w3.org/2000/svg">
<path fill-rule="evenodd" clip-rule="evenodd" d="M146.25 67.2667H63.75C60.7124 67.2667 58.25 69.7341 58.25 72.7778V124.444C58.25 127.488 60.7124 129.956 63.75 129.956H146.25C149.288 129.956 151.75 127.488 151.75 124.444V72.7778C151.75 69.7341 149.288 67.2667 146.25 67.2667ZM63.75 59C56.1561 59 50 65.1685 50 72.7778V124.444C50 132.054 56.1561 138.222 63.75 138.222H146.25C153.844 138.222 160 132.054 160 124.444V72.7778C160 65.1685 153.844 59 146.25 59H63.75Z" fill="white"/>
<path fill-rule="evenodd" clip-rule="evenodd" d="M112.562 138.911H97.4375V143.733H112.562V138.911ZM89.1875 130.645V152H120.812V130.645H89.1875Z" fill="white"/>
<path fill-rule="evenodd" clip-rule="evenodd" d="M67.875 147.867C67.875 145.584 69.7218 143.733 72 143.733H138C140.278 143.733 142.125 145.584 142.125 147.867C142.125 150.15 140.278 152 138 152H72C69.7218 152 67.875 150.15 67.875 147.867Z" fill="white"/>
<path fill-rule="evenodd" clip-rule="evenodd" d="M76.5976 73.2779C77.4611 74.0223 77.5588 75.3271 76.8159 76.1924L67.376 87.187C66.6332 88.0523 65.3309 88.1503 64.4674 87.4059C63.6039 86.6615 63.5061 85.3566 64.249 84.4914L73.6889 73.4967C74.4318 72.6314 75.7341 72.5335 76.5976 73.2779ZM90.5327 73.2779C91.3962 74.0223 91.4939 75.3271 90.751 76.1924L79.9626 88.7577C79.2197 89.6229 77.9175 89.7209 77.0539 88.9765C76.1904 88.2321 76.0927 86.9273 76.8356 86.062L87.624 73.4967C88.3669 72.6314 89.6692 72.5335 90.5327 73.2779ZM73.0014 93.6965C73.8649 94.4409 73.9627 95.7458 73.2198 96.611L68.2751 102.37C67.5322 103.235 66.23 103.333 65.3665 102.589C64.503 101.845 64.4052 100.54 65.1481 99.6745L70.0928 93.9154C70.8357 93.0501 72.1379 92.9521 73.0014 93.6965Z" fill="white"/>
</svg>
