<svg width="210" height="210" viewBox="0 0 210 210" fill="none" xmlns="http://www.w3.org/2000/svg">
<path fill-rule="evenodd" clip-rule="evenodd" d="M131.25 52.2609H78.75C76.817 52.2609 75.25 53.8311 75.25 55.7681V156.163C75.25 158.1 76.817 159.67 78.75 159.67H131.25C133.183 159.67 134.75 158.1 134.75 156.163V55.7681C134.75 53.8311 133.183 52.2609 131.25 52.2609ZM78.75 47C73.9175 47 70 50.9256 70 55.7681V156.163C70 161.006 73.9175 164.931 78.75 164.931H131.25C136.082 164.931 140 161.006 140 156.163V55.7681C140 50.9256 136.082 47 131.25 47H78.75Z" fill="white"/>
<path fill-rule="evenodd" clip-rule="evenodd" d="M85.75 109.692C87.1997 109.692 88.375 110.87 88.375 112.323L88.375 142.134C88.375 143.587 87.1997 144.765 85.75 144.765C84.3002 144.765 83.125 143.587 83.125 142.134L83.125 112.323C83.125 110.87 84.3003 109.692 85.75 109.692Z" fill="white"/>
<path fill-rule="evenodd" clip-rule="evenodd" d="M85.75 59.7139C87.1997 59.7139 88.375 60.8916 88.375 62.3443L88.375 77.6885C88.375 79.1413 87.1997 80.3189 85.75 80.3189C84.3002 80.3189 83.125 79.1413 83.125 77.6885L83.125 62.3443C83.125 60.8916 84.3003 59.7139 85.75 59.7139Z" fill="white"/>
<path d="M82.25 165.15C82.25 163.577 83.5232 162.301 85.0938 162.301H89.4688C91.0393 162.301 92.3125 163.577 92.3125 165.15C92.3125 166.724 91.0393 168 89.4688 168H85.0938C83.5232 168 82.25 166.724 82.25 165.15Z" fill="white"/>
<path d="M117.25 165.15C117.25 163.577 118.523 162.301 120.094 162.301H124.469C126.039 162.301 127.312 163.577 127.312 165.15C127.312 166.724 126.039 168 124.469 168H120.094C118.523 168 117.25 166.724 117.25 165.15Z" fill="white"/>
<path fill-rule="evenodd" clip-rule="evenodd" d="M137.375 94.3478H72.625V89.0869H137.375V94.3478Z" fill="white"/>
</svg>
