<svg width="210" height="210" viewBox="0 0 210 210" fill="none" xmlns="http://www.w3.org/2000/svg">
<path fill-rule="evenodd" clip-rule="evenodd" d="M140.125 54.14H68.875C66.2516 54.14 64.125 56.2711 64.125 58.9V154.1C64.125 156.729 66.2516 158.86 68.875 158.86H140.125C142.748 158.86 144.875 156.729 144.875 154.1V58.9C144.875 56.2711 142.748 54.14 140.125 54.14ZM68.875 47C62.3166 47 57 52.3278 57 58.9V154.1C57 160.672 62.3166 166 68.875 166H140.125C146.683 166 152 160.672 152 154.1V58.9C152 52.3278 146.683 47 140.125 47H68.875Z" fill="white"/>
<path fill-rule="evenodd" clip-rule="evenodd" d="M103.906 139.82C116.367 139.82 126.469 129.697 126.469 117.21C126.469 104.723 116.367 94.6 103.906 94.6C91.4453 94.6 81.3438 104.723 81.3438 117.21C81.3438 129.697 91.4453 139.82 103.906 139.82ZM103.906 146.96C120.302 146.96 133.594 133.64 133.594 117.21C133.594 100.779 120.302 87.46 103.906 87.46C87.5103 87.46 74.2188 100.779 74.2188 117.21C74.2188 133.64 87.5103 146.96 103.906 146.96Z" fill="white"/>
<path fill-rule="evenodd" clip-rule="evenodd" d="M147.25 77.94H59.9688V70.8H147.25V77.94Z" fill="white"/>
<path fill-rule="evenodd" clip-rule="evenodd" d="M105.338 107.619C105.927 108.191 105.942 109.133 105.372 109.723C104.732 110.385 103.98 111.54 103.769 112.776C103.579 113.896 103.804 115.165 105.263 116.4C107.543 118.33 108.136 120.594 107.766 122.646C107.418 124.568 106.262 126.142 105.321 127.027C104.724 127.59 103.784 127.56 103.223 126.961C102.662 126.362 102.692 125.42 103.29 124.858C103.917 124.268 104.643 123.233 104.844 122.116C105.022 121.13 104.831 119.928 103.348 118.673C101.043 116.722 100.485 114.378 100.843 112.276C101.181 110.289 102.311 108.613 103.239 107.653C103.81 107.063 104.75 107.048 105.338 107.619Z" fill="white"/>
<path fill-rule="evenodd" clip-rule="evenodd" d="M95.2446 107.619C95.8334 108.191 95.8484 109.133 95.278 109.723C94.6378 110.385 93.886 111.54 93.6756 112.776C93.4849 113.896 93.7103 115.165 95.1696 116.4C97.4497 118.33 98.0426 120.594 97.6719 122.646C97.3247 124.568 96.1686 126.142 95.2276 127.027C94.6298 127.59 93.6904 127.56 93.1294 126.961C92.5684 126.362 92.5982 125.42 93.196 124.858C93.8232 124.268 94.5489 123.233 94.7506 122.116C94.9287 121.13 94.7376 119.928 93.254 118.673C90.9496 116.722 90.3909 114.378 90.7491 112.276C91.0875 110.289 92.2176 108.613 93.1456 107.653C93.716 107.063 94.6558 107.048 95.2446 107.619Z" fill="white"/>
<path fill-rule="evenodd" clip-rule="evenodd" d="M115.432 107.619C116.021 108.191 116.036 109.133 115.465 109.723C114.825 110.385 114.074 111.54 113.863 112.776C113.672 113.896 113.898 115.165 115.357 116.4C117.637 118.33 118.23 120.594 117.859 122.646C117.512 124.568 116.356 126.142 115.415 127.027C114.817 127.59 113.878 127.56 113.317 126.961C112.756 126.362 112.786 125.42 113.384 124.858C114.011 124.268 114.736 123.233 114.938 122.116C115.116 121.13 114.925 119.928 113.441 118.673C111.137 116.722 110.578 114.378 110.937 112.276C111.275 110.289 112.405 108.613 113.333 107.653C113.904 107.063 114.843 107.048 115.432 107.619Z" fill="white"/>
</svg>
