<svg width="210" height="210" viewBox="0 0 210 210" fill="none" xmlns="http://www.w3.org/2000/svg">
<path d="M119.762 143.656C119.762 145.955 117.899 147.819 115.6 147.819C113.301 147.819 111.438 145.955 111.438 143.656C111.438 141.357 113.301 139.494 115.6 139.494C117.899 139.494 119.762 141.357 119.762 143.656Z" fill="white"/>
<path fill-rule="evenodd" clip-rule="evenodd" d="M146.125 58.325H62.875C59.8098 58.325 57.325 60.8098 57.325 63.875V147.125C57.325 150.19 59.8098 152.675 62.875 152.675H146.125C149.19 152.675 151.675 150.19 151.675 147.125V63.875C151.675 60.8098 149.19 58.325 146.125 58.325ZM62.875 50C55.212 50 49 56.212 49 63.875V147.125C49 154.788 55.212 161 62.875 161H146.125C153.788 161 160 154.788 160 147.125V63.875C160 56.212 153.788 50 146.125 50H62.875Z" fill="white"/>
<path fill-rule="evenodd" clip-rule="evenodd" d="M124.966 67.3437C117.494 67.3437 111.437 73.4004 111.437 80.8718C111.437 88.3432 117.494 94.3999 124.966 94.3999C132.437 94.3999 138.494 88.3432 138.494 80.8718C138.494 79.7223 139.425 78.7905 140.575 78.7905C141.724 78.7905 142.656 79.7223 142.656 80.8718C142.656 90.642 134.736 98.5624 124.966 98.5624C115.195 98.5624 107.275 90.642 107.275 80.8718C107.275 71.1015 115.195 63.1812 124.966 63.1812C126.115 63.1812 127.047 64.113 127.047 65.2624C127.047 66.4118 126.115 67.3437 124.966 67.3437Z" fill="white"/>
<path fill-rule="evenodd" clip-rule="evenodd" d="M78.4844 68.7312C78.4844 67.5817 79.4162 66.6499 80.5656 66.6499C88.4201 66.6499 94.7875 73.0173 94.7875 80.8718C94.7875 88.7263 88.4201 95.0937 80.5656 95.0937C72.7111 95.0937 66.3438 88.7263 66.3438 80.8718C66.3438 79.7223 67.2756 78.7905 68.425 78.7905C69.5744 78.7905 70.5062 79.7223 70.5062 80.8718C70.5062 86.4274 75.01 90.9312 80.5656 90.9312C86.1213 90.9312 90.625 86.4274 90.625 80.8718C90.625 75.3161 86.1213 70.8124 80.5656 70.8124C79.4162 70.8124 78.4844 69.8806 78.4844 68.7312Z" fill="white"/>
<path fill-rule="evenodd" clip-rule="evenodd" d="M81.9533 106.888C74.4819 106.888 68.4252 112.944 68.4252 120.416C68.4252 121.565 67.4934 122.497 66.3439 122.497C65.1945 122.497 64.2627 121.565 64.2627 120.416C64.2627 110.645 72.1831 102.725 81.9533 102.725C91.7236 102.725 99.6439 110.645 99.6439 120.416C99.6439 130.186 91.7236 138.106 81.9533 138.106C80.8039 138.106 79.8721 137.175 79.8721 136.025C79.8721 134.876 80.8039 133.944 81.9533 133.944C89.4247 133.944 95.4814 127.887 95.4814 120.416C95.4814 112.944 89.4247 106.888 81.9533 106.888Z" fill="white"/>
<path fill-rule="evenodd" clip-rule="evenodd" d="M126.353 110.356C120.798 110.356 116.294 114.86 116.294 120.416C116.294 125.971 120.798 130.475 126.353 130.475C127.503 130.475 128.434 131.407 128.434 132.556C128.434 133.706 127.503 134.638 126.353 134.638C118.499 134.638 112.131 128.27 112.131 120.416C112.131 112.561 118.499 106.194 126.353 106.194C134.208 106.194 140.575 112.561 140.575 120.416C140.575 121.565 139.643 122.497 138.494 122.497C137.344 122.497 136.413 121.565 136.413 120.416C136.413 114.86 131.909 110.356 126.353 110.356Z" fill="white"/>
<path d="M119.762 143.656C119.762 145.955 117.899 147.819 115.6 147.819C113.301 147.819 111.438 145.955 111.438 143.656C111.438 141.357 113.301 139.494 115.6 139.494C117.899 139.494 119.762 141.357 119.762 143.656Z" fill="white"/>
<path d="M132.25 143.656C132.25 145.955 130.386 147.819 128.087 147.819C125.788 147.819 123.925 145.955 123.925 143.656C123.925 141.357 125.788 139.494 128.087 139.494C130.386 139.494 132.25 141.357 132.25 143.656Z" fill="white"/>
<path d="M144.738 143.656C144.738 145.955 142.874 147.819 140.575 147.819C138.276 147.819 136.413 145.955 136.413 143.656C136.413 141.357 138.276 139.494 140.575 139.494C142.874 139.494 144.738 141.357 144.738 143.656Z" fill="white"/>
<path d="M107.275 143.656C107.275 145.955 105.412 147.819 103.113 147.819C100.814 147.819 98.9502 145.955 98.9502 143.656C98.9502 141.357 100.814 139.494 103.113 139.494C105.412 139.494 107.275 141.357 107.275 143.656Z" fill="white"/>
</svg>
