<svg width="51" height="60" viewBox="0 0 51 60" fill="none" xmlns="http://www.w3.org/2000/svg">
<circle cx="25.5" cy="34.1492" r="24.5" fill="url(#paint0_linear_1252_3172)" stroke="white" stroke-width="2"/>
<path fill-rule="evenodd" clip-rule="evenodd" d="M35 20.8H17C16.3373 20.8 15.8 21.3373 15.8 22V46C15.8 46.6627 16.3373 47.2 17 47.2H35C35.6627 47.2 36.2 46.6627 36.2 46V22C36.2 21.3373 35.6627 20.8 35 20.8ZM17 19C15.3431 19 14 20.3431 14 22V46C14 47.6569 15.3431 49 17 49H35C36.6569 49 38 47.6569 38 46V22C38 20.3431 36.6569 19 35 19H17Z" fill="white"/>
<path fill-rule="evenodd" clip-rule="evenodd" d="M25.8501 42.4C28.9981 42.4 31.5501 39.848 31.5501 36.7C31.5501 33.5519 28.9981 31 25.8501 31C22.7021 31 20.1501 33.5519 20.1501 36.7C20.1501 39.848 22.7021 42.4 25.8501 42.4ZM25.8501 44.2C29.9922 44.2 33.3501 40.8421 33.3501 36.7C33.3501 32.5578 29.9922 29.2 25.8501 29.2C21.708 29.2 18.3501 32.5578 18.3501 36.7C18.3501 40.8421 21.708 44.2 25.8501 44.2Z" fill="white"/>
<path fill-rule="evenodd" clip-rule="evenodd" d="M36.8 26.8H14.75V25H36.8V26.8Z" fill="white"/>
<path fill-rule="evenodd" clip-rule="evenodd" d="M26.2118 34.2822C26.3606 34.4263 26.3643 34.6637 26.2202 34.8124C26.0585 34.9794 25.8686 35.2707 25.8154 35.5822C25.7672 35.8644 25.8242 36.1844 26.1929 36.4958C26.7689 36.9823 26.9187 37.5531 26.825 38.0704C26.7373 38.5548 26.4452 38.9519 26.2075 39.175C26.0565 39.3167 25.8192 39.3092 25.6774 39.1581C25.5357 39.0071 25.5432 38.7698 25.6943 38.6281C25.8527 38.4794 26.036 38.2183 26.087 37.9368C26.132 37.6883 26.0837 37.3853 25.7089 37.0688C25.1268 36.5771 24.9856 35.9861 25.0761 35.456C25.1616 34.9552 25.4471 34.5326 25.6815 34.2906C25.8256 34.1418 26.063 34.1381 26.2118 34.2822Z" fill="white"/>
<path fill-rule="evenodd" clip-rule="evenodd" d="M23.6618 34.2822C23.8106 34.4263 23.8143 34.6637 23.6702 34.8124C23.5085 34.9794 23.3186 35.2707 23.2654 35.5822C23.2172 35.8644 23.2742 36.1844 23.6429 36.4958C24.2189 36.9823 24.3687 37.5531 24.275 38.0704C24.1873 38.5548 23.8952 38.9519 23.6575 39.175C23.5065 39.3167 23.2692 39.3092 23.1274 39.1581C22.9857 39.0071 22.9932 38.7698 23.1443 38.6281C23.3027 38.4794 23.486 38.2183 23.537 37.9368C23.582 37.6883 23.5337 37.3853 23.1589 37.0688C22.5768 36.5771 22.4356 35.9861 22.5261 35.456C22.6116 34.9552 22.8971 34.5326 23.1315 34.2906C23.2756 34.1418 23.513 34.1381 23.6618 34.2822Z" fill="white"/>
<path fill-rule="evenodd" clip-rule="evenodd" d="M28.7618 34.2822C28.9106 34.4263 28.9143 34.6637 28.7702 34.8124C28.6085 34.9794 28.4186 35.2707 28.3654 35.5822C28.3172 35.8644 28.3742 36.1844 28.7429 36.4958C29.3189 36.9823 29.4687 37.5531 29.375 38.0704C29.2873 38.5548 28.9952 38.9519 28.7575 39.175C28.6065 39.3167 28.3692 39.3092 28.2274 39.1581C28.0857 39.0071 28.0933 38.7698 28.2443 38.6281C28.4027 38.4794 28.586 38.2183 28.637 37.9368C28.682 37.6883 28.6337 37.3853 28.2589 37.0688C27.6768 36.5771 27.5356 35.9861 27.6261 35.456C27.7116 34.9552 27.9971 34.5326 28.2315 34.2906C28.3756 34.1418 28.613 34.1381 28.7618 34.2822Z" fill="white"/>
<path fill-rule="evenodd" clip-rule="evenodd" d="M0.382323 6.146C0.382323 6.65576 0.79557 7.06901 1.30533 7.06901L5.2231 7.06901L5.2231 10.9866C5.2231 11.4964 5.63635 11.9096 6.14611 11.9096C6.65588 11.9096 7.06912 11.4964 7.06912 10.9866L7.06912 7.06901L10.9867 7.06901C11.4965 7.06901 11.9097 6.65576 11.9097 6.146C11.9097 5.63623 11.4965 5.22299 10.9867 5.22299H7.06912L7.06912 1.30528C7.06912 0.795513 6.65588 0.382268 6.14611 0.382268C5.63635 0.382267 5.2231 0.795514 5.2231 1.30528L5.2231 5.22299L1.30533 5.22299C0.795569 5.22299 0.382323 5.63623 0.382323 6.146Z" fill="white"/>
<defs>
<linearGradient id="paint0_linear_1252_3172" x1="0" y1="8.64917" x2="51" y2="59.6492" gradientUnits="userSpaceOnUse">
<stop stop-color="#E24C3A"/>
<stop offset="1" stop-color="#E24C3A" stop-opacity="0.5"/>
</linearGradient>
</defs>
</svg>
