<svg width="51" height="60" viewBox="0 0 51 60" fill="none" xmlns="http://www.w3.org/2000/svg">
<circle cx="25.5" cy="34.1492" r="24.5" fill="url(#paint0_linear_1252_3192)" stroke="white" stroke-width="2"/>
<path fill-rule="evenodd" clip-rule="evenodd" d="M34.4545 20.7922H16.9221C16.2766 20.7922 15.7532 21.3271 15.7532 21.987V45.8831C15.7532 46.543 16.2766 47.0779 16.9221 47.0779H34.4545C35.1001 47.0779 35.6234 46.543 35.6234 45.8831V21.987C35.6234 21.3271 35.1001 20.7922 34.4545 20.7922ZM16.9221 19C15.3083 19 14 20.3373 14 21.987V45.8831C14 47.5328 15.3083 48.8701 16.9221 48.8701H34.4545C36.0684 48.8701 37.3766 47.5328 37.3766 45.8831V21.987C37.3766 20.3373 36.0684 19 34.4545 19H16.9221Z" fill="white"/>
<path fill-rule="evenodd" clip-rule="evenodd" d="M25.542 42.2986C28.6083 42.2986 31.094 39.7577 31.094 36.6233C31.094 33.4889 28.6083 30.948 25.542 30.948C22.4758 30.948 19.9901 33.4889 19.9901 36.6233C19.9901 39.7577 22.4758 42.2986 25.542 42.2986ZM25.542 44.0908C29.5766 44.0908 32.8472 40.7475 32.8472 36.6233C32.8472 32.4991 29.5766 29.1558 25.542 29.1558C21.5075 29.1558 18.2368 32.4991 18.2368 36.6233C18.2368 40.7475 21.5075 44.0908 25.542 44.0908Z" fill="white"/>
<path fill-rule="evenodd" clip-rule="evenodd" d="M36.2077 26.7663H14.7305V24.9741H36.2077V26.7663Z" fill="white"/>
<path fill-rule="evenodd" clip-rule="evenodd" d="M24.6201 32.6768C24.6888 32.9141 24.5563 33.1634 24.3241 33.2336C23.1027 33.6029 22.1127 34.6945 21.8842 36.125C21.8452 36.3692 21.6199 36.5348 21.381 36.495C21.142 36.4551 20.98 36.2248 21.019 35.9806C21.3016 34.2116 22.5304 32.8415 24.0755 32.3743C24.3076 32.3041 24.5514 32.4395 24.6201 32.6768Z" fill="white"/>
<path fill-rule="evenodd" clip-rule="evenodd" d="M28.8614 39.7579C27.7052 39.8517 26.5082 39.608 25.1795 39.1378C24.3149 38.8319 23.1331 38.7839 22.0821 38.8986C21.5613 38.9554 21.0902 39.0503 20.7251 39.164C20.5423 39.2209 20.3937 39.2802 20.2819 39.3375C20.164 39.3979 20.1135 39.4428 20.1 39.4585L19.4419 38.8665C19.5623 38.7266 19.7264 38.6198 19.889 38.5365C20.0575 38.4501 20.2552 38.3736 20.4696 38.3068C20.8989 38.1732 21.4262 38.0689 21.989 38.0075C23.1052 37.8857 24.4315 37.9249 25.4663 38.291C26.7362 38.7404 27.8038 38.9447 28.7921 38.8646C29.772 38.7852 30.7088 38.4232 31.7135 37.6794L32.2277 38.4052C31.1139 39.2297 30.0262 39.6635 28.8614 39.7579Z" fill="white"/>
<path fill-rule="evenodd" clip-rule="evenodd" d="M19.8439 24.974L19.8439 20.0454L21.5972 20.0454L21.5972 24.974L19.8439 24.974Z" fill="white"/>
<path fill-rule="evenodd" clip-rule="evenodd" d="M0.382323 6.146C0.382323 6.65576 0.79557 7.06901 1.30533 7.06901L5.2231 7.06901L5.2231 10.9866C5.2231 11.4964 5.63635 11.9096 6.14611 11.9096C6.65588 11.9096 7.06912 11.4964 7.06912 10.9866L7.06912 7.06901L10.9867 7.06901C11.4965 7.06901 11.9097 6.65576 11.9097 6.146C11.9097 5.63623 11.4965 5.22299 10.9867 5.22299H7.06912L7.06912 1.30528C7.06912 0.795513 6.65588 0.382268 6.14611 0.382268C5.63635 0.382267 5.2231 0.795514 5.2231 1.30528L5.2231 5.22299L1.30533 5.22299C0.795569 5.22299 0.382323 5.63623 0.382323 6.146Z" fill="white"/>
<defs>
<linearGradient id="paint0_linear_1252_3192" x1="0" y1="8.64917" x2="51" y2="59.6492" gradientUnits="userSpaceOnUse">
<stop stop-color="#E24C3A"/>
<stop offset="1" stop-color="#E24C3A" stop-opacity="0.5"/>
</linearGradient>
</defs>
</svg>
