<svg width="51" height="52" viewBox="0 0 51 52" fill="none" xmlns="http://www.w3.org/2000/svg">
<circle cx="25.5" cy="26.1492" r="25.5" fill="url(#paint0_linear_1252_3302)" fill-opacity="0.5"/>
<path fill-rule="evenodd" clip-rule="evenodd" d="M34.4545 12.7922H16.9221C16.2766 12.7922 15.7532 13.3271 15.7532 13.987V37.8831C15.7532 38.543 16.2766 39.0779 16.9221 39.0779H34.4545C35.1001 39.0779 35.6234 38.543 35.6234 37.8831V13.987C35.6234 13.3271 35.1001 12.7922 34.4545 12.7922ZM16.9221 11C15.3083 11 14 12.3373 14 13.987V37.8831C14 39.5328 15.3083 40.8701 16.9221 40.8701H34.4545C36.0684 40.8701 37.3766 39.5328 37.3766 37.8831V13.987C37.3766 12.3373 36.0684 11 34.4545 11H16.9221Z" fill="white"/>
<path fill-rule="evenodd" clip-rule="evenodd" d="M25.542 34.2987C28.6083 34.2987 31.094 31.7578 31.094 28.6234C31.094 25.489 28.6083 22.9481 25.542 22.9481C22.4758 22.9481 19.9901 25.489 19.9901 28.6234C19.9901 31.7578 22.4758 34.2987 25.542 34.2987ZM25.542 36.0909C29.5766 36.0909 32.8472 32.7476 32.8472 28.6234C32.8472 24.4992 29.5766 21.1559 25.542 21.1559C21.5075 21.1559 18.2368 24.4992 18.2368 28.6234C18.2368 32.7476 21.5075 36.0909 25.542 36.0909Z" fill="white"/>
<path fill-rule="evenodd" clip-rule="evenodd" d="M36.2077 18.7662H14.7305V16.974H36.2077V18.7662Z" fill="white"/>
<path fill-rule="evenodd" clip-rule="evenodd" d="M24.6201 24.6768C24.6888 24.9141 24.5563 25.1634 24.3241 25.2336C23.1027 25.6029 22.1127 26.6945 21.8842 28.125C21.8452 28.3692 21.6199 28.5348 21.381 28.495C21.142 28.4551 20.98 28.2248 21.019 27.9806C21.3016 26.2116 22.5304 24.8415 24.0755 24.3743C24.3076 24.3041 24.5514 24.4395 24.6201 24.6768Z" fill="white"/>
<path fill-rule="evenodd" clip-rule="evenodd" d="M28.8614 31.7579C27.7052 31.8517 26.5082 31.608 25.1795 31.1378C24.3149 30.8319 23.1331 30.7839 22.0821 30.8986C21.5613 30.9554 21.0902 31.0503 20.7251 31.164C20.5423 31.2209 20.3937 31.2802 20.2819 31.3375C20.164 31.3979 20.1135 31.4428 20.1 31.4585L19.4419 30.8665C19.5623 30.7266 19.7264 30.6198 19.889 30.5365C20.0575 30.4501 20.2552 30.3736 20.4696 30.3068C20.8989 30.1732 21.4262 30.0689 21.989 30.0075C23.1052 29.8857 24.4315 29.9249 25.4663 30.291C26.7362 30.7404 27.8038 30.9447 28.7921 30.8646C29.772 30.7852 30.7088 30.4232 31.7135 29.6794L32.2277 30.4052C31.1139 31.2297 30.0262 31.6635 28.8614 31.7579Z" fill="white"/>
<path fill-rule="evenodd" clip-rule="evenodd" d="M19.8439 16.974L19.8439 12.0454L21.5972 12.0454L21.5972 16.974L19.8439 16.974Z" fill="white"/>
<defs>
<linearGradient id="paint0_linear_1252_3302" x1="0" y1="0.64917" x2="51" y2="51.6492" gradientUnits="userSpaceOnUse">
<stop stop-color="#E24C3A"/>
<stop offset="1" stop-color="#E24C3A" stop-opacity="0.5"/>
</linearGradient>
</defs>
</svg>
