<svg width="51" height="52" viewBox="0 0 51 52" fill="none" xmlns="http://www.w3.org/2000/svg">
<circle cx="25.5" cy="26.1492" r="25.5" fill="url(#paint0_linear_1252_3311)" fill-opacity="0.5"/>
<path fill-rule="evenodd" clip-rule="evenodd" d="M35 15.8H17C16.3373 15.8 15.8 16.3373 15.8 17V35C15.8 35.6627 16.3373 36.2 17 36.2H35C35.6627 36.2 36.2 35.6627 36.2 35V17C36.2 16.3373 35.6627 15.8 35 15.8ZM17 14C15.3431 14 14 15.3431 14 17V35C14 36.6569 15.3431 38 17 38H35C36.6569 38 38 36.6569 38 35V17C38 15.3431 36.6569 14 35 14H17Z" fill="white"/>
<path fill-rule="evenodd" clip-rule="evenodd" d="M31.8499 25.4H20.1499C19.9014 25.4 19.6999 25.6014 19.6999 25.85V32.15C19.6999 32.3985 19.9014 32.6 20.1499 32.6H31.8499C32.0984 32.6 32.2999 32.3985 32.2999 32.15V25.85C32.2999 25.6014 32.0984 25.4 31.8499 25.4ZM20.1499 23.6C18.9073 23.6 17.8999 24.6073 17.8999 25.85V32.15C17.8999 33.3926 18.9073 34.4 20.1499 34.4H31.8499C33.0925 34.4 34.0999 33.3926 34.0999 32.15V25.85C34.0999 24.6073 33.0925 23.6 31.8499 23.6H20.1499Z" fill="white"/>
<path fill-rule="evenodd" clip-rule="evenodd" d="M36.9499 21.8H14.8999V20H36.9499V21.8Z" fill="white"/>
<path fill-rule="evenodd" clip-rule="evenodd" d="M22.7934 26.2068C22.9691 26.3825 22.9691 26.6674 22.7934 26.8431L21.2184 28.4181C21.0427 28.5939 20.7577 28.5939 20.582 28.4181C20.4063 28.2424 20.4063 27.9575 20.582 27.7818L22.157 26.2068C22.3327 26.031 22.6177 26.031 22.7934 26.2068ZM25.1184 26.2068C25.2941 26.3825 25.2941 26.6674 25.1184 26.8431L23.3184 28.6431C23.1427 28.8189 22.8577 28.8189 22.682 28.6431C22.5063 28.4674 22.5063 28.1825 22.682 28.0068L24.482 26.2068C24.6577 26.031 24.9427 26.031 25.1184 26.2068ZM22.1934 29.1318C22.3691 29.3075 22.3691 29.5924 22.1934 29.7681L21.3684 30.5931C21.1927 30.7689 20.9077 30.7689 20.732 30.5931C20.5563 30.4174 20.5563 30.1325 20.732 29.9568L21.557 29.1318C21.7327 28.956 22.0177 28.956 22.1934 29.1318Z" fill="white"/>
<defs>
<linearGradient id="paint0_linear_1252_3311" x1="0" y1="0.64917" x2="51" y2="51.6492" gradientUnits="userSpaceOnUse">
<stop stop-color="#E24C3A"/>
<stop offset="1" stop-color="#E24C3A" stop-opacity="0.5"/>
</linearGradient>
</defs>
</svg>
