<svg width="51" height="51" viewBox="0 0 51 51" fill="none" xmlns="http://www.w3.org/2000/svg">
<g opacity="0.5">
<circle cx="25.5" cy="25.5" r="25.5" fill="url(#paint0_linear_1252_3788)"/>
<path fill-rule="evenodd" clip-rule="evenodd" d="M36.1405 15.6789C35.2356 14.774 33.7685 14.774 32.8636 15.6789L25.9094 22.6331L18.9553 15.6789C18.0504 14.7741 16.5833 14.7741 15.6785 15.6789C14.7736 16.5838 14.7736 18.0509 15.6785 18.9558L22.6326 25.9099L15.6782 32.8643C14.7733 33.7692 14.7733 35.2363 15.6782 36.1412C16.5831 37.0461 18.0502 37.0461 18.9551 36.1412L25.9094 29.1868L32.8639 36.1412C33.7687 37.0461 35.2358 37.0461 36.1407 36.1412C37.0456 35.2363 37.0456 33.7692 36.1407 32.8644L29.1863 25.9099L36.1405 18.9558C37.0453 18.0509 37.0453 16.5838 36.1405 15.6789Z" fill="white"/>
</g>
<defs>
<linearGradient id="paint0_linear_1252_3788" x1="0" y1="0" x2="51" y2="51" gradientUnits="userSpaceOnUse">
<stop stop-color="#707070"/>
<stop offset="1" stop-color="#707070"/>
</linearGradient>
</defs>
</svg>
