<svg width="51" height="52" viewBox="0 0 51 52" fill="none" xmlns="http://www.w3.org/2000/svg">
<circle cx="25.5" cy="26.1492" r="25.5" fill="url(#paint0_linear_1252_3293)" fill-opacity="0.5"/>
<path fill-rule="evenodd" clip-rule="evenodd" d="M35 12.8H17C16.3373 12.8 15.8 13.3373 15.8 14V38C15.8 38.6627 16.3373 39.2 17 39.2H35C35.6627 39.2 36.2 38.6627 36.2 38V14C36.2 13.3373 35.6627 12.8 35 12.8ZM17 11C15.3431 11 14 12.3431 14 14V38C14 39.6569 15.3431 41 17 41H35C36.6569 41 38 39.6569 38 38V14C38 12.3431 36.6569 11 35 11H17Z" fill="white"/>
<path fill-rule="evenodd" clip-rule="evenodd" d="M25.8501 34.4C28.9981 34.4 31.5501 31.848 31.5501 28.7C31.5501 25.5519 28.9981 23 25.8501 23C22.7021 23 20.1501 25.5519 20.1501 28.7C20.1501 31.848 22.7021 34.4 25.8501 34.4ZM25.8501 36.2C29.9922 36.2 33.3501 32.8421 33.3501 28.7C33.3501 24.5578 29.9922 21.2 25.8501 21.2C21.708 21.2 18.3501 24.5578 18.3501 28.7C18.3501 32.8421 21.708 36.2 25.8501 36.2Z" fill="white"/>
<path fill-rule="evenodd" clip-rule="evenodd" d="M36.8 18.8H14.75V17H36.8V18.8Z" fill="white"/>
<path fill-rule="evenodd" clip-rule="evenodd" d="M26.2118 26.2822C26.3606 26.4263 26.3643 26.6637 26.2202 26.8124C26.0585 26.9794 25.8686 27.2707 25.8154 27.5822C25.7672 27.8644 25.8242 28.1844 26.1929 28.4958C26.7689 28.9823 26.9187 29.5531 26.825 30.0704C26.7373 30.5548 26.4452 30.9519 26.2075 31.175C26.0565 31.3167 25.8192 31.3092 25.6774 31.1581C25.5357 31.0071 25.5432 30.7698 25.6943 30.6281C25.8527 30.4794 26.036 30.2183 26.087 29.9368C26.132 29.6883 26.0837 29.3853 25.7089 29.0688C25.1268 28.5771 24.9856 27.9861 25.0761 27.456C25.1616 26.9552 25.4471 26.5326 25.6815 26.2906C25.8256 26.1418 26.063 26.1381 26.2118 26.2822Z" fill="white"/>
<path fill-rule="evenodd" clip-rule="evenodd" d="M23.6618 26.2822C23.8106 26.4263 23.8143 26.6637 23.6702 26.8124C23.5085 26.9794 23.3186 27.2707 23.2654 27.5822C23.2172 27.8644 23.2742 28.1844 23.6429 28.4958C24.2189 28.9823 24.3687 29.5531 24.275 30.0704C24.1873 30.5548 23.8952 30.9519 23.6575 31.175C23.5065 31.3167 23.2692 31.3092 23.1274 31.1581C22.9857 31.0071 22.9932 30.7698 23.1443 30.6281C23.3027 30.4794 23.486 30.2183 23.537 29.9368C23.582 29.6883 23.5337 29.3853 23.1589 29.0688C22.5768 28.5771 22.4356 27.9861 22.5261 27.456C22.6116 26.9552 22.8971 26.5326 23.1315 26.2906C23.2756 26.1418 23.513 26.1381 23.6618 26.2822Z" fill="white"/>
<path fill-rule="evenodd" clip-rule="evenodd" d="M28.7618 26.2822C28.9106 26.4263 28.9143 26.6637 28.7702 26.8124C28.6085 26.9794 28.4186 27.2707 28.3654 27.5822C28.3172 27.8644 28.3742 28.1844 28.7429 28.4958C29.3189 28.9823 29.4687 29.5531 29.375 30.0704C29.2873 30.5548 28.9952 30.9519 28.7575 31.175C28.6065 31.3167 28.3692 31.3092 28.2274 31.1581C28.0857 31.0071 28.0933 30.7698 28.2443 30.6281C28.4027 30.4794 28.586 30.2183 28.637 29.9368C28.682 29.6883 28.6337 29.3853 28.2589 29.0688C27.6768 28.5771 27.5356 27.9861 27.6261 27.456C27.7116 26.9552 27.9971 26.5326 28.2315 26.2906C28.3756 26.1418 28.613 26.1381 28.7618 26.2822Z" fill="white"/>
<defs>
<linearGradient id="paint0_linear_1252_3293" x1="0" y1="0.64917" x2="51" y2="51.6492" gradientUnits="userSpaceOnUse">
<stop stop-color="#E24C3A"/>
<stop offset="1" stop-color="#E24C3A" stop-opacity="0.5"/>
</linearGradient>
</defs>
</svg>
