<svg width="51" height="52" viewBox="0 0 51 52" fill="none" xmlns="http://www.w3.org/2000/svg">
<circle cx="25.5" cy="26.1492" r="25.5" fill="url(#paint0_linear_1252_3284)" fill-opacity="0.5"/>
<path fill-rule="evenodd" clip-rule="evenodd" d="M35.3519 12.4124H16.972C16.2953 12.4124 15.7467 12.958 15.7467 13.6311V38.0051C15.7467 38.6782 16.2953 39.2238 16.972 39.2238H35.3519C36.0286 39.2238 36.5772 38.6782 36.5772 38.0051V13.6311C36.5772 12.958 36.0286 12.4124 35.3519 12.4124ZM16.972 10.5844C15.2802 10.5844 13.9087 11.9484 13.9087 13.6311V38.0051C13.9087 39.6878 15.2802 41.0519 16.972 41.0519H35.3519C37.0437 41.0519 38.4152 39.6878 38.4152 38.0051V13.6311C38.4152 11.9484 37.0437 10.5844 35.3519 10.5844H16.972Z" fill="white"/>
<path fill-rule="evenodd" clip-rule="evenodd" d="M37.1897 18.5059H14.6743V16.6779H37.1897V18.5059Z" fill="white"/>
<path fill-rule="evenodd" clip-rule="evenodd" d="M22.9444 23.9901H18.5992V26.1791C18.5992 27.3461 19.5765 28.3118 20.7718 28.3118C21.9671 28.3118 22.9444 27.3461 22.9444 26.1791V23.9901ZM17.6802 23.076V26.1791C17.6802 27.8618 19.08 29.2258 20.7718 29.2258C22.4636 29.2258 23.8634 27.8618 23.8634 26.1791V23.076H17.6802Z" fill="white"/>
<path fill-rule="evenodd" clip-rule="evenodd" d="M20.2836 33.5953L20.2836 28.5784L21.2026 28.5784L21.2026 33.5953L20.2836 33.5953Z" fill="white"/>
<path fill-rule="evenodd" clip-rule="evenodd" d="M23.2715 33.327C23.2715 33.5794 23.0658 33.7841 22.812 33.7841L18.6868 33.7841C18.433 33.7841 18.2273 33.5794 18.2273 33.327C18.2273 33.0746 18.433 32.87 18.6868 32.87L22.812 32.87C23.0658 32.87 23.2715 33.0746 23.2715 33.327Z" fill="white"/>
<path fill-rule="evenodd" clip-rule="evenodd" d="M29.742 33.1303C32.2797 33.1303 34.337 31.0842 34.337 28.5602C34.337 26.0362 32.2797 23.9901 29.742 23.9901C27.2043 23.9901 25.147 26.0362 25.147 28.5602C25.147 31.0842 27.2043 33.1303 29.742 33.1303ZM29.742 34.0444C32.7873 34.0444 35.2559 31.589 35.2559 28.5602C35.2559 25.5314 32.7873 23.076 29.742 23.076C26.6967 23.076 24.228 25.5314 24.228 28.5602C24.228 31.589 26.6967 34.0444 29.742 34.0444Z" fill="white"/>
<path fill-rule="evenodd" clip-rule="evenodd" d="M29.7422 30.9024C31.0428 30.9024 32.0971 29.8537 32.0971 28.5602C32.0971 27.2666 31.0428 26.218 29.7422 26.218C28.4416 26.218 27.3873 27.2666 27.3873 28.5602C27.3873 29.8537 28.4416 30.9024 29.7422 30.9024ZM29.7422 31.8164C31.5503 31.8164 33.0161 30.3585 33.0161 28.5602C33.0161 26.7618 31.5503 25.304 29.7422 25.304C27.934 25.304 26.4683 26.7618 26.4683 28.5602C26.4683 30.3585 27.934 31.8164 29.7422 31.8164Z" fill="white"/>
<path d="M32.2887 14.5451C32.2887 15.0499 31.8772 15.4592 31.3697 15.4592C30.8621 15.4592 30.4507 15.0499 30.4507 14.5451C30.4507 14.0403 30.8621 13.6311 31.3697 13.6311C31.8772 13.6311 32.2887 14.0403 32.2887 14.5451Z" fill="white"/>
<path d="M35.0455 14.5451C35.0455 15.0499 34.6341 15.4592 34.1265 15.4592C33.619 15.4592 33.2075 15.0499 33.2075 14.5451C33.2075 14.0403 33.619 13.6311 34.1265 13.6311C34.6341 13.6311 35.0455 14.0403 35.0455 14.5451Z" fill="white"/>
<defs>
<linearGradient id="paint0_linear_1252_3284" x1="0" y1="0.64917" x2="51" y2="51.6492" gradientUnits="userSpaceOnUse">
<stop stop-color="#E24C3A"/>
<stop offset="1" stop-color="#E24C3A" stop-opacity="0.5"/>
</linearGradient>
</defs>
</svg>
