<svg width="210" height="210" viewBox="0 0 210 210" fill="none" xmlns="http://www.w3.org/2000/svg">
<path fill-rule="evenodd" clip-rule="evenodd" d="M74.5652 118.133C74.5652 120.563 76.5507 122.533 79 122.533L79 126.933C74.1015 126.933 70.1304 122.993 70.1304 118.133C70.1304 113.273 74.1015 109.333 79 109.333L79 113.733C76.5507 113.733 74.5652 115.703 74.5652 118.133Z" fill="white"/>
<path fill-rule="evenodd" clip-rule="evenodd" d="M96.1696 82.9334H86.2213C84.1297 82.9334 82.6995 85.0294 83.4763 86.9562L84.9545 90.6229C85.4035 91.7365 86.4907 92.4668 87.6996 92.4668H94.6913C95.9002 92.4668 96.9874 91.7365 97.4364 90.6229L98.9146 86.9562C99.6914 85.0294 98.2612 82.9334 96.1696 82.9334ZM86.2213 78.5334C80.9923 78.5334 77.4167 83.7733 79.3587 88.5903L80.837 92.257C81.9594 95.0411 84.6773 96.8668 87.6996 96.8668H94.6913C97.7136 96.8668 100.431 95.0411 101.554 92.257L103.032 88.5903C104.974 83.7733 101.399 78.5334 96.1696 78.5334H86.2213Z" fill="white"/>
<path fill-rule="evenodd" clip-rule="evenodd" d="M113 87.3333L113 129.133H69.3913C65.3092 129.133 62 132.417 62 136.467V149.667C62 153.717 65.3092 157 69.3913 157H139.609C143.116 157 146.053 154.576 146.81 151.325H147L147 54.3333C147 50.2832 143.691 47 139.609 47H69.3913C65.3092 47 62 50.2832 62 54.3333V80C62 84.0501 65.3092 87.3333 69.3913 87.3333H113ZM138.13 148.2V55.8H70.8696V78.5333H121.87L121.87 137.933H70.8696V148.2H138.13Z" fill="white"/>
<path fill-rule="evenodd" clip-rule="evenodd" d="M80.4782 109.333V120.333C80.4782 126.003 85.1111 130.6 90.8261 130.6H92.3043C98.0193 130.6 102.652 126.003 102.652 120.333V109.333H80.4782ZM79.7391 104.933C77.6981 104.933 76.0435 106.575 76.0435 108.6V120.333C76.0435 128.434 82.6619 135 90.8261 135H92.3043C100.469 135 107.087 128.434 107.087 120.333V108.6C107.087 106.575 105.432 104.933 103.391 104.933H79.7391Z" fill="white"/>
</svg>
