<svg width="210" height="210" viewBox="0 0 210 210" fill="none" xmlns="http://www.w3.org/2000/svg">
<path fill-rule="evenodd" clip-rule="evenodd" d="M105 149.609C129.637 149.609 149.609 129.637 149.609 105C149.609 80.3633 129.637 60.3913 105 60.3913C80.3633 60.3913 60.3913 80.3633 60.3913 105C60.3913 129.637 80.3633 149.609 105 149.609ZM105 159C134.823 159 159 134.823 159 105C159 75.1766 134.823 51 105 51C75.1766 51 51 75.1766 51 105C51 134.823 75.1766 159 105 159Z" fill="white"/>
<path d="M119.892 91.8521C119.892 81.913 112.222 76.2 103.379 76.2C94.3004 76.2 86.9438 82.1478 86.9438 91.8521H97.1178C97.1178 88.2521 99.2308 85.3565 103.379 85.3565C107.292 85.3565 109.718 88.0956 109.718 91.7739C109.718 93.4956 108.7 95.3739 107.448 97.0173L101.657 104.452C99.6221 107.113 98.683 109.226 98.683 112.591V114.939H108.857V113.296C108.857 111.965 109.483 110.322 110.266 109.304L116.057 101.635C118.248 98.7391 119.892 95.7652 119.892 91.8521ZM109.17 132.391V121.983H98.3699V132.391H109.17Z" fill="white"/>
</svg>
