<svg width="210" height="210" viewBox="0 0 210 210" fill="none" xmlns="http://www.w3.org/2000/svg">
<path fill-rule="evenodd" clip-rule="evenodd" d="M105.842 134.648C106.78 135.553 106.804 137.043 105.895 137.977C104.875 139.025 103.678 140.854 103.342 142.809C103.038 144.581 103.398 146.589 105.723 148.544C109.356 151.598 110.3 155.181 109.709 158.429C109.156 161.47 107.314 163.962 105.815 165.363C104.863 166.252 103.366 166.205 102.472 165.257C101.578 164.309 101.626 162.819 102.578 161.929C103.577 160.996 104.734 159.357 105.055 157.59C105.339 156.03 105.034 154.128 102.671 152.141C98.9989 149.054 98.1088 145.345 98.6795 142.017C99.2187 138.873 101.019 136.22 102.498 134.701C103.407 133.767 104.904 133.744 105.842 134.648Z" fill="white"/>
<path fill-rule="evenodd" clip-rule="evenodd" d="M79.6897 134.648C80.6279 135.553 80.6517 137.043 79.7429 137.977C78.7229 139.025 77.5251 140.854 77.1898 142.809C76.886 144.581 77.2451 146.589 79.5702 148.544C83.2031 151.598 84.1478 155.181 83.5571 158.429C83.004 161.47 81.1619 163.962 79.6626 165.363C78.7102 166.252 77.2135 166.205 76.3196 165.257C75.4258 164.309 75.4733 162.819 76.4258 161.929C77.4251 160.996 78.5813 159.357 78.9027 157.59C79.1865 156.03 78.8819 154.128 76.5181 152.141C72.8466 149.054 71.9564 145.345 72.5271 142.017C73.0663 138.873 74.8669 136.22 76.3455 134.701C77.2543 133.767 78.7516 133.744 79.6897 134.648Z" fill="white"/>
<path fill-rule="evenodd" clip-rule="evenodd" d="M131.994 134.648C132.933 135.553 132.956 137.043 132.048 137.977C131.028 139.025 129.83 140.854 129.495 142.809C129.191 144.581 129.55 146.589 131.875 148.544C135.508 151.598 136.453 155.181 135.862 158.429C135.309 161.47 133.467 163.962 131.967 165.363C131.015 166.252 129.518 166.205 128.624 165.257C127.731 164.309 127.778 162.819 128.731 161.929C129.73 160.996 130.886 159.357 131.207 157.59C131.491 156.03 131.187 154.128 128.823 152.141C125.151 149.054 124.261 145.345 124.832 142.017C125.371 138.873 127.172 136.22 128.65 134.701C129.559 133.767 131.056 133.744 131.994 134.648Z" fill="white"/>
<path fill-rule="evenodd" clip-rule="evenodd" d="M63.275 103.178V120.091H145.725V103.178H63.275ZM62.0625 95.929C58.7143 95.929 56 98.6334 56 101.97V121.3C56 124.636 58.7143 127.34 62.0625 127.34H146.938C150.286 127.34 153 124.636 153 121.3V101.97C153 98.6334 150.286 95.929 146.938 95.929H62.0625Z" fill="white"/>
<path fill-rule="evenodd" clip-rule="evenodd" d="M88.2746 77.8071L75.8456 95.9289H132.548L120.119 77.8071H88.2746ZM123.959 70.5583H84.4347L62.0625 103.178H146.331L123.959 70.5583Z" fill="white"/>
<path d="M79.6437 111.635C79.6437 113.636 78.0151 115.259 76.0062 115.259C73.9972 115.259 72.3687 113.636 72.3687 111.635C72.3687 109.633 73.9972 108.01 76.0062 108.01C78.0151 108.01 79.6437 109.633 79.6437 111.635Z" fill="white"/>
<path d="M90.5562 111.635C90.5562 113.636 88.9277 115.259 86.9187 115.259C84.9098 115.259 83.2812 113.636 83.2812 111.635C83.2812 109.633 84.9098 108.01 86.9187 108.01C88.9277 108.01 90.5562 109.633 90.5562 111.635Z" fill="white"/>
<path fill-rule="evenodd" clip-rule="evenodd" d="M89.3438 54.2487V70.5584H119.05V54.2487H89.3438ZM88.1313 47C84.7831 47 82.0688 49.7045 82.0688 53.0406V77.8071H126.325V53.0406C126.325 49.7045 123.611 47 120.263 47H88.1313Z" fill="white"/>
</svg>
