<svg width="77" height="77" viewBox="0 0 77 77" fill="none" xmlns="http://www.w3.org/2000/svg">
<path fill-rule="evenodd" clip-rule="evenodd" d="M52.5 18.76H25.5C24.5059 18.76 23.7 19.5838 23.7 20.6V57.4C23.7 58.4162 24.5059 59.24 25.5 59.24H52.5C53.4941 59.24 54.3 58.4162 54.3 57.4V20.6C54.3 19.5838 53.4941 18.76 52.5 18.76ZM25.5 16C23.0147 16 21 18.0595 21 20.6V57.4C21 59.9405 23.0147 62 25.5 62H52.5C54.9853 62 57 59.9405 57 57.4V20.6C57 18.0595 54.9853 16 52.5 16H25.5Z" fill="white"/>
<path fill-rule="evenodd" clip-rule="evenodd" d="M38.775 51.88C43.4971 51.88 47.325 47.967 47.325 43.14C47.325 38.313 43.4971 34.4 38.775 34.4C34.053 34.4 30.225 38.313 30.225 43.14C30.225 47.967 34.053 51.88 38.775 51.88ZM38.775 54.64C44.9882 54.64 50.025 49.4913 50.025 43.14C50.025 36.7887 44.9882 31.64 38.775 31.64C32.5618 31.64 27.525 36.7887 27.525 43.14C27.525 49.4913 32.5618 54.64 38.775 54.64Z" fill="white"/>
<path fill-rule="evenodd" clip-rule="evenodd" d="M55.2 27.96H22.125V25.2H55.2V27.96Z" fill="white"/>
<path fill-rule="evenodd" clip-rule="evenodd" d="M37.3546 37.0623C37.4603 37.4278 37.2563 37.8116 36.8988 37.9197C35.0178 38.4885 33.4931 40.1696 33.1412 42.3725C33.0812 42.7486 32.7342 43.0037 32.3663 42.9423C31.9984 42.8808 31.7488 42.5262 31.8089 42.1501C32.244 39.4259 34.1364 37.3159 36.5158 36.5964C36.8733 36.4883 37.2488 36.6969 37.3546 37.0623Z" fill="white"/>
<path fill-rule="evenodd" clip-rule="evenodd" d="M43.887 47.9671C42.1064 48.1114 40.263 47.7362 38.2168 47.0121C36.8854 46.541 35.0653 46.4671 33.4467 46.6437C32.6448 46.7312 31.9193 46.8774 31.3569 47.0525C31.0755 47.1401 30.8467 47.2314 30.6744 47.3197C30.4929 47.4127 30.4151 47.4817 30.3943 47.5059L29.3809 46.5942C29.5663 46.3788 29.819 46.2143 30.0693 46.086C30.3289 45.953 30.6333 45.8352 30.9636 45.7324C31.6246 45.5265 32.4366 45.3661 33.3034 45.2715C35.0224 45.0839 37.0648 45.1442 38.6584 45.708C40.614 46.4 42.2581 46.7148 43.7802 46.5914C45.2892 46.469 46.7319 45.9116 48.2792 44.7662L49.071 45.8839C47.3558 47.1536 45.6807 47.8216 43.887 47.9671Z" fill="white"/>
<path fill-rule="evenodd" clip-rule="evenodd" d="M30 25.2L30 17.61L32.7 17.61L32.7 25.2L30 25.2Z" fill="white"/>
</svg>
