<svg width="175" height="200" viewBox="0 0 175 200" fill="none" xmlns="http://www.w3.org/2000/svg">
<path fill-rule="evenodd" clip-rule="evenodd" d="M160.145 63.7681H73.1884C69.9868 63.7681 67.3913 66.3636 67.3913 69.5652V185.507C67.3913 188.709 69.9868 191.304 73.1884 191.304H160.145C163.347 191.304 165.942 188.709 165.942 185.507V69.5652C165.942 66.3636 163.347 63.7681 160.145 63.7681ZM73.1884 55.0725C65.1843 55.0725 58.6957 61.5611 58.6957 69.5652V185.507C58.6957 193.511 65.1843 200 73.1884 200H160.145C168.149 200 174.638 193.511 174.638 185.507V69.5652C174.638 61.5611 168.149 55.0725 160.145 55.0725H73.1884Z" fill="white"/>
<path fill-rule="evenodd" clip-rule="evenodd" d="M115.942 168.116C131.15 168.116 143.478 155.788 143.478 140.58C143.478 125.372 131.15 113.043 115.942 113.043C100.734 113.043 88.4058 125.372 88.4058 140.58C88.4058 155.788 100.734 168.116 115.942 168.116ZM115.942 176.812C135.952 176.812 152.174 160.59 152.174 140.58C152.174 120.569 135.952 104.348 115.942 104.348C95.9317 104.348 79.7101 120.569 79.7101 140.58C79.7101 160.59 95.9317 176.812 115.942 176.812Z" fill="white"/>
<path fill-rule="evenodd" clip-rule="evenodd" d="M168.841 92.7536H62.3188V84.058H168.841V92.7536Z" fill="white"/>
<path fill-rule="evenodd" clip-rule="evenodd" d="M111.367 121.432C111.708 122.583 111.051 123.792 109.899 124.133C103.841 125.925 98.931 131.221 97.7977 138.162C97.6042 139.347 96.4868 140.15 95.3019 139.957C94.117 139.763 93.3132 138.646 93.5067 137.461C94.9082 128.878 101.003 122.231 108.666 119.964C109.817 119.623 111.027 120.28 111.367 121.432Z" fill="white"/>
<path fill-rule="evenodd" clip-rule="evenodd" d="M132.405 155.788C126.671 156.242 120.734 155.06 114.144 152.779C109.856 151.295 103.994 151.062 98.7815 151.618C96.1987 151.894 93.8622 152.354 92.051 152.906C91.1446 153.182 90.4076 153.47 89.8528 153.748C89.2684 154.041 89.0179 154.259 88.9508 154.335L85.6869 151.462C86.2841 150.784 87.0978 150.265 87.9042 149.861C88.7402 149.442 89.7205 149.071 90.7841 148.747C92.9132 148.098 95.5283 147.593 98.32 147.295C103.856 146.704 110.434 146.894 115.566 148.67C121.865 150.851 127.16 151.842 132.062 151.453C136.921 151.068 141.568 149.312 146.551 145.703L149.101 149.225C143.577 153.225 138.182 155.329 132.405 155.788Z" fill="white"/>
<path fill-rule="evenodd" clip-rule="evenodd" d="M87.6812 84.058V60.1449H96.3768V84.058H87.6812Z" fill="white"/>
<path fill-rule="evenodd" clip-rule="evenodd" d="M14.4928 8.69565H101.449C104.651 8.69565 107.246 11.2911 107.246 14.4928V62.3188H115.942V14.4928C115.942 6.48863 109.453 0 101.449 0H14.4928C6.48863 0 0 6.48863 0 14.4928V180.435C0 188.439 6.48863 194.928 14.4928 194.928H20.3036C20.2945 195.047 20.2899 195.168 20.2899 195.29C20.2899 197.891 22.3987 200 25 200H32.2464C34.8477 200 36.9565 197.891 36.9565 195.29C36.9565 195.168 36.9519 195.047 36.9428 194.928H78.2746C78.2655 195.047 78.2609 195.168 78.2609 195.29C78.2609 197.891 80.3697 200 82.971 200H90.2174C92.8187 200 94.9275 197.891 94.9275 195.29C94.9275 195.168 94.9229 195.047 94.9138 194.928H101.449C103.717 194.928 105.863 194.407 107.774 193.478H64.4928V186.232H14.4928C11.2911 186.232 8.69565 183.636 8.69565 180.435V78.2609H64.4928V69.5652H8.69565V14.4928C8.69565 11.2911 11.2911 8.69565 14.4928 8.69565ZM30.4348 107.971C30.4348 105.57 28.4882 103.623 26.087 103.623C23.6857 103.623 21.7391 105.57 21.7391 107.971L21.7391 157.246C21.7391 159.648 23.6857 161.594 26.087 161.594C28.4882 161.594 30.4348 159.648 30.4348 157.246L30.4348 107.971ZM26.087 21.0145C28.4882 21.0145 30.4348 22.9611 30.4348 25.3623L30.4348 50.7246C30.4348 53.1259 28.4882 55.0725 26.087 55.0725C23.6857 55.0725 21.7391 53.1259 21.7391 50.7246L21.7391 25.3623C21.7391 22.9611 23.6857 21.0145 26.087 21.0145Z" fill="white"/>
</svg>
