<svg width="130" height="200" viewBox="0 0 130 200" fill="none" xmlns="http://www.w3.org/2000/svg">
<path fill-rule="evenodd" clip-rule="evenodd" d="M43.318 10C43.318 4.47715 47.7951 0 53.318 0H75.2534C80.7763 0 85.2535 4.47715 85.2535 10V16.129H109.032C120.078 16.129 129.032 25.0833 129.032 36.129V180C129.032 191.046 120.078 200 109.032 200H20C8.9543 200 0 191.046 0 180V36.129C0 25.0833 8.95431 16.129 20 16.129H43.318V10ZM24.3548 37.0968C21.5934 37.0968 19.3548 39.3354 19.3548 42.0968V88.7097H109.677V42.0968C109.677 39.3354 107.439 37.0968 104.677 37.0968H24.3548Z" fill="white"/>
</svg>
