<svg width="160" height="276" viewBox="0 0 160 276" fill="none" xmlns="http://www.w3.org/2000/svg">
<path fill-rule="evenodd" clip-rule="evenodd" d="M140 12H20C15.5817 12 12 15.5817 12 20V249C12 253.418 15.5817 257 20 257H140C144.418 257 148 253.418 148 249V20C148 15.5817 144.418 12 140 12ZM20 0C8.95431 0 0 8.95431 0 20V249C0 260.046 8.95431 269 20 269H140C151.046 269 160 260.046 160 249V20C160 8.9543 151.046 0 140 0H20Z" fill="white"/>
<path fill-rule="evenodd" clip-rule="evenodd" d="M36 143C39.3137 143 42 145.686 42 149L42 217C42 220.314 39.3137 223 36 223C32.6863 223 30 220.314 30 217L30 149C30 145.686 32.6863 143 36 143Z" fill="white"/>
<path fill-rule="evenodd" clip-rule="evenodd" d="M36 29C39.3137 29 42 31.6863 42 35L42 70C42 73.3137 39.3137 76 36 76C32.6863 76 30 73.3137 30 70L30 35C30 31.6863 32.6863 29 36 29Z" fill="white"/>
<path d="M28 269.5C28 265.91 30.9101 263 34.5 263H44.5C48.0899 263 51 265.91 51 269.5C51 273.09 48.0899 276 44.5 276H34.5C30.9101 276 28 273.09 28 269.5Z" fill="white"/>
<path d="M108 269.5C108 265.91 110.91 263 114.5 263H124.5C128.09 263 131 265.91 131 269.5C131 273.09 128.09 276 124.5 276H114.5C110.91 276 108 273.09 108 269.5Z" fill="white"/>
<path fill-rule="evenodd" clip-rule="evenodd" d="M154 108H6V96H154V108Z" fill="white"/>
</svg>
