<svg width="160" height="200" viewBox="0 0 160 200" fill="none" xmlns="http://www.w3.org/2000/svg">
<path fill-rule="evenodd" clip-rule="evenodd" d="M140 12H20C15.5817 12 12 15.5817 12 20V180C12 184.418 15.5817 188 20 188H140C144.418 188 148 184.418 148 180V20C148 15.5817 144.418 12 140 12ZM20 0C8.95431 0 0 8.95431 0 20V180C0 191.046 8.95431 200 20 200H140C151.046 200 160 191.046 160 180V20C160 8.95431 151.046 0 140 0H20Z" fill="white"/>
<path fill-rule="evenodd" clip-rule="evenodd" d="M152 52H5V40H152V52Z" fill="white"/>
<path fill-rule="evenodd" clip-rule="evenodd" d="M58.9944 88H30.625V102.369C30.625 110.03 37.0058 116.369 44.8097 116.369C52.6136 116.369 58.9944 110.03 58.9944 102.369V88ZM24.625 82V102.369C24.625 113.415 33.764 122.369 44.8097 122.369C55.8554 122.369 64.9944 113.415 64.9944 102.369V82H24.625Z" fill="white"/>
<path fill-rule="evenodd" clip-rule="evenodd" d="M41.6226 151.053L41.6226 118.12L47.6226 118.12L47.6226 151.053L41.6226 151.053Z" fill="white"/>
<path fill-rule="evenodd" clip-rule="evenodd" d="M61.1299 149.291C61.1299 150.947 59.7867 152.291 58.1299 152.291L31.1969 152.291C29.5401 152.291 28.1969 150.947 28.1969 149.291C28.1969 147.634 29.5401 146.291 31.1969 146.291L58.1299 146.291C59.7867 146.291 61.1299 147.634 61.1299 149.291Z" fill="white"/>
<path fill-rule="evenodd" clip-rule="evenodd" d="M103.375 148C119.944 148 133.375 134.569 133.375 118C133.375 101.431 119.944 88 103.375 88C86.8065 88 73.375 101.431 73.375 118C73.375 134.569 86.8065 148 103.375 148ZM103.375 154C123.257 154 139.375 137.882 139.375 118C139.375 98.1177 123.257 82 103.375 82C83.4927 82 67.375 98.1177 67.375 118C67.375 137.882 83.4927 154 103.375 154Z" fill="white"/>
<path fill-rule="evenodd" clip-rule="evenodd" d="M103.375 133.375C111.866 133.375 118.75 126.491 118.75 118C118.75 109.509 111.866 102.625 103.375 102.625C94.8836 102.625 88 109.509 88 118C88 126.491 94.8836 133.375 103.375 133.375ZM103.375 139.375C115.18 139.375 124.75 129.805 124.75 118C124.75 106.195 115.18 96.625 103.375 96.625C91.5699 96.625 82 106.195 82 118C82 129.805 91.5699 139.375 103.375 139.375Z" fill="white"/>
<path d="M120 26C120 29.3137 117.314 32 114 32C110.686 32 108 29.3137 108 26C108 22.6863 110.686 20 114 20C117.314 20 120 22.6863 120 26Z" fill="white"/>
<path d="M138 26C138 29.3137 135.314 32 132 32C128.686 32 126 29.3137 126 26C126 22.6863 128.686 20 132 20C135.314 20 138 22.6863 138 26Z" fill="white"/>
</svg>
