<svg width="160" height="160" viewBox="0 0 160 160" fill="none" xmlns="http://www.w3.org/2000/svg">
<path d="M102 135C102 138.314 99.3137 141 96 141C92.6863 141 90 138.314 90 135C90 131.686 92.6863 129 96 129C99.3137 129 102 131.686 102 135Z" fill="white"/>
<path fill-rule="evenodd" clip-rule="evenodd" d="M140 12H20C15.5817 12 12 15.5817 12 20V140C12 144.418 15.5817 148 20 148H140C144.418 148 148 144.418 148 140V20C148 15.5817 144.418 12 140 12ZM20 0C8.95431 0 0 8.95431 0 20V140C0 151.046 8.95431 160 20 160H140C151.046 160 160 151.046 160 140V20C160 8.95431 151.046 0 140 0H20Z" fill="white"/>
<path fill-rule="evenodd" clip-rule="evenodd" d="M109.5 25C98.7304 25 90 33.7304 90 44.5C90 55.2696 98.7304 64 109.5 64C120.27 64 129 55.2696 129 44.5C129 42.8431 130.343 41.5 132 41.5C133.657 41.5 135 42.8431 135 44.5C135 58.5833 123.583 70 109.5 70C95.4167 70 84 58.5833 84 44.5C84 30.4167 95.4167 19 109.5 19C111.157 19 112.5 20.3431 112.5 22C112.5 23.6569 111.157 25 109.5 25Z" fill="white"/>
<path fill-rule="evenodd" clip-rule="evenodd" d="M42.5 27C42.5 25.3431 43.8431 24 45.5 24C56.8218 24 66 33.1782 66 44.5C66 55.8218 56.8218 65 45.5 65C34.1782 65 25 55.8218 25 44.5C25 42.8431 26.3431 41.5 28 41.5C29.6569 41.5 31 42.8431 31 44.5C31 52.5081 37.4919 59 45.5 59C53.5081 59 60 52.5081 60 44.5C60 36.4919 53.5081 30 45.5 30C43.8431 30 42.5 28.6569 42.5 27Z" fill="white"/>
<path fill-rule="evenodd" clip-rule="evenodd" d="M47.5 82C36.7304 82 28 90.7304 28 101.5C28 103.157 26.6569 104.5 25 104.5C23.3431 104.5 22 103.157 22 101.5C22 87.4167 33.4167 76 47.5 76C61.5833 76 73 87.4167 73 101.5C73 115.583 61.5833 127 47.5 127C45.8431 127 44.5 125.657 44.5 124C44.5 122.343 45.8431 121 47.5 121C58.2696 121 67 112.27 67 101.5C67 90.7304 58.2696 82 47.5 82Z" fill="white"/>
<path fill-rule="evenodd" clip-rule="evenodd" d="M111.5 87C103.492 87 97 93.4919 97 101.5C97 109.508 103.492 116 111.5 116C113.157 116 114.5 117.343 114.5 119C114.5 120.657 113.157 122 111.5 122C100.178 122 91 112.822 91 101.5C91 90.1782 100.178 81 111.5 81C122.822 81 132 90.1782 132 101.5C132 103.157 130.657 104.5 129 104.5C127.343 104.5 126 103.157 126 101.5C126 93.4919 119.508 87 111.5 87Z" fill="white"/>
<path d="M102 135C102 138.314 99.3137 141 96 141C92.6863 141 90 138.314 90 135C90 131.686 92.6863 129 96 129C99.3137 129 102 131.686 102 135Z" fill="white"/>
<path d="M120 135C120 138.314 117.314 141 114 141C110.686 141 108 138.314 108 135C108 131.686 110.686 129 114 129C117.314 129 120 131.686 120 135Z" fill="white"/>
<path d="M138 135C138 138.314 135.314 141 132 141C128.686 141 126 138.314 126 135C126 131.686 128.686 129 132 129C135.314 129 138 131.686 138 135Z" fill="white"/>
<path d="M84 135C84 138.314 81.3137 141 78 141C74.6863 141 72 138.314 72 135C72 131.686 74.6863 129 78 129C81.3137 129 84 131.686 84 135Z" fill="white"/>
</svg>
