<svg width="228" height="228" viewBox="0 0 228 228" fill="none" xmlns="http://www.w3.org/2000/svg">
<path d="M136.133 72.3473C137.578 68.4882 132.656 65.5253 130.104 68.7182L89.154 119.956C87.4594 122.076 88.5636 125.293 91.175 125.843L116.926 131.271L103.579 167.397C102.133 171.31 107.184 174.236 109.676 170.93L148.597 119.306C150.205 117.174 149.083 114.043 146.517 113.5L122.617 108.439L136.133 72.3473Z" fill="white"/>
<path fill-rule="evenodd" clip-rule="evenodd" d="M177.92 61.2679C210.056 93.4928 210.028 145.667 177.837 177.858C145.619 210.076 93.383 210.076 61.1647 177.858C32.4141 149.107 29.3197 104.416 51.8815 72.2337L41.7181 72.8316C38.4101 73.0262 35.5707 70.5022 35.3761 67.1943C35.1815 63.8863 37.7054 61.0469 41.0134 60.8523L65.055 59.4381C68.0832 59.2599 70.768 61.3699 71.3106 64.3544L75.5532 87.6889C76.146 90.9492 73.9836 94.0727 70.7233 94.6654C67.4631 95.2582 64.3396 93.0958 63.7468 89.8355L61.7806 79.0214C42.4312 106.529 45.0543 144.777 69.65 169.372C97.182 196.904 141.82 196.904 169.352 169.372C196.884 141.84 196.884 97.2023 169.352 69.6703C169.296 69.6138 169.24 69.5561 169.186 69.4974C161.082 60.7182 135 43.6271 99.009 50.7504C95.7583 51.3938 92.6016 49.2801 91.9582 46.0295C91.3149 42.7788 93.4285 39.6221 96.6792 38.9787C137.379 30.9235 167.447 49.9932 177.92 61.2679Z" fill="white"/>
</svg>
