<svg width="160" height="160" viewBox="0 0 160 160" fill="none" xmlns="http://www.w3.org/2000/svg">
<path fill-rule="evenodd" clip-rule="evenodd" d="M140 12H20C15.5817 12 12 15.5817 12 20V140C12 144.418 15.5817 148 20 148H140C144.418 148 148 144.418 148 140V20C148 15.5817 144.418 12 140 12ZM20 0C8.95431 0 0 8.95431 0 20V140C0 151.046 8.95431 160 20 160H140C151.046 160 160 151.046 160 140V20C160 8.95431 151.046 0 140 0H20Z" fill="white"/>
<path fill-rule="evenodd" clip-rule="evenodd" d="M119 76H41C39.3431 76 38 77.3431 38 79V121C38 122.657 39.3431 124 41 124H119C120.657 124 122 122.657 122 121V79C122 77.3431 120.657 76 119 76ZM41 64C32.7157 64 26 70.7157 26 79V121C26 129.284 32.7157 136 41 136H119C127.284 136 134 129.284 134 121V79C134 70.7157 127.284 64 119 64H41Z" fill="white"/>
<path fill-rule="evenodd" clip-rule="evenodd" d="M153 52H6V40H153V52Z" fill="white"/>
<path fill-rule="evenodd" clip-rule="evenodd" d="M58.6213 81.3787C59.7929 82.5503 59.7929 84.4497 58.6213 85.6213L48.1213 96.1213C46.9497 97.2929 45.0503 97.2929 43.8787 96.1213C42.7071 94.9497 42.7071 93.0503 43.8787 91.8787L54.3787 81.3787C55.5503 80.2071 57.4497 80.2071 58.6213 81.3787ZM74.1213 81.3787C75.2929 82.5503 75.2929 84.4497 74.1213 85.6213L62.1213 97.6213C60.9497 98.7929 59.0503 98.7929 57.8787 97.6213C56.7071 96.4497 56.7071 94.5503 57.8787 93.3787L69.8787 81.3787C71.0503 80.2071 72.9497 80.2071 74.1213 81.3787ZM54.6213 100.879C55.7929 102.05 55.7929 103.95 54.6213 105.121L49.1213 110.621C47.9497 111.793 46.0503 111.793 44.8787 110.621C43.7071 109.45 43.7071 107.55 44.8787 106.379L50.3787 100.879C51.5503 99.7071 53.4497 99.7071 54.6213 100.879Z" fill="white"/>
</svg>
