<svg width="116" height="158" viewBox="0 0 116 158" fill="none" xmlns="http://www.w3.org/2000/svg">
<path fill-rule="evenodd" clip-rule="evenodd" d="M61.3143 46.8H54.6857C32.0808 46.8 13.5799 64.3711 12.096 86.6001H103.904C102.42 64.3711 83.9192 46.8 61.3143 46.8ZM54.6857 34.8C24.4836 34.8 0 59.2837 0 89.4858C0 94.5194 4.0806 98.6001 9.11429 98.6001H106.886C111.919 98.6001 116 94.5194 116 89.4858C116 59.2837 91.5164 34.8 61.3143 34.8H54.6857Z" fill="white"/>
<path fill-rule="evenodd" clip-rule="evenodd" d="M65.3333 34.4V19.8167C65.3333 15.4996 61.8336 12 57.5166 12C53.1996 12 49.7 15.4996 49.7 19.8167V34.4H65.3333ZM57.5166 0C46.5722 0 37.7 8.87222 37.7 19.8167V46.4H77.3333V19.8167C77.3333 8.87222 68.4611 0 57.5166 0Z" fill="white"/>
<path fill-rule="evenodd" clip-rule="evenodd" d="M28 113C29.6569 113 31 114.343 31 116V135.333C31 136.99 29.6569 138.333 28 138.333C26.3431 138.333 25 136.99 25 135.333V116C25 114.343 26.3431 113 28 113Z" fill="white"/>
<path fill-rule="evenodd" clip-rule="evenodd" d="M58.8333 132.333C60.4901 132.333 61.8333 133.677 61.8333 135.333V154.667C61.8333 156.324 60.4901 157.667 58.8333 157.667C57.1764 157.667 55.8333 156.324 55.8333 154.667V135.333C55.8333 133.677 57.1764 132.333 58.8333 132.333Z" fill="white"/>
<path fill-rule="evenodd" clip-rule="evenodd" d="M88 113C89.6569 113 91 114.343 91 116V135.333C91 136.99 89.6569 138.333 88 138.333C86.3431 138.333 85 136.99 85 135.333V116C85 114.343 86.3431 113 88 113Z" fill="white"/>
</svg>
