<svg width="200" height="200" viewBox="0 0 200 200" fill="none" xmlns="http://www.w3.org/2000/svg">
<path fill-rule="evenodd" clip-rule="evenodd" d="M100 0C102.761 0 105 2.23858 105 5V34.3085C105 37.0699 102.761 39.3085 100 39.3085C97.2386 39.3085 95 37.0699 95 34.3085V5C95 2.23858 97.2386 0 100 0Z" fill="white"/>
<path fill-rule="evenodd" clip-rule="evenodd" d="M170.711 170.711C168.758 172.663 165.592 172.663 163.64 170.711L143.16 150.23C141.207 148.278 141.207 145.112 143.16 143.159C145.112 141.207 148.278 141.207 150.231 143.159L170.711 163.64C172.663 165.592 172.663 168.758 170.711 170.711Z" fill="white"/>
<path fill-rule="evenodd" clip-rule="evenodd" d="M170.711 29.2892C172.663 31.2418 172.663 34.4076 170.711 36.3603L150.231 56.8405C148.278 58.7931 145.112 58.7931 143.16 56.8405C141.207 54.8879 141.207 51.722 143.16 49.7694L163.64 29.2892C165.592 27.3366 168.758 27.3366 170.711 29.2892Z" fill="white"/>
<path fill-rule="evenodd" clip-rule="evenodd" d="M200 100C200 102.761 197.761 105 195 105L165.691 105C162.93 105 160.691 102.761 160.691 100C160.691 97.2386 162.93 95 165.691 95L195 95C197.761 95 200 97.2386 200 100Z" fill="white"/>
<path fill-rule="evenodd" clip-rule="evenodd" d="M100 160.691C102.761 160.691 105 162.93 105 165.691V195C105 197.761 102.761 200 100 200C97.2386 200 95 197.761 95 195V165.691C95 162.93 97.2386 160.691 100 160.691Z" fill="white"/>
<path fill-rule="evenodd" clip-rule="evenodd" d="M56.8404 56.8402C54.8878 58.7928 51.722 58.7928 49.7694 56.8402L29.2891 36.36C27.3365 34.4074 27.3365 31.2415 29.2891 29.2889C31.2418 27.3363 34.4076 27.3363 36.3602 29.2889L56.8404 49.7692C58.7931 51.7218 58.7931 54.8876 56.8404 56.8402Z" fill="white"/>
<path fill-rule="evenodd" clip-rule="evenodd" d="M56.8402 143.16C58.7928 145.112 58.7928 148.278 56.8402 150.231L36.36 170.711C34.4074 172.663 31.2415 172.663 29.2889 170.711C27.3363 168.758 27.3363 165.592 29.2889 163.64L49.7692 143.16C51.7218 141.207 54.8876 141.207 56.8402 143.16Z" fill="white"/>
<path fill-rule="evenodd" clip-rule="evenodd" d="M39.3086 100C39.3086 102.761 37.07 105 34.3086 105L5.00008 105C2.23866 105 7.97694e-05 102.761 7.98901e-05 100C8.00108e-05 97.2386 2.23866 95 5.00008 95L34.3086 95C37.07 95 39.3086 97.2386 39.3086 100Z" fill="white"/>
<path d="M146.489 99.9999C146.489 125.675 125.675 146.489 99.9999 146.489C74.3245 146.489 53.5105 125.675 53.5105 99.9999C53.5105 74.3245 74.3245 53.5105 99.9999 53.5105C125.675 53.5105 146.489 74.3245 146.489 99.9999Z" fill="white"/>
</svg>
