<svg width="144" height="200" viewBox="0 0 144 200" fill="none" xmlns="http://www.w3.org/2000/svg">
<path d="M71.9821 132.154C60.2761 132.141 49.0533 127.531 40.7757 119.336C32.4982 111.141 27.8418 100.03 27.8281 88.4396V43.7162C27.8281 32.1219 32.48 21.0026 40.7603 12.8042C49.0407 4.6058 60.2713 0 71.9815 0C83.6917 0 94.9222 4.6058 103.203 12.8042C111.483 21.0026 116.135 32.1219 116.135 43.7162V88.4396C116.121 100.029 111.465 111.141 103.188 119.336C94.9103 127.531 83.6878 132.141 71.9821 132.154ZM71.9821 19.926C65.6116 19.933 59.504 22.4417 54.9994 26.9017C50.4948 31.3617 47.961 37.4088 47.954 43.7162V88.4396C47.954 94.7488 50.4854 100.8 54.9913 105.261C59.4972 109.722 65.6085 112.229 71.9809 112.229C78.3532 112.229 84.4645 109.722 88.9704 105.261C93.4763 100.8 96.0077 94.7488 96.0077 88.4396V43.7162C96.001 37.4091 93.4677 31.3622 88.9635 26.9021C84.4594 22.4421 78.3522 19.9333 71.9821 19.926Z" fill="white"/>
<path d="M36.1442 200C34.9696 200 33.8064 199.771 32.7212 199.326C31.636 198.881 30.6499 198.228 29.8193 197.406C28.9887 196.584 28.3299 195.607 27.8804 194.533C27.4308 193.458 27.1995 192.307 27.1995 191.144C27.1995 189.981 27.4308 188.829 27.8804 187.755C28.3299 186.68 28.9887 185.704 29.8193 184.882C30.6499 184.059 31.636 183.407 32.7212 182.962C33.8064 182.517 34.9696 182.288 36.1442 182.288H62.887V165.354C45.5302 163.174 29.5705 154.806 17.9952 141.817C6.41982 128.827 0.0222887 112.107 0 94.7839C0 92.4351 0.942387 90.1825 2.61985 88.5217C4.29731 86.8608 6.57243 85.9278 8.94472 85.9278C11.317 85.9278 13.5921 86.8608 15.2696 88.5217C16.947 90.1825 17.8894 92.4351 17.8894 94.7839C17.8894 108.949 23.5726 122.533 33.6888 132.549C43.8049 142.565 57.5253 148.192 71.8317 148.192C86.1381 148.192 99.8586 142.565 109.975 132.549C120.091 122.533 125.774 108.949 125.774 94.7839C125.774 92.4351 126.716 90.1825 128.394 88.5217C130.071 86.8608 132.346 85.9278 134.719 85.9278C137.091 85.9278 139.366 86.8608 141.044 88.5217C142.721 90.1825 143.663 92.4351 143.663 94.7839C143.641 112.106 137.243 128.827 125.668 141.817C114.093 154.806 98.1332 163.174 80.7764 165.354V182.288H107.816C110.188 182.288 112.464 183.221 114.141 184.882C115.818 186.542 116.761 188.795 116.761 191.144C116.761 193.493 115.818 195.745 114.141 197.406C112.464 199.067 110.188 200 107.816 200H36.1442Z" fill="white"/>
</svg>
