<svg width="253" height="253" viewBox="0 0 253 253" fill="none" xmlns="http://www.w3.org/2000/svg">
<circle opacity="0.5" cx="126.5" cy="126.5" r="119" stroke="white" stroke-width="15"/>
<g opacity="0.5">
<path fill-rule="evenodd" clip-rule="evenodd" d="M154.182 193.052C173.55 193.052 189.25 177.443 189.25 158.189C189.25 138.935 173.55 123.326 154.182 123.326C134.815 123.326 119.115 138.935 119.115 158.189C119.115 177.443 134.815 193.052 154.182 193.052ZM154.182 201.999C178.52 201.999 198.25 182.385 198.25 158.189C198.25 133.993 178.52 114.379 154.182 114.379C129.844 114.379 110.115 133.993 110.115 158.189C110.115 182.385 129.844 201.999 154.182 201.999Z" fill="white"/>
<path fill-rule="evenodd" clip-rule="evenodd" d="M73 73.0402H162.557C165.871 73.0402 168.557 75.7108 168.557 79.0052V116.763C171.738 117.854 174.754 119.296 177.557 121.044V79.0052C177.557 70.7693 170.842 64.0928 162.557 64.0928H73C64.7157 64.0928 58 70.7693 58 79.0052V168.04C58 176.275 64.7157 182.952 73 182.952H117.824C115.912 180.182 114.312 177.183 113.073 174.005H73C69.6863 174.005 67 171.334 67 168.04V79.0052C67 75.7108 69.6863 73.0402 73 73.0402Z" fill="white"/>
<path fill-rule="evenodd" clip-rule="evenodd" d="M117.779 52C120.264 52 122.279 54.003 122.279 56.4737V80.8551C122.279 83.3259 120.264 85.3288 117.779 85.3288C115.294 85.3288 113.279 83.3259 113.279 80.8551V56.4737C113.279 54.003 115.294 52 117.779 52Z" fill="white"/>
<path fill-rule="evenodd" clip-rule="evenodd" d="M79.459 52C81.9443 52 83.959 54.003 83.959 56.4737V80.8551C83.959 83.3259 81.9443 85.3288 79.459 85.3288C76.9737 85.3288 74.959 83.3259 74.959 80.8551V56.4737C74.959 54.003 76.9737 52 79.459 52Z" fill="white"/>
<path fill-rule="evenodd" clip-rule="evenodd" d="M156.098 52C158.583 52 160.598 54.003 160.598 56.4737V80.8551C160.598 83.3259 158.583 85.3288 156.098 85.3288C153.613 85.3288 151.598 83.3259 151.598 80.8551V56.4737C151.598 54.003 153.613 52 156.098 52Z" fill="white"/>
<path fill-rule="evenodd" clip-rule="evenodd" d="M173.342 99.424H61.4487V90.4766H173.342V99.424Z" fill="white"/>
<path fill-rule="evenodd" clip-rule="evenodd" d="M120.242 108.948H116.082C114.425 108.948 113.082 110.284 113.082 111.931V116.066C113.082 117.714 114.425 119.049 116.082 119.049H120.242C121.899 119.049 123.242 117.714 123.242 116.066V111.931C123.242 110.284 121.899 108.948 120.242 108.948ZM116.082 104.475C111.94 104.475 108.582 107.813 108.582 111.931V116.066C108.582 120.184 111.94 123.523 116.082 123.523H120.242C124.384 123.523 127.742 120.184 127.742 116.066V111.931C127.742 107.813 124.384 104.475 120.242 104.475H116.082Z" fill="white"/>
<path fill-rule="evenodd" clip-rule="evenodd" d="M90.3522 108.948H86.1924C84.5355 108.948 83.1924 110.284 83.1924 111.931V116.066C83.1924 117.714 84.5355 119.049 86.1924 119.049H90.3522C92.0091 119.049 93.3522 117.714 93.3522 116.066V111.931C93.3522 110.284 92.0091 108.948 90.3522 108.948ZM86.1924 104.475C82.0502 104.475 78.6924 107.813 78.6924 111.931V116.066C78.6924 120.184 82.0502 123.523 86.1924 123.523H90.3522C94.4944 123.523 97.8522 120.184 97.8522 116.066V111.931C97.8522 107.813 94.4944 104.475 90.3522 104.475H86.1924Z" fill="white"/>
<path fill-rule="evenodd" clip-rule="evenodd" d="M90.3522 131.044H86.1924C84.5355 131.044 83.1924 132.379 83.1924 134.027V138.162C83.1924 139.809 84.5355 141.145 86.1924 141.145H90.3522C92.0091 141.145 93.3522 139.809 93.3522 138.162V134.027C93.3522 132.379 92.0091 131.044 90.3522 131.044ZM86.1924 126.57C82.0502 126.57 78.6924 129.909 78.6924 134.027V138.162C78.6924 142.28 82.0502 145.618 86.1924 145.618H90.3522C94.4944 145.618 97.8522 142.28 97.8522 138.162V134.027C97.8522 129.909 94.4944 126.57 90.3522 126.57H86.1924Z" fill="white"/>
<path fill-rule="evenodd" clip-rule="evenodd" d="M90.3522 153.14H86.1924C84.5355 153.14 83.1924 154.475 83.1924 156.122V160.258C83.1924 161.905 84.5355 163.24 86.1924 163.24H90.3522C92.0091 163.24 93.3522 161.905 93.3522 160.258V156.122C93.3522 154.475 92.0091 153.14 90.3522 153.14ZM86.1924 148.666C82.0502 148.666 78.6924 152.004 78.6924 156.122V160.258C78.6924 164.376 82.0502 167.714 86.1924 167.714H90.3522C94.4944 167.714 97.8522 164.376 97.8522 160.258V156.122C97.8522 152.004 94.4944 148.666 90.3522 148.666H86.1924Z" fill="white"/>
<path fill-rule="evenodd" clip-rule="evenodd" d="M154.565 129.716C157.051 129.716 159.065 131.719 159.065 134.19L159.065 157.809C159.065 160.28 157.051 162.283 154.565 162.283C152.08 162.283 150.065 160.28 150.065 157.809L150.065 134.19C150.065 131.719 152.08 129.716 154.565 129.716Z" fill="white"/>
<path fill-rule="evenodd" clip-rule="evenodd" d="M175.16 157.809C175.16 160.279 173.145 162.282 170.66 162.282H154.565C152.08 162.282 150.065 160.279 150.065 157.809C150.065 155.338 152.08 153.335 154.565 153.335H170.66C173.145 153.335 175.16 155.338 175.16 157.809Z" fill="white"/>
</g>
</svg>
