<svg width="1080" height="1080" viewBox="0 0 1080 1080" fill="none" xmlns="http://www.w3.org/2000/svg">
<path d="M540 1080C521.561 1080 503.134 1079.07 484.789 1077.21C466.791 1075.38 448.896 1072.65 431.171 1069.03C413.779 1065.47 396.371 1060.99 379.421 1055.72C362.676 1050.51 345.983 1044.4 329.808 1037.56C313.79 1030.79 297.908 1023.14 282.608 1014.83C267.419 1006.57 252.439 997.474 238.084 987.776C223.808 978.131 209.821 967.676 196.513 956.69C183.243 945.739 170.341 934.013 158.166 921.837C145.991 909.661 134.266 896.763 123.313 883.49C112.329 870.18 101.87 856.19 92.2271 841.919C82.5271 827.568 73.427 812.589 65.178 797.396C56.864 782.09 49.213 766.208 42.439 750.196C35.601 734.028 29.492 717.336 24.281 700.583C19.012 683.644 14.535 666.232 10.975 648.832C7.35327 631.107 4.6222 613.212 2.79199 595.214C0.933885 576.868 0.00204291 558.44 0 540C0.000838709 521.561 0.931317 503.133 2.78796 484.788C4.61811 466.79 7.34918 448.895 10.9709 431.171C14.5319 413.771 19.009 396.359 24.277 379.42C29.488 362.667 35.5971 345.975 42.4351 329.808C49.2101 313.79 56.861 297.908 65.174 282.608C73.4249 267.418 82.526 252.438 92.223 238.084C101.871 223.803 112.33 209.817 123.309 196.513C134.264 183.239 145.99 170.337 158.162 158.166C170.334 145.995 183.239 134.266 196.509 123.313C209.809 112.335 223.798 101.876 238.08 92.227C252.427 82.534 267.407 73.433 282.604 65.178C297.904 56.864 313.789 49.213 329.804 42.439C345.973 35.6 362.665 29.49 379.417 24.281C396.363 19.01 413.774 14.533 431.167 10.974C448.892 7.35165 466.787 4.62057 484.785 2.79102C491.118 2.14802 497.585 1.60798 503.996 1.19098V329.024C501.621 329.424 499.223 329.873 496.868 330.355C483.099 333.176 469.644 337.352 456.698 342.824C443.972 348.212 431.798 354.82 420.346 362.555C408.982 370.238 398.377 378.988 388.675 388.686C378.977 398.388 370.227 408.993 362.544 420.357C354.809 431.809 348.202 443.983 342.813 456.708C337.341 469.654 333.164 483.109 330.343 496.878C327.451 511.07 325.996 525.517 326 540C325.996 554.486 327.453 568.935 330.347 583.128C333.168 596.897 337.345 610.353 342.817 623.299C348.206 636.024 354.813 648.198 362.548 659.65C370.231 671.014 378.981 681.619 388.679 691.321C398.381 701.019 408.986 709.77 420.35 717.453C431.801 725.188 443.975 731.795 456.7 737.183C469.646 742.655 483.101 746.832 496.87 749.652C511.064 752.547 525.514 754.003 540 754C554.486 754.003 568.935 752.546 583.129 749.652C596.898 746.832 610.354 742.655 623.3 737.183C636.025 731.795 648.199 725.187 659.65 717.452C671.015 709.769 681.62 701.019 691.322 691.32C701.02 681.618 709.77 671.013 717.453 659.649C725.188 648.198 731.795 636.025 737.184 623.3C742.656 610.354 746.833 596.898 749.654 583.129C752.548 568.935 754.004 554.486 754 540C754.003 525.514 752.547 511.065 749.653 496.871C746.832 483.102 742.655 469.647 737.183 456.701C731.795 443.976 725.187 431.802 717.452 420.35C709.769 408.986 701.019 398.381 691.321 388.679C681.619 378.981 671.014 370.231 659.649 362.548C648.198 354.813 636.025 348.205 623.3 342.817C610.354 337.345 596.899 333.169 583.13 330.348C580.774 329.866 578.376 329.418 576.001 329.017V1.18298C582.426 1.60498 588.89 2.14502 595.213 2.78302C613.211 4.6126 631.106 7.34368 648.83 10.966C666.23 14.526 683.643 19.003 700.581 24.273C717.334 29.484 734.026 35.593 750.194 42.431C766.213 49.206 782.094 56.857 797.394 65.17C812.585 73.422 827.565 82.522 841.917 92.219C856.199 101.867 870.185 112.326 883.488 123.305C896.765 134.262 909.667 145.988 921.835 158.158C934.003 170.328 945.735 183.234 956.688 196.505C967.67 209.813 978.129 223.8 987.774 238.076C997.467 252.423 1006.57 267.404 1014.82 282.6C1023.14 297.907 1030.79 313.789 1037.56 329.8C1044.4 345.962 1050.51 362.654 1055.72 379.412C1060.99 396.35 1065.47 413.762 1069.03 431.163C1072.65 448.887 1075.38 466.782 1077.21 484.78C1079.07 503.128 1080 521.558 1080 540C1080 558.439 1079.07 576.866 1077.21 595.211C1075.38 613.209 1072.65 631.104 1069.03 648.829C1065.47 666.229 1060.99 683.64 1055.72 700.58C1050.51 717.33 1044.4 734.022 1037.56 750.193C1030.79 766.205 1023.14 782.087 1014.83 797.393C1006.57 812.593 997.468 827.572 987.777 841.916C978.124 856.203 967.665 870.19 956.691 883.487C945.738 896.758 934.011 909.66 921.838 921.834C909.665 934.008 896.766 945.734 883.491 956.687C870.191 967.664 856.204 978.123 841.92 987.773C827.575 997.464 812.595 1006.57 797.397 1014.82C782.09 1023.14 766.208 1030.79 750.197 1037.56C734.023 1044.4 717.33 1050.51 700.584 1055.72C683.636 1060.99 666.225 1065.47 648.833 1069.03C631.109 1072.65 613.214 1075.38 595.216 1077.21C576.869 1079.07 558.441 1080 540 1080Z" fill="black"/>
<mask id="mask0" mask-type="alpha" maskUnits="userSpaceOnUse" x="0" y="1" width="1080" height="1079">
<path d="M540 1080C521.561 1080 503.134 1079.07 484.789 1077.21C466.791 1075.38 448.896 1072.65 431.171 1069.03C413.779 1065.47 396.371 1060.99 379.421 1055.72C362.676 1050.51 345.983 1044.4 329.808 1037.56C313.79 1030.79 297.908 1023.14 282.608 1014.83C267.419 1006.57 252.439 997.474 238.084 987.776C223.808 978.131 209.821 967.676 196.513 956.69C183.243 945.739 170.341 934.013 158.166 921.837C145.991 909.661 134.266 896.763 123.313 883.49C112.329 870.18 101.87 856.19 92.2271 841.919C82.5271 827.568 73.427 812.589 65.178 797.396C56.864 782.09 49.213 766.208 42.439 750.196C35.601 734.028 29.492 717.336 24.281 700.583C19.012 683.644 14.535 666.232 10.975 648.832C7.35327 631.107 4.6222 613.212 2.79199 595.214C0.933885 576.868 0.00204291 558.44 0 540C0.000838709 521.561 0.931317 503.133 2.78796 484.788C4.61811 466.79 7.34918 448.895 10.9709 431.171C14.5319 413.771 19.009 396.359 24.277 379.42C29.488 362.667 35.5971 345.975 42.4351 329.808C49.2101 313.79 56.861 297.908 65.174 282.608C73.4249 267.418 82.526 252.438 92.223 238.084C101.871 223.803 112.33 209.817 123.309 196.513C134.264 183.239 145.99 170.337 158.162 158.166C170.334 145.995 183.239 134.266 196.509 123.313C209.809 112.335 223.798 101.876 238.08 92.227C252.427 82.534 267.407 73.433 282.604 65.178C297.904 56.864 313.789 49.213 329.804 42.439C345.973 35.6 362.665 29.49 379.417 24.281C396.363 19.01 413.774 14.533 431.167 10.974C448.892 7.35165 466.787 4.62057 484.785 2.79102C491.118 2.14802 497.585 1.60798 503.996 1.19098V329.024C501.621 329.424 499.223 329.873 496.868 330.355C483.099 333.176 469.644 337.352 456.698 342.824C443.972 348.212 431.798 354.82 420.346 362.555C408.982 370.238 398.377 378.988 388.675 388.686C378.977 398.388 370.227 408.993 362.544 420.357C354.809 431.809 348.202 443.983 342.813 456.708C337.341 469.654 333.164 483.109 330.343 496.878C327.451 511.07 325.996 525.517 326 540C325.996 554.486 327.453 568.935 330.347 583.128C333.168 596.897 337.345 610.353 342.817 623.299C348.206 636.024 354.813 648.198 362.548 659.65C370.231 671.014 378.981 681.619 388.679 691.321C398.381 701.019 408.986 709.77 420.35 717.453C431.801 725.188 443.975 731.795 456.7 737.183C469.646 742.655 483.101 746.832 496.87 749.652C511.064 752.547 525.514 754.003 540 754C554.486 754.003 568.935 752.546 583.129 749.652C596.898 746.832 610.354 742.655 623.3 737.183C636.025 731.795 648.199 725.187 659.65 717.452C671.015 709.769 681.62 701.019 691.322 691.32C701.02 681.618 709.77 671.013 717.453 659.649C725.188 648.198 731.795 636.025 737.184 623.3C742.656 610.354 746.833 596.898 749.654 583.129C752.548 568.935 754.004 554.486 754 540C754.003 525.514 752.547 511.065 749.653 496.871C746.832 483.102 742.655 469.647 737.183 456.701C731.795 443.976 725.187 431.802 717.452 420.35C709.769 408.986 701.019 398.381 691.321 388.679C681.619 378.981 671.014 370.231 659.649 362.548C648.198 354.813 636.025 348.205 623.3 342.817C610.354 337.345 596.899 333.169 583.13 330.348C580.774 329.866 578.376 329.418 576.001 329.017V1.18298C582.426 1.60498 588.89 2.14502 595.213 2.78302C613.211 4.6126 631.106 7.34368 648.83 10.966C666.23 14.526 683.643 19.003 700.581 24.273C717.334 29.484 734.026 35.593 750.194 42.431C766.213 49.206 782.094 56.857 797.394 65.17C812.585 73.422 827.565 82.522 841.917 92.219C856.199 101.867 870.185 112.326 883.488 123.305C896.765 134.262 909.667 145.988 921.835 158.158C934.003 170.328 945.735 183.234 956.688 196.505C967.67 209.813 978.129 223.8 987.774 238.076C997.467 252.423 1006.57 267.404 1014.82 282.6C1023.14 297.907 1030.79 313.789 1037.56 329.8C1044.4 345.962 1050.51 362.654 1055.72 379.412C1060.99 396.35 1065.47 413.762 1069.03 431.163C1072.65 448.887 1075.38 466.782 1077.21 484.78C1079.07 503.128 1080 521.558 1080 540C1080 558.439 1079.07 576.866 1077.21 595.211C1075.38 613.209 1072.65 631.104 1069.03 648.829C1065.47 666.229 1060.99 683.64 1055.72 700.58C1050.51 717.33 1044.4 734.022 1037.56 750.193C1030.79 766.205 1023.14 782.087 1014.83 797.393C1006.57 812.593 997.468 827.572 987.777 841.916C978.124 856.203 967.665 870.19 956.691 883.487C945.738 896.758 934.011 909.66 921.838 921.834C909.665 934.008 896.766 945.734 883.491 956.687C870.191 967.664 856.204 978.123 841.92 987.773C827.575 997.464 812.595 1006.57 797.397 1014.82C782.09 1023.14 766.208 1030.79 750.197 1037.56C734.023 1044.4 717.33 1050.51 700.584 1055.72C683.636 1060.99 666.225 1065.47 648.833 1069.03C631.109 1072.65 613.214 1075.38 595.216 1077.21C576.869 1079.07 558.441 1080 540 1080Z" fill="black"/>
</mask>
<g mask="url(#mask0)">
<path opacity="0.8" d="M537.207 270.285C537.207 270.285 630.87 252.16 660.387 276.499C689.904 300.838 689.45 379.03 742.495 428.226C795.54 477.422 784.149 591.344 775.346 609.987C766.543 628.63 728.746 763.787 642.262 761.714C555.778 759.641 492.607 803.14 470.336 811.427C448.065 819.714 416.48 820.746 378.678 782.427C340.876 744.108 292.2 710.964 297.378 661.769C302.556 612.574 305.771 452.562 305.771 452.562C305.771 452.562 288.057 347.442 375.571 314.299C463.085 281.156 537.204 307.567 537.204 307.567L537.207 270.285Z" fill="url(#paint0_radial)"/>
<path opacity="0.8" d="M537.207 270.285C537.207 270.285 630.87 252.16 660.387 276.499C689.904 300.838 689.45 379.03 742.495 428.226C795.54 477.422 784.149 591.344 775.346 609.987C766.543 628.63 728.746 763.787 642.262 761.714C555.778 759.641 492.607 803.14 470.336 811.427C448.065 819.714 416.48 820.746 378.678 782.427C340.876 744.108 292.2 710.964 297.378 661.769C302.556 612.574 305.771 452.562 305.771 452.562C305.771 452.562 288.057 347.442 375.571 314.299C463.085 281.156 537.204 307.567 537.204 307.567L537.207 270.285Z" stroke="#F8E999" stroke-width="2"/>
<path opacity="0.8" d="M767.535 656.186C738.019 577.473 852.235 381.286 804.4 315.226C770.979 269.07 631.689 330.385 582.333 332.498C679.759 351.898 753.19 437.871 753.19 540.998C753.19 658.421 658.001 753.61 540.578 753.61C423.155 753.61 327.967 658.425 327.967 541.002C327.967 423.579 423.156 328.392 540.581 328.392V257C540.581 257 567.681 266.166 482.645 286.547C397.609 306.928 339.535 352.579 338.135 385.612C336.735 418.645 282.099 628.001 375.571 675.092C469.043 722.183 469.913 781.63 570.054 821.347C803.976 914.117 797.056 734.899 767.535 656.186Z" fill="url(#paint1_radial)"/>
<path opacity="0.8" d="M767.535 656.186C738.019 577.473 852.235 381.286 804.4 315.226C770.979 269.07 631.689 330.385 582.333 332.498C679.759 351.898 753.19 437.871 753.19 540.998C753.19 658.421 658.001 753.61 540.578 753.61C423.155 753.61 327.967 658.425 327.967 541.002C327.967 423.579 423.156 328.392 540.581 328.392V257C540.581 257 567.681 266.166 482.645 286.547C397.609 306.928 339.535 352.579 338.135 385.612C336.735 418.645 282.099 628.001 375.571 675.092C469.043 722.183 469.913 781.63 570.054 821.347C803.976 914.117 797.056 734.899 767.535 656.186Z" stroke="#82C8CF" stroke-width="2"/>
<path opacity="0.61" d="M604.642 88.873L678.684 89.7945L678.75 84.4909L667.374 70.9323L661.03 70.8533L672.718 84.4158L604.708 83.5695L604.642 88.873ZM603.801 156.434L608.481 156.492L608.89 123.63L644.837 151.848C649.678 155.653 653.509 157.052 659.021 157.121C670.668 157.266 678.563 149.667 678.71 137.812C678.862 125.645 670.53 118.157 659.507 118.02L659.441 123.324C669.84 123.453 674.127 130.059 674.031 137.754C673.918 146.801 667.926 151.927 659.087 151.817C654.823 151.764 651.303 150.472 647.595 147.514L608.968 117.287L604.289 117.229L603.801 156.434ZM603.462 183.645L611.158 183.741L611.253 176.046L603.558 175.95L603.462 183.645ZM635.908 184.049L643.603 184.145L643.699 176.45L636.004 176.354L635.908 184.049ZM621.899 239.934L657.672 240.38C669.216 240.523 677.531 232.618 677.673 221.179C677.815 209.74 669.7 201.63 658.157 201.487L622.383 201.041C610.84 200.898 602.525 208.803 602.383 220.242C602.24 231.681 610.356 239.791 621.899 239.934ZM622.485 234.637C613.75 234.529 606.947 229.556 607.062 220.3C607.178 211.045 614.102 206.243 622.837 206.352L657.571 206.784C666.306 206.892 673.109 211.866 672.993 221.121C672.878 230.376 665.954 235.178 657.219 235.07L622.485 234.637ZM622.046 295.026C630.677 295.134 636.87 290.635 640.701 283.61C644.257 290.414 649.831 293.812 657.422 293.907C668.238 294.041 676.865 286.14 677.008 274.597C677.152 263.054 668.724 254.94 657.909 254.806C650.318 254.711 644.658 258.177 640.935 264.787C637.28 257.669 631.202 252.913 622.571 252.806C610.716 252.658 601.867 261.701 601.718 273.66C601.569 285.619 610.191 294.879 622.046 295.026ZM622.112 289.723C612.96 289.609 606.286 282.661 606.398 273.718C606.509 264.775 613.354 257.995 622.505 258.109C631.552 258.222 638.434 265.172 638.323 274.115C638.212 283.059 631.159 289.835 622.112 289.723ZM657.488 288.603C648.857 288.496 642.898 282.597 643.003 274.174C643.108 265.75 649.212 260.002 657.843 260.109C666.474 260.217 672.433 266.115 672.329 274.539C672.224 282.962 666.12 288.71 657.488 288.603Z" fill="white"/>
<g filter="url(#filter0_b)">
<path d="M540 1080C521.561 1080 503.134 1079.07 484.789 1077.21C466.791 1075.38 448.896 1072.65 431.171 1069.03C413.779 1065.47 396.371 1060.99 379.421 1055.72C362.676 1050.51 345.983 1044.41 329.808 1037.56C313.79 1030.79 297.908 1023.14 282.608 1014.83C267.419 1006.57 252.439 997.474 238.084 987.776C223.808 978.131 209.821 967.676 196.513 956.69C183.243 945.739 170.341 934.013 158.166 921.837C145.991 909.661 134.266 896.763 123.313 883.49C112.329 870.18 101.87 856.19 92.2271 841.919C82.5271 827.568 73.427 812.589 65.178 797.396C56.864 782.09 49.213 766.208 42.439 750.196C35.601 734.028 29.492 717.336 24.281 700.583C19.012 683.644 14.535 666.232 10.975 648.832C7.35327 631.107 4.6222 613.212 2.79199 595.214C0.933885 576.868 0.00204291 558.44 0 540C0.000838709 521.561 0.931317 503.134 2.78796 484.788C4.61811 466.79 7.34918 448.896 10.9709 431.171C14.5319 413.771 19.009 396.359 24.277 379.42C29.488 362.667 35.5971 345.975 42.4351 329.808C49.2101 313.79 56.861 297.908 65.174 282.608C73.4249 267.418 82.526 252.438 92.223 238.084C101.871 223.803 112.33 209.817 123.309 196.513C134.264 183.239 145.99 170.337 158.162 158.166C170.334 145.995 183.239 134.266 196.509 123.313C209.809 112.335 223.798 101.876 238.08 92.2271C252.427 82.5341 267.407 73.4331 282.604 65.1781C297.904 56.8641 313.789 49.2132 329.804 42.4391C345.973 35.6001 362.665 29.4901 379.417 24.2811C396.363 19.0101 413.774 14.5331 431.167 10.9741C448.892 7.35177 466.787 4.62069 484.785 2.79114C491.118 2.14814 497.585 1.6081 503.996 1.1911V329.024C501.621 329.424 499.223 329.873 496.868 330.355C483.099 333.176 469.644 337.352 456.698 342.824C443.972 348.212 431.798 354.82 420.346 362.555C408.982 370.238 398.377 378.988 388.675 388.686C378.977 398.388 370.227 408.993 362.544 420.357C354.809 431.809 348.202 443.983 342.813 456.708C337.341 469.654 333.164 483.109 330.343 496.878C327.451 511.07 325.996 525.517 326 540C325.996 554.486 327.453 568.935 330.347 583.128C333.168 596.897 337.345 610.353 342.817 623.299C348.206 636.024 354.813 648.198 362.548 659.65C370.231 671.015 378.981 681.62 388.679 691.321C398.381 701.02 408.986 709.77 420.35 717.453C431.801 725.188 443.975 731.796 456.7 737.183C469.646 742.655 483.101 746.832 496.87 749.652C511.064 752.547 525.514 754.003 540 754C554.486 754.003 568.935 752.547 583.129 749.652C596.898 746.832 610.354 742.655 623.3 737.183C636.025 731.795 648.199 725.187 659.65 717.452C671.015 709.769 681.62 701.019 691.322 691.32C701.02 681.618 709.77 671.013 717.453 659.649C725.188 648.198 731.795 636.025 737.184 623.3C742.656 610.354 746.833 596.898 749.654 583.129C752.548 568.935 754.004 554.486 754 540C754.003 525.514 752.547 511.065 749.653 496.871C746.832 483.103 742.655 469.647 737.183 456.701C731.795 443.976 725.187 431.802 717.452 420.35C709.769 408.986 701.019 398.381 691.321 388.679C681.619 378.981 671.014 370.231 659.649 362.548C648.198 354.813 636.025 348.205 623.3 342.817C610.354 337.345 596.899 333.169 583.13 330.348C580.774 329.866 578.376 329.418 576.001 329.017V1.18311C582.426 1.60511 588.89 2.14514 595.213 2.78314C613.211 4.61272 631.106 7.3438 648.83 10.9661C666.23 14.5261 683.643 19.0031 700.581 24.2731C717.334 29.4841 734.026 35.5932 750.194 42.4312C766.213 49.2062 782.094 56.8571 797.394 65.1701C812.585 73.4221 827.565 82.5221 841.917 92.2191C856.199 101.867 870.185 112.326 883.488 123.305C896.765 134.262 909.667 145.988 921.835 158.158C934.003 170.328 945.735 183.234 956.688 196.505C967.67 209.813 978.129 223.8 987.774 238.076C997.467 252.423 1006.57 267.404 1014.82 282.6C1023.14 297.907 1030.79 313.789 1037.56 329.8C1044.4 345.962 1050.51 362.654 1055.72 379.412C1060.99 396.35 1065.47 413.762 1069.03 431.163C1072.65 448.888 1075.38 466.782 1077.21 484.78C1079.07 503.128 1080 521.558 1080 540C1080 558.439 1079.07 576.866 1077.21 595.211C1075.38 613.209 1072.65 631.104 1069.03 648.829C1065.47 666.229 1060.99 683.64 1055.72 700.58C1050.51 717.33 1044.4 734.022 1037.56 750.193C1030.79 766.205 1023.14 782.087 1014.83 797.393C1006.57 812.593 997.468 827.572 987.777 841.916C978.124 856.203 967.665 870.19 956.691 883.487C945.738 896.758 934.011 909.66 921.838 921.834C909.665 934.008 896.766 945.734 883.491 956.687C870.191 967.664 856.204 978.123 841.92 987.773C827.575 997.464 812.595 1006.57 797.397 1014.82C782.09 1023.14 766.208 1030.79 750.197 1037.56C734.023 1044.4 717.33 1050.51 700.584 1055.72C683.636 1060.99 666.225 1065.47 648.833 1069.03C631.109 1072.65 613.214 1075.38 595.216 1077.21C576.869 1079.07 558.441 1080 540 1080Z" fill="black" fill-opacity="0.4"/>
</g>
<path d="M310 541C310 668.025 412.975 771 540 771C667.025 771 770 668.025 770 541C770 413.975 667.025 311 540 311" stroke="#B3D898" stroke-width="10" stroke-linecap="round"/>
<path d="M540 796C638.055 796 723.184 740.655 765.852 659.5M540 286C658.369 286 757.901 366.652 786.641 476" stroke="#B3D898" stroke-width="10" stroke-linecap="round"/>
<path d="M820 541C820 386.36 694.64 261 540 261C385.36 261 260 386.36 260 541" stroke="#B3D898" stroke-width="10" stroke-linecap="round"/>
<path d="M540 846C653.305 846 752.18 784.216 804.772 692.5M837.162 472C805.892 336.789 684.716 236 540 236C418.05 236 312.817 307.571 264.013 411" stroke="#B3D898" stroke-width="10" stroke-linecap="round"/>
<path d="M870 541C870 358.746 722.254 211 540 211" stroke="#B3D898" stroke-width="10" stroke-linecap="round"/>
<path d="M615 888.063C726.692 864.041 818.861 787.47 864.357 685.5M881.586 444C860.073 368.095 813.942 302.537 752.367 256.5" stroke="#E24C3A" stroke-width="10" stroke-linecap="round"/>
<path d="M945 541C945 764.675 763.675 946 540 946C316.325 946 135 764.675 135 541" stroke="#E24C3A" stroke-width="10" stroke-linecap="round"/>
<path d="M85 541C85 289.71 288.71 86 540 86" stroke="#E24C3A" stroke-width="10" stroke-linecap="round"/>
<path d="M540 1021C274.903 1021 60 806.097 60 541" stroke="#E24C3A" stroke-width="10" stroke-linecap="round"/>
<path d="M970 541C970 303.518 777.482 111 540 111" stroke="#E24C3A" stroke-width="10" stroke-linecap="round"/>
<line x1="536.536" y1="538.17" x2="819.536" y2="47.9998" stroke="white" stroke-width="8"/>
<path d="M540 1080C521.561 1080 503.134 1079.07 484.789 1077.21C466.791 1075.38 448.896 1072.65 431.171 1069.03C413.779 1065.47 396.371 1060.99 379.421 1055.72C362.676 1050.51 345.983 1044.41 329.808 1037.56C313.79 1030.79 297.908 1023.14 282.608 1014.83C267.419 1006.57 252.439 997.475 238.084 987.777C223.808 978.132 209.821 967.677 196.513 956.691C183.243 945.74 170.341 934.014 158.166 921.838C145.991 909.662 134.266 896.764 123.313 883.491C112.329 870.181 101.87 856.191 92.2271 841.92C82.5271 827.569 73.427 812.59 65.178 797.397C56.864 782.091 49.213 766.209 42.439 750.197C35.601 734.029 29.492 717.337 24.281 700.584C19.012 683.645 14.535 666.233 10.975 648.833C7.35327 631.108 4.6222 613.213 2.79199 595.215C0.933885 576.869 0.00204291 558.44 0 540.001C0.000838709 521.561 0.931317 503.134 2.78796 484.789C4.61811 466.791 7.34918 448.896 10.9709 431.172C14.5319 413.772 19.009 396.36 24.277 379.421C29.488 362.668 35.5971 345.976 42.4351 329.809C49.2101 313.791 56.861 297.909 65.174 282.609C73.4249 267.419 82.526 252.439 92.223 238.085C101.871 223.804 112.33 209.818 123.309 196.514C134.264 183.24 145.99 170.338 158.162 158.167C170.334 145.996 183.239 134.267 196.509 123.314C209.809 112.336 223.798 101.877 238.08 92.2276C252.427 82.5346 267.407 73.4336 282.604 65.1786C297.904 56.8646 313.789 49.2136 329.804 42.4396C345.973 35.6006 362.665 29.4906 379.417 24.2816C396.363 19.0106 413.774 14.5336 431.167 10.9746C448.892 7.35226 466.787 4.62118 484.785 2.79163C491.118 2.14863 497.585 1.60859 503.996 1.19159V329.025C501.621 329.425 499.223 329.874 496.868 330.356C483.099 333.176 469.644 337.353 456.698 342.825C443.972 348.212 431.798 354.82 420.346 362.556C408.982 370.238 398.377 378.988 388.675 388.687C378.977 398.388 370.227 408.993 362.544 420.358C354.809 431.81 348.202 443.983 342.813 456.709C337.341 469.654 333.164 483.11 330.343 496.879C327.451 511.07 325.996 525.517 326 540.001C325.996 554.486 327.453 568.935 330.347 583.129C333.168 596.898 337.345 610.354 342.817 623.3C348.206 636.025 354.813 648.199 362.548 659.651C370.231 671.015 378.981 681.62 388.679 691.322C398.381 701.02 408.986 709.77 420.35 717.454C431.801 725.189 443.975 731.796 456.7 737.184C469.646 742.656 483.101 746.832 496.87 749.653C511.064 752.547 525.514 754.004 540 754.001C554.486 754.004 568.935 752.547 583.129 749.653C596.898 746.832 610.354 742.656 623.3 737.184C636.025 731.795 648.199 725.188 659.65 717.453C671.015 709.77 681.62 701.019 691.322 691.321C701.02 681.619 709.77 671.014 717.453 659.65C725.188 648.198 731.795 636.025 737.184 623.301C742.656 610.354 746.833 596.899 749.654 583.13C752.548 568.936 754.004 554.486 754 540.001C754.003 525.515 752.547 511.065 749.653 496.872C746.832 483.103 742.655 469.647 737.183 456.702C731.795 443.976 725.187 431.802 717.452 420.351C709.769 408.986 701.019 398.381 691.321 388.68C681.619 378.981 671.014 370.231 659.649 362.549C648.198 354.814 636.025 348.206 623.3 342.818C610.354 337.346 596.899 333.169 583.13 330.349C580.774 329.867 578.376 329.419 576.001 329.018V1.18359C582.426 1.60559 588.89 2.14563 595.213 2.78363C613.211 4.61321 631.106 7.34429 648.83 10.9666C666.23 14.5266 683.643 19.0036 700.581 24.2736C717.334 29.4846 734.026 35.5936 750.194 42.4316C766.213 49.2066 782.094 56.8576 797.394 65.1706C812.585 73.4226 827.565 82.5226 841.917 92.2196C856.199 101.868 870.185 112.327 883.488 123.306C896.765 134.263 909.667 145.989 921.835 158.159C934.003 170.329 945.735 183.235 956.688 196.506C967.67 209.814 978.129 223.801 987.774 238.077C997.467 252.424 1006.57 267.405 1014.82 282.601C1023.14 297.908 1030.79 313.79 1037.56 329.801C1044.4 345.963 1050.51 362.655 1055.72 379.413C1060.99 396.351 1065.47 413.763 1069.03 431.164C1072.65 448.888 1075.38 466.783 1077.21 484.781C1079.07 503.129 1080 521.559 1080 540.001C1080 558.439 1079.07 576.866 1077.21 595.212C1075.38 613.21 1072.65 631.105 1069.03 648.83C1065.47 666.23 1060.99 683.641 1055.72 700.581C1050.51 717.331 1044.4 734.023 1037.56 750.194C1030.79 766.206 1023.14 782.088 1014.83 797.394C1006.57 812.594 997.468 827.573 987.777 841.917C978.124 856.204 967.665 870.191 956.691 883.488C945.738 896.759 934.011 909.661 921.838 921.835C909.665 934.009 896.766 945.735 883.491 956.688C870.191 967.665 856.204 978.124 841.92 987.774C827.575 997.465 812.595 1006.57 797.397 1014.82C782.09 1023.14 766.208 1030.79 750.197 1037.56C734.023 1044.4 717.33 1050.51 700.584 1055.72C683.636 1060.99 666.225 1065.47 648.833 1069.03C631.109 1072.65 613.214 1075.38 595.216 1077.21C576.869 1079.07 558.441 1080 540 1080Z" fill="url(#paint2_angular)"/>
<g filter="url(#filter1_b)">
<path d="M540 1080C521.561 1080 503.134 1079.07 484.789 1077.21C466.791 1075.38 448.896 1072.65 431.171 1069.03C413.779 1065.47 396.371 1060.99 379.421 1055.72C362.676 1050.51 345.983 1044.41 329.808 1037.56C313.79 1030.79 297.908 1023.14 282.608 1014.83C267.419 1006.57 252.439 997.475 238.084 987.777C223.808 978.132 209.821 967.677 196.513 956.691C183.243 945.74 170.341 934.014 158.166 921.838C145.991 909.662 134.266 896.764 123.313 883.491C112.329 870.181 101.87 856.191 92.2271 841.92C82.5271 827.569 73.427 812.59 65.178 797.397C56.864 782.091 49.213 766.209 42.439 750.197C35.601 734.029 29.492 717.337 24.281 700.584C19.012 683.645 14.535 666.233 10.975 648.833C7.35327 631.108 4.6222 613.213 2.79199 595.215C0.933885 576.869 0.00204291 558.44 0 540.001C0.000838709 521.561 0.931317 503.134 2.78796 484.789C4.61811 466.791 7.34918 448.896 10.9709 431.172C14.5319 413.772 19.009 396.36 24.277 379.421C29.488 362.668 35.5971 345.976 42.4351 329.809C49.2101 313.791 56.861 297.909 65.174 282.609C73.4249 267.419 82.526 252.439 92.223 238.085C101.871 223.804 112.33 209.818 123.309 196.514C134.264 183.24 145.99 170.338 158.162 158.167C170.334 145.996 183.239 134.267 196.509 123.314C209.809 112.336 223.798 101.877 238.08 92.2276C252.427 82.5346 267.407 73.4336 282.604 65.1786C297.904 56.8646 313.789 49.2136 329.804 42.4396C345.973 35.6006 362.665 29.4906 379.417 24.2816C396.363 19.0106 413.774 14.5336 431.167 10.9746C448.892 7.35226 466.787 4.62118 484.785 2.79163C491.118 2.14863 497.585 1.60859 503.996 1.19159V329.025C501.621 329.425 499.223 329.874 496.868 330.356C483.099 333.176 469.644 337.353 456.698 342.825C443.972 348.212 431.798 354.82 420.346 362.556C408.982 370.238 398.377 378.988 388.675 388.687C378.977 398.388 370.227 408.993 362.544 420.358C354.809 431.81 348.202 443.983 342.813 456.709C337.341 469.654 333.164 483.11 330.343 496.879C327.451 511.07 325.996 525.517 326 540.001C325.996 554.486 327.453 568.935 330.347 583.129C333.168 596.898 337.345 610.354 342.817 623.3C348.206 636.025 354.813 648.199 362.548 659.651C370.231 671.015 378.981 681.62 388.679 691.322C398.381 701.02 408.986 709.77 420.35 717.454C431.801 725.189 443.975 731.796 456.7 737.184C469.646 742.656 483.101 746.832 496.87 749.653C511.064 752.547 525.514 754.004 540 754.001C554.486 754.004 568.935 752.547 583.129 749.653C596.898 746.832 610.354 742.656 623.3 737.184C636.025 731.795 648.199 725.188 659.65 717.453C671.015 709.77 681.62 701.019 691.322 691.321C701.02 681.619 709.77 671.014 717.453 659.65C725.188 648.198 731.795 636.025 737.184 623.301C742.656 610.354 746.833 596.899 749.654 583.13C752.548 568.936 754.004 554.486 754 540.001C754.003 525.515 752.547 511.065 749.653 496.872C746.832 483.103 742.655 469.647 737.183 456.702C731.795 443.976 725.187 431.802 717.452 420.351C709.769 408.986 701.019 398.381 691.321 388.68C681.619 378.981 671.014 370.231 659.649 362.549C648.198 354.814 636.025 348.206 623.3 342.818C610.354 337.346 596.899 333.169 583.13 330.349C580.774 329.867 578.376 329.419 576.001 329.018V1.18359C582.426 1.60559 588.89 2.14563 595.213 2.78363C613.211 4.61321 631.106 7.34429 648.83 10.9666C666.23 14.5266 683.643 19.0036 700.581 24.2736C717.334 29.4846 734.026 35.5936 750.194 42.4316C766.213 49.2066 782.094 56.8576 797.394 65.1706C812.585 73.4226 827.565 82.5226 841.917 92.2196C856.199 101.868 870.185 112.327 883.488 123.306C896.765 134.263 909.667 145.989 921.835 158.159C934.003 170.329 945.735 183.235 956.688 196.506C967.67 209.814 978.129 223.801 987.774 238.077C997.467 252.424 1006.57 267.405 1014.82 282.601C1023.14 297.908 1030.79 313.79 1037.56 329.801C1044.4 345.963 1050.51 362.655 1055.72 379.413C1060.99 396.351 1065.47 413.763 1069.03 431.164C1072.65 448.888 1075.38 466.783 1077.21 484.781C1079.07 503.129 1080 521.559 1080 540.001C1080 558.439 1079.07 576.866 1077.21 595.212C1075.38 613.21 1072.65 631.105 1069.03 648.83C1065.47 666.23 1060.99 683.641 1055.72 700.581C1050.51 717.331 1044.4 734.023 1037.56 750.194C1030.79 766.206 1023.14 782.088 1014.83 797.394C1006.57 812.594 997.468 827.573 987.777 841.917C978.124 856.204 967.665 870.191 956.691 883.488C945.738 896.759 934.011 909.661 921.838 921.835C909.665 934.009 896.766 945.735 883.491 956.688C870.191 967.665 856.204 978.124 841.92 987.774C827.575 997.465 812.595 1006.57 797.397 1014.82C782.09 1023.14 766.208 1030.79 750.197 1037.56C734.023 1044.4 717.33 1050.51 700.584 1055.72C683.636 1060.99 666.225 1065.47 648.833 1069.03C631.109 1072.65 613.214 1075.38 595.216 1077.21C576.869 1079.07 558.441 1080 540 1080Z" fill="black" fill-opacity="0.5"/>
</g>
<path d="M540 921C749.868 921 920 750.868 920 541C920 331.132 749.868 161 540 161" stroke="#E24C3A" stroke-width="10" stroke-linecap="round"/>
<line x1="453.481" y1="870.659" x2="544.481" y2="922.659" stroke="#E24C3A" stroke-opacity="0.5" stroke-width="10"/>
<line x1="536.536" y1="538.17" x2="819.536" y2="47.9995" stroke="white" stroke-width="8"/>
<circle cx="726" cy="211" r="14" fill="#E24C3A" stroke="white" stroke-width="4"/>
<circle cx="433" cy="846" r="69" fill="black"/>
<circle cx="433" cy="846" r="69" fill="url(#paint3_linear)"/>
<path d="M401.3 933.912H397.82L395.156 944.688L392.036 933.912H389.54L386.42 944.688L383.78 933.912H380.3L384.86 951H387.644L390.788 940.632L393.932 951H396.716L401.3 933.912ZM416.161 951L409.921 933.912H407.305L401.089 951H404.569L405.601 947.976H411.673L412.681 951H416.161ZM410.785 945.168H406.537L408.697 938.952L410.785 945.168ZM429.305 945.96C429.305 944.424 428.897 943.2 427.985 942.36C427.241 941.64 426.281 941.232 424.721 941.016L422.681 940.704C421.961 940.608 421.457 940.368 421.121 940.056C420.761 939.72 420.641 939.288 420.641 938.832C420.641 937.656 421.481 936.672 423.257 936.672C424.385 936.672 425.705 936.816 426.761 937.848L428.873 935.76C427.409 934.344 425.705 933.768 423.353 933.768C419.657 933.768 417.401 935.904 417.401 938.952C417.401 940.392 417.809 941.52 418.625 942.312C419.393 943.056 420.425 943.512 421.937 943.728L423.977 944.04C424.841 944.16 425.177 944.304 425.513 944.616C425.873 944.976 426.041 945.456 426.041 946.032C426.041 947.4 424.985 948.168 422.993 948.168C421.433 948.168 419.969 947.808 418.889 946.728L416.729 948.888C418.409 950.592 420.377 951.144 422.969 951.144C426.569 951.144 429.305 949.272 429.305 945.96ZM444.901 951V933.912H441.565V940.896H435.781V933.912H432.445V951H435.781V943.848H441.565V951H444.901ZM452.211 951V933.912H448.875V951H452.211ZM469.267 951V933.912H465.931V944.376L459.163 933.912H456.187V951H459.523V940.512L466.291 951H469.267ZM485.418 943.992V941.496H478.962V944.304H482.106V944.928C482.106 945.816 481.89 946.584 481.338 947.208C480.81 947.808 479.994 948.168 478.962 948.168C478.05 948.168 477.33 947.832 476.826 947.28C476.202 946.56 476.01 945.72 476.01 942.456C476.01 939.192 476.202 938.376 476.826 937.656C477.33 937.104 478.05 936.744 478.962 936.744C480.666 936.744 481.65 937.608 482.034 939.24H485.394C484.938 936.36 482.946 933.768 478.962 933.768C477.018 933.768 475.578 934.416 474.402 935.568C472.698 937.272 472.674 939.192 472.674 942.456C472.674 945.72 472.698 947.64 474.402 949.344C475.578 950.496 477.018 951.144 478.962 951.144C480.786 951.144 482.37 950.688 483.786 949.2C485.034 947.904 485.418 946.464 485.418 943.992ZM398.601 981V963.912H395.313L390.873 973.152L386.409 963.912H383.121V981H386.457V971.04L389.745 977.52H392.001L395.265 971.04V981H398.601ZM415.774 981L409.534 963.912H406.918L400.702 981H404.182L405.214 977.976H411.286L412.294 981H415.774ZM410.398 975.168H406.15L408.31 968.952L410.398 975.168ZM429.644 975.744H426.26C425.924 977.136 425.036 978.168 423.38 978.168C422.468 978.168 421.724 977.832 421.244 977.28C420.62 976.56 420.404 975.72 420.404 972.456C420.404 969.192 420.62 968.352 421.244 967.632C421.724 967.08 422.468 966.744 423.38 966.744C425.036 966.744 425.9 967.776 426.236 969.168H429.644C429.02 965.592 426.572 963.768 423.38 963.768C421.412 963.768 419.972 964.416 418.796 965.568C417.092 967.272 417.068 969.192 417.068 972.456C417.068 975.72 417.092 977.64 418.796 979.344C419.972 980.496 421.412 981.144 423.38 981.144C426.548 981.144 429.02 979.32 429.644 975.744ZM444.983 981V963.912H441.647V970.896H435.863V963.912H432.527V981H435.863V973.848H441.647V981H444.983ZM452.293 981V963.912H448.957V981H452.293ZM469.349 981V963.912H466.013V974.376L459.245 963.912H456.269V981H459.605V970.512L466.373 981H469.349ZM484.588 981V978.024H476.668V973.872H483.412V970.896H476.668V966.888H484.588V963.912H473.332V981H484.588Z" fill="white"/>
<path d="M365.92 1012V994.912H364.192L361 997.672V999.64L364.192 996.832V1012H365.92ZM378.459 1012V994.912H376.731L373.539 997.672V999.64L376.731 996.832V1012H378.459ZM388.094 1004.78V1002.52H385.838V1004.78H388.094ZM388.094 1012V1009.74H385.838V1012H388.094ZM401.267 1012V1010.46H393.923L399.899 1002.83C400.835 1001.63 401.267 1000.74 401.267 999.376C401.267 996.568 399.371 994.768 396.563 994.768C393.707 994.768 391.859 996.712 391.859 999.4H393.587C393.587 997.192 394.979 996.304 396.563 996.304C398.435 996.304 399.539 997.528 399.539 999.376C399.539 1000.31 399.227 1001.06 398.579 1001.9L391.835 1010.46V1012H401.267ZM413.782 1007.34C413.782 1005.21 412.894 1003.82 411.166 1003.17C412.702 1002.47 413.47 1001.18 413.47 999.376C413.47 996.592 411.55 994.744 408.766 994.744C406.174 994.744 404.158 996.376 403.966 999.136H405.694C405.862 997.384 406.966 996.28 408.766 996.28C410.422 996.28 411.742 997.36 411.742 999.4C411.742 1001.32 410.782 1002.5 408.694 1002.5H408.334V1004.01H408.694C411.022 1004.01 412.054 1005.26 412.054 1007.32C412.054 1009.41 410.614 1010.63 408.766 1010.63C407.134 1010.63 405.622 1009.79 405.478 1007.66H403.75C403.894 1010.75 406.078 1012.17 408.766 1012.17C411.55 1012.17 413.782 1010.49 413.782 1007.34Z" fill="white"/>
<path d="M459.944 1007.44V999.472C459.944 996.64 457.928 994.768 455.264 994.768C452.576 994.768 450.584 996.64 450.584 999.472V1007.44C450.584 1010.27 452.576 1012.14 455.264 1012.14C457.928 1012.14 459.944 1010.27 459.944 1007.44ZM458.216 1007.34C458.216 1009.22 457.16 1010.61 455.264 1010.61C453.368 1010.61 452.312 1009.22 452.312 1007.34V999.568C452.312 997.696 453.368 996.304 455.264 996.304C457.16 996.304 458.216 997.696 458.216 999.568V1007.34ZM472.483 1007.44V999.472C472.483 996.64 470.467 994.768 467.803 994.768C465.115 994.768 463.123 996.64 463.123 999.472V1007.44C463.123 1010.27 465.115 1012.14 467.803 1012.14C470.467 1012.14 472.483 1010.27 472.483 1007.44ZM470.755 1007.34C470.755 1009.22 469.699 1010.61 467.803 1010.61C465.907 1010.61 464.851 1009.22 464.851 1007.34V999.568C464.851 997.696 465.907 996.304 467.803 996.304C469.699 996.304 470.755 997.696 470.755 999.568V1007.34ZM479.094 1004.78V1002.52H476.838V1004.78H479.094ZM479.094 1012V1009.74H476.838V1012H479.094ZM492.147 1007.44V999.472C492.147 996.64 490.131 994.768 487.467 994.768C484.779 994.768 482.787 996.64 482.787 999.472V1007.44C482.787 1010.27 484.779 1012.14 487.467 1012.14C490.131 1012.14 492.147 1010.27 492.147 1007.44ZM490.419 1007.34C490.419 1009.22 489.363 1010.61 487.467 1010.61C485.571 1010.61 484.515 1009.22 484.515 1007.34V999.568C484.515 997.696 485.571 996.304 487.467 996.304C489.363 996.304 490.419 997.696 490.419 999.568V1007.34ZM504.806 1012V1010.46H497.462L503.438 1002.83C504.374 1001.63 504.806 1000.74 504.806 999.376C504.806 996.568 502.91 994.768 500.102 994.768C497.246 994.768 495.398 996.712 495.398 999.4H497.126C497.126 997.192 498.518 996.304 500.102 996.304C501.974 996.304 503.078 997.528 503.078 999.376C503.078 1000.31 502.766 1001.06 502.118 1001.9L495.374 1010.46V1012H504.806Z" fill="white"/>
<path d="M424 1004H442M442 1004L437.909 1009M442 1004L437.909 999" stroke="white" stroke-width="2" stroke-linecap="round" stroke-linejoin="round"/>
<path fill-rule="evenodd" clip-rule="evenodd" d="M461 808.34H407C405.012 808.34 403.4 809.934 403.4 811.9V883.1C403.4 885.066 405.012 886.66 407 886.66H461C462.988 886.66 464.6 885.066 464.6 883.1V811.9C464.6 809.934 462.988 808.34 461 808.34ZM407 803C402.029 803 398 806.985 398 811.9V883.1C398 888.015 402.029 892 407 892H461C465.971 892 470 888.015 470 883.1V811.9C470 806.985 465.971 803 461 803H407Z" fill="white"/>
<path fill-rule="evenodd" clip-rule="evenodd" d="M466.4 826.14H400.25V820.8H466.4V826.14Z" fill="white"/>
<path fill-rule="evenodd" clip-rule="evenodd" d="M424.548 842.16H411.781V848.554C411.781 851.963 414.653 854.784 418.164 854.784C421.676 854.784 424.548 851.963 424.548 848.554V842.16ZM409.081 839.49V848.554C409.081 853.47 413.194 857.454 418.164 857.454C423.135 857.454 427.248 853.47 427.248 848.554V839.49H409.081Z" fill="white"/>
<path fill-rule="evenodd" clip-rule="evenodd" d="M416.73 870.219L416.73 855.563L419.43 855.563L419.43 870.219L416.73 870.219Z" fill="white"/>
<path fill-rule="evenodd" clip-rule="evenodd" d="M425.509 869.434C425.509 870.172 424.904 870.769 424.159 870.769L412.039 870.769C411.293 870.769 410.689 870.172 410.689 869.434C410.689 868.697 411.293 868.099 412.039 868.099L424.159 868.099C424.904 868.099 425.509 868.697 425.509 869.434Z" fill="white"/>
<path fill-rule="evenodd" clip-rule="evenodd" d="M444.519 868.86C451.975 868.86 458.019 862.883 458.019 855.51C458.019 848.137 451.975 842.16 444.519 842.16C437.063 842.16 431.019 848.137 431.019 855.51C431.019 862.883 437.063 868.86 444.519 868.86ZM444.519 871.53C453.466 871.53 460.719 864.358 460.719 855.51C460.719 846.662 453.466 839.49 444.519 839.49C435.572 839.49 428.319 846.662 428.319 855.51C428.319 864.358 435.572 871.53 444.519 871.53Z" fill="white"/>
<path fill-rule="evenodd" clip-rule="evenodd" d="M444.519 862.352C448.34 862.352 451.438 859.289 451.438 855.51C451.438 851.731 448.34 848.668 444.519 848.668C440.698 848.668 437.6 851.731 437.6 855.51C437.6 859.289 440.698 862.352 444.519 862.352ZM444.519 865.022C449.831 865.022 454.138 860.763 454.138 855.51C454.138 850.257 449.831 845.998 444.519 845.998C439.207 845.998 434.9 850.257 434.9 855.51C434.9 860.763 439.207 865.022 444.519 865.022Z" fill="white"/>
<path d="M452 814.57C452 816.045 450.791 817.24 449.3 817.24C447.809 817.24 446.6 816.045 446.6 814.57C446.6 813.095 447.809 811.9 449.3 811.9C450.791 811.9 452 813.095 452 814.57Z" fill="white"/>
<path d="M460.1 814.57C460.1 816.045 458.891 817.24 457.4 817.24C455.909 817.24 454.7 816.045 454.7 814.57C454.7 813.095 455.909 811.9 457.4 811.9C458.891 811.9 460.1 813.095 460.1 814.57Z" fill="white"/>
<rect x="281" y="102" width="267" height="64" rx="32" fill="url(#paint4_linear)"/>
<path d="M366.768 150V147.12H352.998L364.203 132.81C365.958 130.56 366.768 128.895 366.768 126.33C366.768 121.065 363.213 117.69 357.948 117.69C352.593 117.69 349.128 121.335 349.128 126.375H352.368C352.368 122.235 354.978 120.57 357.948 120.57C361.458 120.57 363.528 122.865 363.528 126.33C363.528 128.085 362.943 129.48 361.728 131.055L349.083 147.12V150H366.768ZM377.724 150V145.77H373.494V150H377.724ZM396.513 150V117.96H393.273L387.288 123.135V126.825L393.273 121.56V150H396.513ZM427.809 150L418.989 136.32L426.504 127.86H422.454L412.464 139.38V117.96H409.224V150H412.464V143.61L416.784 138.66L423.804 150H427.809ZM467.01 117.96H463.365L457.11 143.79L450.045 117.96H446.985L439.92 143.79L433.665 117.96H430.02L438.21 150H441.405L448.515 124.35L455.625 150H458.82L467.01 117.96ZM489.173 150V135.78C489.173 130.785 486.248 127.59 481.208 127.59C478.688 127.59 476.618 128.49 474.998 130.29V117.96H471.758V150H474.998V136.32C474.998 132.405 477.158 130.47 480.533 130.47C483.908 130.47 485.933 132.405 485.933 136.32V150H489.173Z" fill="white"/>
<path d="M320.479 122.792C320.834 121.843 319.624 121.115 318.996 121.9L308.925 134.5C308.509 135.022 308.78 135.813 309.422 135.948L315.755 137.283L312.473 146.168C312.117 147.13 313.359 147.85 313.973 147.036L323.544 134.341C323.94 133.816 323.664 133.046 323.033 132.913L317.155 131.668L320.479 122.792Z" fill="white"/>
<path fill-rule="evenodd" clip-rule="evenodd" d="M330.756 120.067C338.659 127.992 338.652 140.824 330.735 148.74C322.812 156.664 309.966 156.664 302.042 148.74C294.972 141.67 294.211 130.679 299.759 122.764L297.26 122.911C296.446 122.959 295.748 122.338 295.7 121.525C295.652 120.711 296.273 120.013 297.086 119.965L302.999 119.617C303.744 119.574 304.404 120.092 304.537 120.826L305.581 126.565C305.727 127.367 305.195 128.135 304.393 128.281C303.591 128.427 302.823 127.895 302.677 127.093L302.194 124.433C297.435 131.198 298.08 140.605 304.129 146.653C310.9 153.424 321.878 153.424 328.649 146.653C335.419 139.882 335.419 128.905 328.649 122.134C328.635 122.12 328.621 122.106 328.608 122.091C326.615 119.932 320.2 115.729 311.349 117.481C310.55 117.639 309.773 117.119 309.615 116.32C309.457 115.52 309.977 114.744 310.776 114.586C320.786 112.605 328.18 117.295 330.756 120.067Z" fill="white"/>
<rect x="315" y="179" width="228" height="64" rx="32" fill="url(#paint5_linear)"/>
<path d="M398.149 227V194.96H394.909L388.924 200.135V203.825L394.909 198.56V227H398.149ZM428.005 218.18C428.005 214.445 425.935 211.925 423.235 210.395C425.755 208.955 427.375 206.615 427.375 203.285C427.375 198.29 423.64 194.69 418.555 194.69C413.47 194.69 409.735 198.29 409.735 203.285C409.735 206.615 411.4 208.955 413.92 210.395C411.22 211.925 409.105 214.445 409.105 218.18C409.105 223.58 413.245 227.27 418.555 227.27C423.865 227.27 428.005 223.58 428.005 218.18ZM424.765 218.135C424.765 221.69 422.065 224.39 418.555 224.39C415.045 224.39 412.345 221.69 412.345 218.135C412.345 214.58 415.045 211.88 418.555 211.88C422.065 211.88 424.765 214.58 424.765 218.135ZM424.135 203.33C424.135 206.705 421.84 209.045 418.555 209.045C415.27 209.045 412.975 206.705 412.975 203.33C412.975 200 415.27 197.57 418.555 197.57C421.84 197.57 424.135 200 424.135 203.33ZM439.725 213.455V209.225H435.495V213.455H439.725ZM439.725 227V222.77H435.495V227H439.725ZM464.2 218.45V203.51C464.2 198.2 460.42 194.69 455.425 194.69C450.385 194.69 446.65 198.2 446.65 203.51V218.45C446.65 223.76 450.385 227.27 455.425 227.27C460.42 227.27 464.2 223.76 464.2 218.45ZM460.96 218.27C460.96 221.78 458.98 224.39 455.425 224.39C451.87 224.39 449.89 221.78 449.89 218.27V203.69C449.89 200.18 451.87 197.57 455.425 197.57C458.98 197.57 460.96 200.18 460.96 203.69V218.27ZM487.89 218.27C487.89 214.265 486.225 211.655 482.985 210.44C485.865 209.135 487.305 206.705 487.305 203.33C487.305 198.11 483.705 194.645 478.485 194.645C473.625 194.645 469.845 197.705 469.485 202.88H472.725C473.04 199.595 475.11 197.525 478.485 197.525C481.59 197.525 484.065 199.55 484.065 203.375C484.065 206.975 482.265 209.18 478.35 209.18H477.675V212.015H478.35C482.715 212.015 484.65 214.355 484.65 218.225C484.65 222.14 481.95 224.435 478.485 224.435C475.425 224.435 472.59 222.86 472.32 218.855H469.08C469.35 224.66 473.445 227.315 478.485 227.315C483.705 227.315 487.89 224.165 487.89 218.27Z" fill="white"/>
<path fill-rule="evenodd" clip-rule="evenodd" d="M363.746 231.495C369.131 231.495 373.497 227.124 373.497 221.733C373.497 216.342 369.131 211.971 363.746 211.971C358.36 211.971 353.994 216.342 353.994 221.733C353.994 227.124 358.36 231.495 363.746 231.495ZM363.746 234C370.514 234 376 228.508 376 221.733C376 214.958 370.514 209.466 363.746 209.466C356.978 209.466 351.492 214.958 351.492 221.733C351.492 228.508 356.978 234 363.746 234Z" fill="white"/>
<path fill-rule="evenodd" clip-rule="evenodd" d="M341.171 197.891H366.075C366.996 197.891 367.743 198.639 367.743 199.561V210.134C368.628 210.439 369.466 210.843 370.246 211.332V199.561C370.246 197.255 368.378 195.386 366.075 195.386H341.171C338.867 195.386 337 197.255 337 199.561V224.491C337 226.797 338.867 228.667 341.171 228.667H353.636C353.104 227.891 352.659 227.051 352.315 226.161H341.171C340.25 226.161 339.503 225.414 339.503 224.491V199.561C339.503 198.639 340.25 197.891 341.171 197.891Z" fill="white"/>
<path fill-rule="evenodd" clip-rule="evenodd" d="M353.623 192C354.314 192 354.874 192.561 354.874 193.253V200.079C354.874 200.771 354.314 201.332 353.623 201.332C352.932 201.332 352.372 200.771 352.372 200.079V193.253C352.372 192.561 352.932 192 353.623 192Z" fill="white"/>
<path fill-rule="evenodd" clip-rule="evenodd" d="M342.967 192C343.658 192 344.218 192.561 344.218 193.253V200.079C344.218 200.771 343.658 201.332 342.967 201.332C342.276 201.332 341.716 200.771 341.716 200.079V193.253C341.716 192.561 342.276 192 342.967 192Z" fill="white"/>
<path fill-rule="evenodd" clip-rule="evenodd" d="M364.279 192C364.97 192 365.53 192.561 365.53 193.253V200.079C365.53 200.771 364.97 201.332 364.279 201.332C363.588 201.332 363.027 200.771 363.027 200.079V193.253C363.027 192.561 363.588 192 364.279 192Z" fill="white"/>
<path fill-rule="evenodd" clip-rule="evenodd" d="M369.074 205.279H337.959V202.773H369.074V205.279Z" fill="white"/>
<path fill-rule="evenodd" clip-rule="evenodd" d="M354.308 207.945H353.151C352.691 207.945 352.317 208.319 352.317 208.78V209.938C352.317 210.4 352.691 210.774 353.151 210.774H354.308C354.769 210.774 355.142 210.4 355.142 209.938V208.78C355.142 208.319 354.769 207.945 354.308 207.945ZM353.151 206.693C351.999 206.693 351.066 207.627 351.066 208.78V209.938C351.066 211.091 351.999 212.026 353.151 212.026H354.308C355.46 212.026 356.394 211.091 356.394 209.938V208.78C356.394 207.627 355.46 206.693 354.308 206.693H353.151Z" fill="white"/>
<path fill-rule="evenodd" clip-rule="evenodd" d="M345.996 207.945H344.84C344.379 207.945 344.005 208.319 344.005 208.78V209.938C344.005 210.4 344.379 210.774 344.84 210.774H345.996C346.457 210.774 346.831 210.4 346.831 209.938V208.78C346.831 208.319 346.457 207.945 345.996 207.945ZM344.84 206.693C343.688 206.693 342.754 207.627 342.754 208.78V209.938C342.754 211.091 343.688 212.026 344.84 212.026H345.996C347.148 212.026 348.082 211.091 348.082 209.938V208.78C348.082 207.627 347.148 206.693 345.996 206.693H344.84Z" fill="white"/>
<path fill-rule="evenodd" clip-rule="evenodd" d="M345.996 214.132H344.84C344.379 214.132 344.005 214.506 344.005 214.967V216.125C344.005 216.586 344.379 216.96 344.84 216.96H345.996C346.457 216.96 346.831 216.586 346.831 216.125V214.967C346.831 214.506 346.457 214.132 345.996 214.132ZM344.84 212.88C343.688 212.88 342.754 213.814 342.754 214.967V216.125C342.754 217.278 343.688 218.213 344.84 218.213H345.996C347.148 218.213 348.082 217.278 348.082 216.125V214.967C348.082 213.814 347.148 212.88 345.996 212.88H344.84Z" fill="white"/>
<path fill-rule="evenodd" clip-rule="evenodd" d="M345.996 220.319H344.84C344.379 220.319 344.005 220.693 344.005 221.154V222.312C344.005 222.773 344.379 223.147 344.84 223.147H345.996C346.457 223.147 346.831 222.773 346.831 222.312V221.154C346.831 220.693 346.457 220.319 345.996 220.319ZM344.84 219.066C343.688 219.066 342.754 220.001 342.754 221.154V222.312C342.754 223.465 343.688 224.4 344.84 224.4H345.996C347.148 224.4 348.082 223.465 348.082 222.312V221.154C348.082 220.001 347.148 219.066 345.996 219.066H344.84Z" fill="white"/>
<path fill-rule="evenodd" clip-rule="evenodd" d="M363.852 213.76C364.544 213.76 365.104 214.321 365.104 215.013L365.104 221.626C365.104 222.318 364.544 222.879 363.852 222.879C363.161 222.879 362.601 222.318 362.601 221.626L362.601 215.013C362.601 214.321 363.161 213.76 363.852 213.76Z" fill="white"/>
<path fill-rule="evenodd" clip-rule="evenodd" d="M369.579 221.626C369.579 222.318 369.019 222.879 368.328 222.879H363.852C363.161 222.879 362.601 222.318 362.601 221.626C362.601 220.935 363.161 220.374 363.852 220.374H368.328C369.019 220.374 369.579 220.935 369.579 221.626Z" fill="white"/>
<path opacity="0.61" d="M808.709 93.4576L830.907 106.274L831.825 104.684L830.686 98.6637L828.785 97.5657L830.017 103.64L809.627 91.8676L808.709 93.4576ZM804.243 117.969C806.332 119.175 808.765 120.288 811.273 119.616C812.699 119.234 813.856 118.239 814.774 116.649C815.836 114.81 816.085 113.083 815.551 111.486L823.408 116.022L818.062 125.282L819.465 126.092L825.621 115.429L814.273 108.877L813.463 110.28C814.689 111.612 814.649 113.626 813.479 115.652C811.391 119.269 807.936 117.981 805.161 116.379C803.478 115.407 801.532 114.242 800.978 112.176C800.675 111.045 800.918 109.689 801.62 108.473C803.132 105.854 805.174 105.412 807.742 106.437L808.66 104.847C807.06 104.09 805.556 103.887 804.179 104.256C802.624 104.646 801.279 105.823 800.217 107.663C799.191 109.44 798.893 111.18 799.341 112.852C800.013 115.36 802.123 116.745 804.243 117.969ZM792.305 121.87L794.612 123.202L795.944 120.895L793.637 119.563L792.305 121.87ZM802.032 127.486L804.339 128.818L805.671 126.511L803.364 125.179L802.032 127.486ZM782.513 138.83L783.916 139.64L789.604 129.789L795.679 144.395C796.496 146.363 797.416 147.434 799.068 148.388C802.56 150.404 806.23 149.447 808.282 145.893C810.388 142.246 809.141 138.574 805.836 136.666L804.918 138.256C808.036 140.056 808.211 142.776 806.879 145.083C805.313 147.796 802.636 148.328 799.986 146.798C798.708 146.06 797.864 145.074 797.245 143.553L790.702 127.887L789.299 127.077L782.513 138.83ZM773.267 154.845L774.67 155.655L780.358 145.803L786.433 160.41C787.25 162.378 788.17 163.449 789.822 164.403C793.314 166.419 796.984 165.462 799.036 161.908C801.142 158.26 799.895 154.589 796.59 152.681L795.672 154.271C798.79 156.071 798.965 158.791 797.633 161.098C796.067 163.81 793.39 164.343 790.74 162.813C789.462 162.075 788.618 161.089 787.999 159.568L781.456 143.901L780.053 143.091L773.267 154.845Z" fill="white"/>
</g>
<defs>
<filter id="filter0_b" x="-20" y="-18.8169" width="1120" height="1118.82" filterUnits="userSpaceOnUse" color-interpolation-filters="sRGB">
<feFlood flood-opacity="0" result="BackgroundImageFix"/>
<feGaussianBlur in="BackgroundImage" stdDeviation="10"/>
<feComposite in2="SourceAlpha" operator="in" result="effect1_backgroundBlur"/>
<feBlend mode="normal" in="SourceGraphic" in2="effect1_backgroundBlur" result="shape"/>
</filter>
<filter id="filter1_b" x="-20" y="-18.8164" width="1120" height="1118.82" filterUnits="userSpaceOnUse" color-interpolation-filters="sRGB">
<feFlood flood-opacity="0" result="BackgroundImageFix"/>
<feGaussianBlur in="BackgroundImage" stdDeviation="10"/>
<feComposite in2="SourceAlpha" operator="in" result="effect1_backgroundBlur"/>
<feBlend mode="normal" in="SourceGraphic" in2="effect1_backgroundBlur" result="shape"/>
</filter>
<radialGradient id="paint0_radial" cx="0" cy="0" r="1" gradientUnits="userSpaceOnUse" gradientTransform="translate(539.93 539.952) rotate(87.7554) scale(537.96 473.242)">
<stop offset="0.395478" stop-color="#F4E696"/>
<stop offset="0.732477" stop-color="#F4E696" stop-opacity="0"/>
</radialGradient>
<radialGradient id="paint1_radial" cx="0" cy="0" r="1" gradientUnits="userSpaceOnUse" gradientTransform="translate(536.5 552) rotate(89.5659) scale(528.015 442.966)">
<stop offset="0.391621" stop-color="#75C7CC"/>
<stop offset="1" stop-color="#75C7CC" stop-opacity="0"/>
</radialGradient>
<radialGradient id="paint2_angular" cx="0" cy="0" r="1" gradientUnits="userSpaceOnUse" gradientTransform="translate(540 540.592) rotate(-90) scale(539.592 540.183)">
<stop offset="0.00837803" stop-opacity="0"/>
<stop offset="0.746255" stop-opacity="0"/>
<stop offset="0.84811" stop-opacity="0.7"/>
<stop offset="0.993528"/>
</radialGradient>
<linearGradient id="paint3_linear" x1="364" y1="777" x2="502" y2="915" gradientUnits="userSpaceOnUse">
<stop stop-color="#E24C3A"/>
<stop offset="1" stop-color="#E24C3A" stop-opacity="0.5"/>
</linearGradient>
<linearGradient id="paint4_linear" x1="281" y1="102" x2="503" y2="166" gradientUnits="userSpaceOnUse">
<stop stop-color="#E24C3A"/>
<stop offset="1" stop-color="#E24C3A" stop-opacity="0.5"/>
</linearGradient>
<linearGradient id="paint5_linear" x1="315" y1="179" x2="508.596" y2="226.659" gradientUnits="userSpaceOnUse">
<stop stop-color="#E24C3A"/>
<stop offset="1" stop-color="#E24C3A" stop-opacity="0.5"/>
</linearGradient>
</defs>
</svg>
