<svg width="1080" height="1080" viewBox="0 0 1080 1080" fill="none" xmlns="http://www.w3.org/2000/svg">
<path d="M540 1080C521.561 1080 503.134 1079.07 484.789 1077.21C466.791 1075.38 448.896 1072.65 431.171 1069.03C413.779 1065.47 396.371 1060.99 379.421 1055.72C362.676 1050.51 345.983 1044.4 329.808 1037.56C313.79 1030.79 297.908 1023.14 282.608 1014.83C267.419 1006.57 252.439 997.474 238.084 987.776C223.808 978.131 209.821 967.676 196.513 956.69C183.243 945.739 170.341 934.013 158.166 921.837C145.991 909.661 134.266 896.763 123.313 883.49C112.329 870.18 101.87 856.19 92.2271 841.919C82.5271 827.568 73.427 812.589 65.178 797.396C56.864 782.09 49.213 766.208 42.439 750.196C35.601 734.028 29.492 717.336 24.281 700.583C19.012 683.644 14.535 666.232 10.975 648.832C7.35327 631.107 4.6222 613.212 2.79199 595.214C0.933885 576.868 0.00204291 558.44 0 540C0.000838709 521.561 0.931317 503.133 2.78796 484.788C4.61811 466.79 7.34918 448.895 10.9709 431.171C14.5319 413.771 19.009 396.359 24.277 379.42C29.488 362.667 35.5971 345.975 42.4351 329.808C49.2101 313.79 56.861 297.908 65.174 282.608C73.4249 267.418 82.526 252.438 92.223 238.084C101.871 223.803 112.33 209.817 123.309 196.513C134.264 183.239 145.99 170.337 158.162 158.166C170.334 145.995 183.239 134.266 196.509 123.313C209.809 112.335 223.798 101.876 238.08 92.227C252.427 82.534 267.407 73.433 282.604 65.178C297.904 56.864 313.789 49.213 329.804 42.439C345.973 35.6 362.665 29.49 379.417 24.281C396.363 19.01 413.774 14.533 431.167 10.974C448.892 7.35165 466.787 4.62057 484.785 2.79102C491.118 2.14802 497.585 1.60798 503.996 1.19098V329.024C501.621 329.424 499.223 329.873 496.868 330.355C483.099 333.176 469.644 337.352 456.698 342.824C443.972 348.212 431.798 354.82 420.346 362.555C408.982 370.238 398.377 378.988 388.675 388.686C378.977 398.388 370.227 408.993 362.544 420.357C354.809 431.809 348.202 443.983 342.813 456.708C337.341 469.654 333.164 483.109 330.343 496.878C327.451 511.07 325.996 525.517 326 540C325.996 554.486 327.453 568.935 330.347 583.128C333.168 596.897 337.345 610.353 342.817 623.299C348.206 636.024 354.813 648.198 362.548 659.65C370.231 671.014 378.981 681.619 388.679 691.321C398.381 701.019 408.986 709.77 420.35 717.453C431.801 725.188 443.975 731.795 456.7 737.183C469.646 742.655 483.101 746.832 496.87 749.652C511.064 752.547 525.514 754.003 540 754C554.486 754.003 568.935 752.546 583.129 749.652C596.898 746.832 610.354 742.655 623.3 737.183C636.025 731.795 648.199 725.187 659.65 717.452C671.015 709.769 681.62 701.019 691.322 691.32C701.02 681.618 709.77 671.013 717.453 659.649C725.188 648.198 731.795 636.025 737.184 623.3C742.656 610.354 746.833 596.898 749.654 583.129C752.548 568.935 754.004 554.486 754 540C754.003 525.514 752.547 511.065 749.653 496.871C746.832 483.102 742.655 469.647 737.183 456.701C731.795 443.976 725.187 431.802 717.452 420.35C709.769 408.986 701.019 398.381 691.321 388.679C681.619 378.981 671.014 370.231 659.649 362.548C648.198 354.813 636.025 348.205 623.3 342.817C610.354 337.345 596.899 333.169 583.13 330.348C580.774 329.866 578.376 329.418 576.001 329.017V1.18298C582.426 1.60498 588.89 2.14502 595.213 2.78302C613.211 4.6126 631.106 7.34368 648.83 10.966C666.23 14.526 683.643 19.003 700.581 24.273C717.334 29.484 734.026 35.593 750.194 42.431C766.213 49.206 782.094 56.857 797.394 65.17C812.585 73.422 827.565 82.522 841.917 92.219C856.199 101.867 870.185 112.326 883.488 123.305C896.765 134.262 909.667 145.988 921.835 158.158C934.003 170.328 945.735 183.234 956.688 196.505C967.67 209.813 978.129 223.8 987.774 238.076C997.467 252.423 1006.57 267.404 1014.82 282.6C1023.14 297.907 1030.79 313.789 1037.56 329.8C1044.4 345.962 1050.51 362.654 1055.72 379.412C1060.99 396.35 1065.47 413.762 1069.03 431.163C1072.65 448.887 1075.38 466.782 1077.21 484.78C1079.07 503.128 1080 521.558 1080 540C1080 558.439 1079.07 576.866 1077.21 595.211C1075.38 613.209 1072.65 631.104 1069.03 648.829C1065.47 666.229 1060.99 683.64 1055.72 700.58C1050.51 717.33 1044.4 734.022 1037.56 750.193C1030.79 766.205 1023.14 782.087 1014.83 797.393C1006.57 812.593 997.468 827.572 987.777 841.916C978.124 856.203 967.665 870.19 956.691 883.487C945.738 896.758 934.011 909.66 921.838 921.834C909.665 934.008 896.766 945.734 883.491 956.687C870.191 967.664 856.204 978.123 841.92 987.773C827.575 997.464 812.595 1006.57 797.397 1014.82C782.09 1023.14 766.208 1030.79 750.197 1037.56C734.023 1044.4 717.33 1050.51 700.584 1055.72C683.636 1060.99 666.225 1065.47 648.833 1069.03C631.109 1072.65 613.214 1075.38 595.216 1077.21C576.869 1079.07 558.441 1080 540 1080Z" fill="black"/>
<mask id="mask0" mask-type="alpha" maskUnits="userSpaceOnUse" x="0" y="1" width="1080" height="1079">
<path d="M540 1080C521.561 1080 503.134 1079.07 484.789 1077.21C466.791 1075.38 448.896 1072.65 431.171 1069.03C413.779 1065.47 396.371 1060.99 379.421 1055.72C362.676 1050.51 345.983 1044.4 329.808 1037.56C313.79 1030.79 297.908 1023.14 282.608 1014.83C267.419 1006.57 252.439 997.474 238.084 987.776C223.808 978.131 209.821 967.676 196.513 956.69C183.243 945.739 170.341 934.013 158.166 921.837C145.991 909.661 134.266 896.763 123.313 883.49C112.329 870.18 101.87 856.19 92.2271 841.919C82.5271 827.568 73.427 812.589 65.178 797.396C56.864 782.09 49.213 766.208 42.439 750.196C35.601 734.028 29.492 717.336 24.281 700.583C19.012 683.644 14.535 666.232 10.975 648.832C7.35327 631.107 4.6222 613.212 2.79199 595.214C0.933885 576.868 0.00204291 558.44 0 540C0.000838709 521.561 0.931317 503.133 2.78796 484.788C4.61811 466.79 7.34918 448.895 10.9709 431.171C14.5319 413.771 19.009 396.359 24.277 379.42C29.488 362.667 35.5971 345.975 42.4351 329.808C49.2101 313.79 56.861 297.908 65.174 282.608C73.4249 267.418 82.526 252.438 92.223 238.084C101.871 223.803 112.33 209.817 123.309 196.513C134.264 183.239 145.99 170.337 158.162 158.166C170.334 145.995 183.239 134.266 196.509 123.313C209.809 112.335 223.798 101.876 238.08 92.227C252.427 82.534 267.407 73.433 282.604 65.178C297.904 56.864 313.789 49.213 329.804 42.439C345.973 35.6 362.665 29.49 379.417 24.281C396.363 19.01 413.774 14.533 431.167 10.974C448.892 7.35165 466.787 4.62057 484.785 2.79102C491.118 2.14802 497.585 1.60798 503.996 1.19098V329.024C501.621 329.424 499.223 329.873 496.868 330.355C483.099 333.176 469.644 337.352 456.698 342.824C443.972 348.212 431.798 354.82 420.346 362.555C408.982 370.238 398.377 378.988 388.675 388.686C378.977 398.388 370.227 408.993 362.544 420.357C354.809 431.809 348.202 443.983 342.813 456.708C337.341 469.654 333.164 483.109 330.343 496.878C327.451 511.07 325.996 525.517 326 540C325.996 554.486 327.453 568.935 330.347 583.128C333.168 596.897 337.345 610.353 342.817 623.299C348.206 636.024 354.813 648.198 362.548 659.65C370.231 671.014 378.981 681.619 388.679 691.321C398.381 701.019 408.986 709.77 420.35 717.453C431.801 725.188 443.975 731.795 456.7 737.183C469.646 742.655 483.101 746.832 496.87 749.652C511.064 752.547 525.514 754.003 540 754C554.486 754.003 568.935 752.546 583.129 749.652C596.898 746.832 610.354 742.655 623.3 737.183C636.025 731.795 648.199 725.187 659.65 717.452C671.015 709.769 681.62 701.019 691.322 691.32C701.02 681.618 709.77 671.013 717.453 659.649C725.188 648.198 731.795 636.025 737.184 623.3C742.656 610.354 746.833 596.898 749.654 583.129C752.548 568.935 754.004 554.486 754 540C754.003 525.514 752.547 511.065 749.653 496.871C746.832 483.102 742.655 469.647 737.183 456.701C731.795 443.976 725.187 431.802 717.452 420.35C709.769 408.986 701.019 398.381 691.321 388.679C681.619 378.981 671.014 370.231 659.649 362.548C648.198 354.813 636.025 348.205 623.3 342.817C610.354 337.345 596.899 333.169 583.13 330.348C580.774 329.866 578.376 329.418 576.001 329.017V1.18298C582.426 1.60498 588.89 2.14502 595.213 2.78302C613.211 4.6126 631.106 7.34368 648.83 10.966C666.23 14.526 683.643 19.003 700.581 24.273C717.334 29.484 734.026 35.593 750.194 42.431C766.213 49.206 782.094 56.857 797.394 65.17C812.585 73.422 827.565 82.522 841.917 92.219C856.199 101.867 870.185 112.326 883.488 123.305C896.765 134.262 909.667 145.988 921.835 158.158C934.003 170.328 945.735 183.234 956.688 196.505C967.67 209.813 978.129 223.8 987.774 238.076C997.467 252.423 1006.57 267.404 1014.82 282.6C1023.14 297.907 1030.79 313.789 1037.56 329.8C1044.4 345.962 1050.51 362.654 1055.72 379.412C1060.99 396.35 1065.47 413.762 1069.03 431.163C1072.65 448.887 1075.38 466.782 1077.21 484.78C1079.07 503.128 1080 521.558 1080 540C1080 558.439 1079.07 576.866 1077.21 595.211C1075.38 613.209 1072.65 631.104 1069.03 648.829C1065.47 666.229 1060.99 683.64 1055.72 700.58C1050.51 717.33 1044.4 734.022 1037.56 750.193C1030.79 766.205 1023.14 782.087 1014.83 797.393C1006.57 812.593 997.468 827.572 987.777 841.916C978.124 856.203 967.665 870.19 956.691 883.487C945.738 896.758 934.011 909.66 921.838 921.834C909.665 934.008 896.766 945.734 883.491 956.687C870.191 967.664 856.204 978.123 841.92 987.773C827.575 997.464 812.595 1006.57 797.397 1014.82C782.09 1023.14 766.208 1030.79 750.197 1037.56C734.023 1044.4 717.33 1050.51 700.584 1055.72C683.636 1060.99 666.225 1065.47 648.833 1069.03C631.109 1072.65 613.214 1075.38 595.216 1077.21C576.869 1079.07 558.441 1080 540 1080Z" fill="black"/>
</mask>
<g mask="url(#mask0)">
<path opacity="0.8" d="M537.207 270.285C537.207 270.285 630.87 252.16 660.387 276.499C689.904 300.838 689.45 379.03 742.495 428.226C795.54 477.422 784.149 591.344 775.346 609.987C766.543 628.63 728.746 763.787 642.262 761.714C555.778 759.641 492.607 803.14 470.336 811.427C448.065 819.714 416.48 820.746 378.678 782.427C340.876 744.108 292.2 710.964 297.378 661.769C302.556 612.574 305.771 452.562 305.771 452.562C305.771 452.562 288.057 347.442 375.571 314.299C463.085 281.156 537.204 307.567 537.204 307.567L537.207 270.285Z" fill="url(#paint0_radial)"/>
<path opacity="0.8" d="M537.207 270.285C537.207 270.285 630.87 252.16 660.387 276.499C689.904 300.838 689.45 379.03 742.495 428.226C795.54 477.422 784.149 591.344 775.346 609.987C766.543 628.63 728.746 763.787 642.262 761.714C555.778 759.641 492.607 803.14 470.336 811.427C448.065 819.714 416.48 820.746 378.678 782.427C340.876 744.108 292.2 710.964 297.378 661.769C302.556 612.574 305.771 452.562 305.771 452.562C305.771 452.562 288.057 347.442 375.571 314.299C463.085 281.156 537.204 307.567 537.204 307.567L537.207 270.285Z" stroke="#F8E999" stroke-width="2"/>
<path opacity="0.8" d="M767.535 656.186C738.019 577.473 852.235 381.286 804.4 315.226C770.979 269.07 631.689 330.385 582.333 332.498C679.759 351.898 753.19 437.871 753.19 540.998C753.19 658.421 658.001 753.61 540.578 753.61C423.155 753.61 327.967 658.425 327.967 541.002C327.967 423.579 423.156 328.392 540.581 328.392V257C540.581 257 567.681 266.166 482.645 286.547C397.609 306.928 339.535 352.579 338.135 385.612C336.735 418.645 282.099 628.001 375.571 675.092C469.043 722.183 469.913 781.63 570.054 821.347C803.976 914.117 797.056 734.899 767.535 656.186Z" fill="url(#paint1_radial)"/>
<path opacity="0.8" d="M767.535 656.186C738.019 577.473 852.235 381.286 804.4 315.226C770.979 269.07 631.689 330.385 582.333 332.498C679.759 351.898 753.19 437.871 753.19 540.998C753.19 658.421 658.001 753.61 540.578 753.61C423.155 753.61 327.967 658.425 327.967 541.002C327.967 423.579 423.156 328.392 540.581 328.392V257C540.581 257 567.681 266.166 482.645 286.547C397.609 306.928 339.535 352.579 338.135 385.612C336.735 418.645 282.099 628.001 375.571 675.092C469.043 722.183 469.913 781.63 570.054 821.347C803.976 914.117 797.056 734.899 767.535 656.186Z" stroke="#82C8CF" stroke-width="2"/>
<path opacity="0.61" d="M604.642 88.873L678.684 89.7944L678.75 84.4908L667.374 70.9322L661.03 70.8533L672.718 84.4158L604.708 83.5694L604.642 88.873ZM603.801 156.434L608.481 156.492L608.89 123.63L644.837 151.848C649.678 155.652 653.509 157.052 659.021 157.121C670.668 157.266 678.563 149.667 678.71 137.812C678.862 125.645 670.53 118.157 659.507 118.02L659.441 123.323C669.84 123.453 674.127 130.059 674.031 137.754C673.918 146.801 667.926 151.927 659.087 151.817C654.823 151.764 651.303 150.472 647.595 147.514L608.968 117.287L604.289 117.229L603.801 156.434ZM603.462 183.645L611.158 183.741L611.253 176.046L603.558 175.95L603.462 183.645ZM635.908 184.049L643.603 184.145L643.699 176.45L636.004 176.354L635.908 184.049ZM621.899 239.934L657.672 240.38C669.216 240.523 677.531 232.618 677.673 221.179C677.815 209.74 669.7 201.63 658.157 201.487L622.383 201.041C610.84 200.898 602.525 208.803 602.383 220.242C602.24 231.681 610.356 239.791 621.899 239.934ZM622.485 234.637C613.75 234.529 606.947 229.556 607.062 220.3C607.178 211.045 614.102 206.243 622.837 206.351L657.571 206.784C666.306 206.892 673.109 211.865 672.993 221.121C672.878 230.376 665.954 235.178 657.219 235.07L622.485 234.637ZM622.046 295.026C630.677 295.134 636.87 290.634 640.701 283.61C644.257 290.414 649.831 293.812 657.422 293.906C668.238 294.041 676.865 286.14 677.008 274.597C677.152 263.054 668.724 254.94 657.909 254.805C650.318 254.711 644.658 258.177 640.935 264.787C637.28 257.669 631.202 252.913 622.571 252.806C610.716 252.658 601.867 261.701 601.718 273.66C601.569 285.619 610.191 294.879 622.046 295.026ZM622.112 289.723C612.96 289.609 606.286 282.661 606.398 273.718C606.509 264.775 613.354 257.995 622.505 258.109C631.552 258.222 638.434 265.172 638.323 274.115C638.212 283.059 631.159 289.835 622.112 289.723ZM657.488 288.603C648.857 288.495 642.898 282.597 643.003 274.174C643.108 265.75 649.212 260.002 657.843 260.109C666.474 260.217 672.433 266.115 672.329 274.538C672.224 282.962 666.12 288.71 657.488 288.603Z" fill="white"/>
<g filter="url(#filter0_b)">
<path d="M540 1080C521.561 1080 503.134 1079.07 484.789 1077.21C466.791 1075.38 448.896 1072.65 431.171 1069.03C413.779 1065.47 396.371 1060.99 379.421 1055.72C362.676 1050.51 345.983 1044.41 329.808 1037.56C313.79 1030.79 297.908 1023.14 282.608 1014.83C267.419 1006.57 252.439 997.474 238.084 987.776C223.808 978.131 209.821 967.676 196.513 956.69C183.243 945.739 170.341 934.013 158.166 921.837C145.991 909.661 134.266 896.763 123.313 883.49C112.329 870.18 101.87 856.19 92.2271 841.919C82.5271 827.568 73.427 812.589 65.178 797.396C56.864 782.09 49.213 766.208 42.439 750.196C35.601 734.028 29.492 717.336 24.281 700.583C19.012 683.644 14.535 666.232 10.975 648.832C7.35327 631.107 4.6222 613.212 2.79199 595.214C0.933885 576.868 0.00204291 558.44 0 540C0.000838709 521.561 0.931317 503.134 2.78796 484.788C4.61811 466.79 7.34918 448.896 10.9709 431.171C14.5319 413.771 19.009 396.359 24.277 379.42C29.488 362.667 35.5971 345.975 42.4351 329.808C49.2101 313.79 56.861 297.908 65.174 282.608C73.4249 267.418 82.526 252.438 92.223 238.084C101.871 223.803 112.33 209.817 123.309 196.513C134.264 183.239 145.99 170.337 158.162 158.166C170.334 145.995 183.239 134.266 196.509 123.313C209.809 112.335 223.798 101.876 238.08 92.2271C252.427 82.5341 267.407 73.4331 282.604 65.1781C297.904 56.8641 313.789 49.2132 329.804 42.4391C345.973 35.6001 362.665 29.4901 379.417 24.2811C396.363 19.0101 413.774 14.5331 431.167 10.9741C448.892 7.35177 466.787 4.62069 484.785 2.79114C491.118 2.14814 497.585 1.6081 503.996 1.1911V329.024C501.621 329.424 499.223 329.873 496.868 330.355C483.099 333.176 469.644 337.352 456.698 342.824C443.972 348.212 431.798 354.82 420.346 362.555C408.982 370.238 398.377 378.988 388.675 388.686C378.977 398.388 370.227 408.993 362.544 420.357C354.809 431.809 348.202 443.983 342.813 456.708C337.341 469.654 333.164 483.109 330.343 496.878C327.451 511.07 325.996 525.517 326 540C325.996 554.486 327.453 568.935 330.347 583.128C333.168 596.897 337.345 610.353 342.817 623.299C348.206 636.024 354.813 648.198 362.548 659.65C370.231 671.015 378.981 681.62 388.679 691.321C398.381 701.02 408.986 709.77 420.35 717.453C431.801 725.188 443.975 731.796 456.7 737.183C469.646 742.655 483.101 746.832 496.87 749.652C511.064 752.547 525.514 754.003 540 754C554.486 754.003 568.935 752.547 583.129 749.652C596.898 746.832 610.354 742.655 623.3 737.183C636.025 731.795 648.199 725.187 659.65 717.452C671.015 709.769 681.62 701.019 691.322 691.32C701.02 681.618 709.77 671.013 717.453 659.649C725.188 648.198 731.795 636.025 737.184 623.3C742.656 610.354 746.833 596.898 749.654 583.129C752.548 568.935 754.004 554.486 754 540C754.003 525.514 752.547 511.065 749.653 496.871C746.832 483.103 742.655 469.647 737.183 456.701C731.795 443.976 725.187 431.802 717.452 420.35C709.769 408.986 701.019 398.381 691.321 388.679C681.619 378.981 671.014 370.231 659.649 362.548C648.198 354.813 636.025 348.205 623.3 342.817C610.354 337.345 596.899 333.169 583.13 330.348C580.774 329.866 578.376 329.418 576.001 329.017V1.18311C582.426 1.60511 588.89 2.14514 595.213 2.78314C613.211 4.61272 631.106 7.3438 648.83 10.9661C666.23 14.5261 683.643 19.0031 700.581 24.2731C717.334 29.4841 734.026 35.5932 750.194 42.4312C766.213 49.2062 782.094 56.8571 797.394 65.1701C812.585 73.4221 827.565 82.5221 841.917 92.2191C856.199 101.867 870.185 112.326 883.488 123.305C896.765 134.262 909.667 145.988 921.835 158.158C934.003 170.328 945.735 183.234 956.688 196.505C967.67 209.813 978.129 223.8 987.774 238.076C997.467 252.423 1006.57 267.404 1014.82 282.6C1023.14 297.907 1030.79 313.789 1037.56 329.8C1044.4 345.962 1050.51 362.654 1055.72 379.412C1060.99 396.35 1065.47 413.762 1069.03 431.163C1072.65 448.888 1075.38 466.782 1077.21 484.78C1079.07 503.128 1080 521.558 1080 540C1080 558.439 1079.07 576.866 1077.21 595.211C1075.38 613.209 1072.65 631.104 1069.03 648.829C1065.47 666.229 1060.99 683.64 1055.72 700.58C1050.51 717.33 1044.4 734.022 1037.56 750.193C1030.79 766.205 1023.14 782.087 1014.83 797.393C1006.57 812.593 997.468 827.572 987.777 841.916C978.124 856.203 967.665 870.19 956.691 883.487C945.738 896.758 934.011 909.66 921.838 921.834C909.665 934.008 896.766 945.734 883.491 956.687C870.191 967.664 856.204 978.123 841.92 987.773C827.575 997.464 812.595 1006.57 797.397 1014.82C782.09 1023.14 766.208 1030.79 750.197 1037.56C734.023 1044.4 717.33 1050.51 700.584 1055.72C683.636 1060.99 666.225 1065.47 648.833 1069.03C631.109 1072.65 613.214 1075.38 595.216 1077.21C576.869 1079.07 558.441 1080 540 1080Z" fill="black" fill-opacity="0.4"/>
</g>
<path d="M310 541C310 668.025 412.975 771 540 771C667.025 771 770 668.025 770 541C770 413.975 667.025 311 540 311" stroke="#B3D898" stroke-width="10" stroke-linecap="round"/>
<path d="M540 796C638.055 796 723.184 740.655 765.852 659.5M540 286C658.369 286 757.901 366.652 786.641 476" stroke="#B3D898" stroke-width="10" stroke-linecap="round"/>
<path d="M820 541C820 386.36 694.64 261 540 261C385.36 261 260 386.36 260 541" stroke="#B3D898" stroke-width="10" stroke-linecap="round"/>
<path d="M540 846C653.305 846 752.18 784.216 804.772 692.5M837.162 472C805.892 336.789 684.716 236 540 236C418.05 236 312.817 307.571 264.013 411" stroke="#B3D898" stroke-width="10" stroke-linecap="round"/>
<path d="M870 541C870 358.746 722.254 211 540 211" stroke="#B3D898" stroke-width="10" stroke-linecap="round"/>
<path d="M615 888.063C726.692 864.041 818.861 787.47 864.357 685.5M881.586 444C860.073 368.095 813.942 302.537 752.367 256.5" stroke="#E24C3A" stroke-width="10" stroke-linecap="round"/>
<path d="M540 921C749.868 921 920 750.868 920 541C920 331.132 749.868 161 540 161" stroke="#E24C3A" stroke-width="10" stroke-linecap="round"/>
<path d="M945 541C945 764.675 763.675 946 540 946C316.325 946 135 764.675 135 541" stroke="#E24C3A" stroke-width="10" stroke-linecap="round"/>
<path d="M85 541C85 289.71 288.71 86 540 86" stroke="#E24C3A" stroke-width="10" stroke-linecap="round"/>
<path d="M540 1021C274.903 1021 60 806.097 60 541" stroke="#E24C3A" stroke-width="10" stroke-linecap="round"/>
<g filter="url(#filter1_b)">
<path d="M540 1080C521.561 1080 503.134 1079.07 484.789 1077.21C466.791 1075.38 448.896 1072.65 431.171 1069.03C413.779 1065.47 396.371 1060.99 379.421 1055.72C362.676 1050.51 345.983 1044.41 329.808 1037.56C313.79 1030.79 297.908 1023.14 282.608 1014.83C267.419 1006.57 252.439 997.475 238.084 987.777C223.808 978.132 209.821 967.677 196.513 956.691C183.243 945.74 170.341 934.014 158.166 921.838C145.991 909.662 134.266 896.764 123.313 883.491C112.329 870.181 101.87 856.191 92.2271 841.92C82.5271 827.569 73.427 812.59 65.178 797.397C56.864 782.091 49.213 766.209 42.439 750.197C35.601 734.029 29.492 717.337 24.281 700.584C19.012 683.645 14.535 666.233 10.975 648.833C7.35327 631.108 4.6222 613.213 2.79199 595.215C0.933885 576.869 0.00204291 558.44 0 540.001C0.000838709 521.561 0.931317 503.134 2.78796 484.789C4.61811 466.791 7.34918 448.896 10.9709 431.172C14.5319 413.772 19.009 396.36 24.277 379.421C29.488 362.668 35.5971 345.976 42.4351 329.809C49.2101 313.791 56.861 297.909 65.174 282.609C73.4249 267.419 82.526 252.439 92.223 238.085C101.871 223.804 112.33 209.818 123.309 196.514C134.264 183.24 145.99 170.338 158.162 158.167C170.334 145.996 183.239 134.267 196.509 123.314C209.809 112.336 223.798 101.877 238.08 92.2276C252.427 82.5346 267.407 73.4336 282.604 65.1786C297.904 56.8646 313.789 49.2136 329.804 42.4396C345.973 35.6006 362.665 29.4906 379.417 24.2816C396.363 19.0106 413.774 14.5336 431.167 10.9746C448.892 7.35226 466.787 4.62118 484.785 2.79163C491.118 2.14863 497.585 1.60859 503.996 1.19159V329.025C501.621 329.425 499.223 329.874 496.868 330.356C483.099 333.176 469.644 337.353 456.698 342.825C443.972 348.212 431.798 354.82 420.346 362.556C408.982 370.238 398.377 378.988 388.675 388.687C378.977 398.388 370.227 408.993 362.544 420.358C354.809 431.81 348.202 443.983 342.813 456.709C337.341 469.654 333.164 483.11 330.343 496.879C327.451 511.07 325.996 525.517 326 540.001C325.996 554.486 327.453 568.935 330.347 583.129C333.168 596.898 337.345 610.354 342.817 623.3C348.206 636.025 354.813 648.199 362.548 659.651C370.231 671.015 378.981 681.62 388.679 691.322C398.381 701.02 408.986 709.77 420.35 717.454C431.801 725.189 443.975 731.796 456.7 737.184C469.646 742.656 483.101 746.832 496.87 749.653C511.064 752.547 525.514 754.004 540 754.001C554.486 754.004 568.935 752.547 583.129 749.653C596.898 746.832 610.354 742.656 623.3 737.184C636.025 731.795 648.199 725.188 659.65 717.453C671.015 709.77 681.62 701.019 691.322 691.321C701.02 681.619 709.77 671.014 717.453 659.65C725.188 648.198 731.795 636.025 737.184 623.301C742.656 610.354 746.833 596.899 749.654 583.13C752.548 568.936 754.004 554.486 754 540.001C754.003 525.515 752.547 511.065 749.653 496.872C746.832 483.103 742.655 469.647 737.183 456.702C731.795 443.976 725.187 431.802 717.452 420.351C709.769 408.986 701.019 398.381 691.321 388.68C681.619 378.981 671.014 370.231 659.649 362.549C648.198 354.814 636.025 348.206 623.3 342.818C610.354 337.346 596.899 333.169 583.13 330.349C580.774 329.867 578.376 329.419 576.001 329.018V1.18359C582.426 1.60559 588.89 2.14563 595.213 2.78363C613.211 4.61321 631.106 7.34429 648.83 10.9666C666.23 14.5266 683.643 19.0036 700.581 24.2736C717.334 29.4846 734.026 35.5936 750.194 42.4316C766.213 49.2066 782.094 56.8576 797.394 65.1706C812.585 73.4226 827.565 82.5226 841.917 92.2196C856.199 101.868 870.185 112.327 883.488 123.306C896.765 134.263 909.667 145.989 921.835 158.159C934.003 170.329 945.735 183.235 956.688 196.506C967.67 209.814 978.129 223.801 987.774 238.077C997.467 252.424 1006.57 267.405 1014.82 282.601C1023.14 297.908 1030.79 313.79 1037.56 329.801C1044.4 345.963 1050.51 362.655 1055.72 379.413C1060.99 396.351 1065.47 413.763 1069.03 431.164C1072.65 448.888 1075.38 466.783 1077.21 484.781C1079.07 503.129 1080 521.559 1080 540.001C1080 558.439 1079.07 576.866 1077.21 595.212C1075.38 613.21 1072.65 631.105 1069.03 648.83C1065.47 666.23 1060.99 683.641 1055.72 700.581C1050.51 717.331 1044.4 734.023 1037.56 750.194C1030.79 766.206 1023.14 782.088 1014.83 797.394C1006.57 812.594 997.468 827.573 987.777 841.917C978.124 856.204 967.665 870.191 956.691 883.488C945.738 896.759 934.011 909.661 921.838 921.835C909.665 934.009 896.766 945.735 883.491 956.688C870.191 967.665 856.204 978.124 841.92 987.774C827.575 997.465 812.595 1006.57 797.397 1014.82C782.09 1023.14 766.208 1030.79 750.197 1037.56C734.023 1044.4 717.33 1050.51 700.584 1055.72C683.636 1060.99 666.225 1065.47 648.833 1069.03C631.109 1072.65 613.214 1075.38 595.216 1077.21C576.869 1079.07 558.441 1080 540 1080Z" fill="black" fill-opacity="0.4"/>
</g>
<path d="M970 541C970 303.518 777.482 111 540 111" stroke="#E24C3A" stroke-width="10" stroke-linecap="round"/>
<line x1="580" y1="567" x2="580" y2="1" stroke="white" stroke-width="8"/>
<path d="M540 1080C521.561 1080 503.134 1079.07 484.789 1077.21C466.791 1075.38 448.896 1072.65 431.171 1069.03C413.779 1065.47 396.371 1060.99 379.421 1055.72C362.676 1050.51 345.983 1044.41 329.808 1037.56C313.79 1030.79 297.908 1023.14 282.608 1014.83C267.419 1006.57 252.439 997.475 238.084 987.777C223.808 978.132 209.821 967.677 196.513 956.691C183.243 945.74 170.341 934.014 158.166 921.838C145.991 909.662 134.266 896.764 123.313 883.491C112.329 870.181 101.87 856.191 92.2271 841.92C82.5271 827.569 73.427 812.59 65.178 797.397C56.864 782.091 49.213 766.209 42.439 750.197C35.601 734.029 29.492 717.337 24.281 700.584C19.012 683.645 14.535 666.233 10.975 648.833C7.35327 631.108 4.6222 613.213 2.79199 595.215C0.933885 576.869 0.00204291 558.44 0 540.001C0.000838709 521.561 0.931317 503.134 2.78796 484.789C4.61811 466.791 7.34918 448.896 10.9709 431.172C14.5319 413.772 19.009 396.36 24.277 379.421C29.488 362.668 35.5971 345.976 42.4351 329.809C49.2101 313.791 56.861 297.909 65.174 282.609C73.4249 267.419 82.526 252.439 92.223 238.085C101.871 223.804 112.33 209.818 123.309 196.514C134.264 183.24 145.99 170.338 158.162 158.167C170.334 145.996 183.239 134.267 196.509 123.314C209.809 112.336 223.798 101.877 238.08 92.2276C252.427 82.5346 267.407 73.4336 282.604 65.1786C297.904 56.8646 313.789 49.2136 329.804 42.4396C345.973 35.6006 362.665 29.4906 379.417 24.2816C396.363 19.0106 413.774 14.5336 431.167 10.9746C448.892 7.35226 466.787 4.62118 484.785 2.79163C491.118 2.14863 497.585 1.60859 503.996 1.19159V329.025C501.621 329.425 499.223 329.874 496.868 330.356C483.099 333.176 469.644 337.353 456.698 342.825C443.972 348.212 431.798 354.82 420.346 362.556C408.982 370.238 398.377 378.988 388.675 388.687C378.977 398.388 370.227 408.993 362.544 420.358C354.809 431.81 348.202 443.983 342.813 456.709C337.341 469.654 333.164 483.11 330.343 496.879C327.451 511.07 325.996 525.517 326 540.001C325.996 554.486 327.453 568.935 330.347 583.129C333.168 596.898 337.345 610.354 342.817 623.3C348.206 636.025 354.813 648.199 362.548 659.651C370.231 671.015 378.981 681.62 388.679 691.322C398.381 701.02 408.986 709.77 420.35 717.454C431.801 725.189 443.975 731.796 456.7 737.184C469.646 742.656 483.101 746.832 496.87 749.653C511.064 752.547 525.514 754.004 540 754.001C554.486 754.004 568.935 752.547 583.129 749.653C596.898 746.832 610.354 742.656 623.3 737.184C636.025 731.795 648.199 725.188 659.65 717.453C671.015 709.77 681.62 701.019 691.322 691.321C701.02 681.619 709.77 671.014 717.453 659.65C725.188 648.198 731.795 636.025 737.184 623.301C742.656 610.354 746.833 596.899 749.654 583.13C752.548 568.936 754.004 554.486 754 540.001C754.003 525.515 752.547 511.065 749.653 496.872C746.832 483.103 742.655 469.647 737.183 456.702C731.795 443.976 725.187 431.802 717.452 420.351C709.769 408.986 701.019 398.381 691.321 388.68C681.619 378.981 671.014 370.231 659.649 362.549C648.198 354.814 636.025 348.206 623.3 342.818C610.354 337.346 596.899 333.169 583.13 330.349C580.774 329.867 578.376 329.419 576.001 329.018V1.18359C582.426 1.60559 588.89 2.14563 595.213 2.78363C613.211 4.61321 631.106 7.34429 648.83 10.9666C666.23 14.5266 683.643 19.0036 700.581 24.2736C717.334 29.4846 734.026 35.5936 750.194 42.4316C766.213 49.2066 782.094 56.8576 797.394 65.1706C812.585 73.4226 827.565 82.5226 841.917 92.2196C856.199 101.868 870.185 112.327 883.488 123.306C896.765 134.263 909.667 145.989 921.835 158.159C934.003 170.329 945.735 183.235 956.688 196.506C967.67 209.814 978.129 223.801 987.774 238.077C997.467 252.424 1006.57 267.405 1014.82 282.601C1023.14 297.908 1030.79 313.79 1037.56 329.801C1044.4 345.963 1050.51 362.655 1055.72 379.413C1060.99 396.351 1065.47 413.763 1069.03 431.164C1072.65 448.888 1075.38 466.783 1077.21 484.781C1079.07 503.129 1080 521.559 1080 540.001C1080 558.439 1079.07 576.866 1077.21 595.212C1075.38 613.21 1072.65 631.105 1069.03 648.83C1065.47 666.23 1060.99 683.641 1055.72 700.581C1050.51 717.331 1044.4 734.023 1037.56 750.194C1030.79 766.206 1023.14 782.088 1014.83 797.394C1006.57 812.594 997.468 827.573 987.777 841.917C978.124 856.204 967.665 870.191 956.691 883.488C945.738 896.759 934.011 909.661 921.838 921.835C909.665 934.009 896.766 945.735 883.491 956.688C870.191 967.665 856.204 978.124 841.92 987.774C827.575 997.465 812.595 1006.57 797.397 1014.82C782.09 1023.14 766.208 1030.79 750.197 1037.56C734.023 1044.4 717.33 1050.51 700.584 1055.72C683.636 1060.99 666.225 1065.47 648.833 1069.03C631.109 1072.65 613.214 1075.38 595.216 1077.21C576.869 1079.07 558.441 1080 540 1080Z" fill="url(#paint2_angular)"/>
<path opacity="0.61" d="M594 25.268L619.632 25.268L619.632 23.432L615.636 18.788L613.44 18.788L617.544 23.432L594 23.432L594 25.268ZM602.388 48.7282C604.8 48.7282 607.464 48.4762 609.3 46.6402C610.344 45.5962 610.848 44.1562 610.848 42.3202C610.848 40.1962 610.2 38.5762 608.94 37.4602L618.012 37.4602L618.012 48.1522L619.632 48.1522L619.632 35.8402L606.528 35.8402L606.528 37.4602C608.256 38.0002 609.228 39.7642 609.228 42.1042C609.228 46.2802 605.592 46.8922 602.388 46.8922C600.444 46.8922 598.176 46.8562 596.664 45.3442C595.836 44.5162 595.368 43.2202 595.368 41.8162C595.368 38.7922 596.916 37.3882 599.652 36.9922L599.652 35.1562C597.888 35.3002 596.484 35.8762 595.476 36.8842C594.324 38.0002 593.748 39.6922 593.748 41.8162C593.748 43.8682 594.36 45.5242 595.584 46.7482C597.42 48.5842 599.94 48.7282 602.388 48.7282ZM594 58.0764L596.664 58.0764L596.664 55.4124L594 55.4124L594 58.0764ZM605.232 58.0764L607.896 58.0764L607.896 55.4124L605.232 55.4124L605.232 58.0764ZM594 77.6601L595.62 77.6601L595.62 66.2841L608.184 75.8961C609.876 77.1921 611.208 77.6601 613.116 77.6601C617.148 77.6601 619.848 74.9961 619.848 70.8921C619.848 66.6801 616.932 64.1241 613.116 64.1241L613.116 65.9601C616.716 65.9601 618.228 68.2281 618.228 70.8921C618.228 74.0241 616.176 75.8241 613.116 75.8241C611.64 75.8241 610.416 75.3921 609.12 74.3841L595.62 64.0881L594 64.0881L594 77.6601ZM594 96.1523L595.62 96.1523L595.62 84.7763L608.184 94.3883C609.876 95.6843 611.208 96.1523 613.116 96.1523C617.148 96.1523 619.848 93.4883 619.848 89.3843C619.848 85.1723 616.932 82.6163 613.116 82.6163L613.116 84.4523C616.716 84.4523 618.228 86.7203 618.228 89.3843C618.228 92.5163 616.176 94.3163 613.116 94.3163C611.64 94.3163 610.416 93.8843 609.12 92.8763L595.62 82.5803L594 82.5803L594 96.1523Z" fill="white"/>
<circle cx="581" cy="114" r="14" fill="#E24C3A" stroke="white" stroke-width="4"/>
<line x1="969.123" y1="536.904" x2="924.123" y2="572.904" stroke="#E24C3A" stroke-opacity="0.5" stroke-width="10"/>
<circle cx="882" cy="610" r="69" fill="black"/>
<circle cx="882" cy="610" r="69" fill="url(#paint3_linear)"/>
<path d="M821.4 706.456C821.4 703.624 821.376 701.872 820.32 700.408C819.096 698.704 817.488 697.912 815.16 697.912H808.992V715H815.16C817.488 715 819.096 714.208 820.32 712.504C821.376 711.04 821.4 709.288 821.4 706.456ZM818.064 706.456C818.064 709.144 817.992 710.224 817.368 710.968C816.816 711.664 816 712.024 814.872 712.024H812.328V700.888H814.872C816 700.888 816.816 701.248 817.368 701.944C817.992 702.688 818.064 703.768 818.064 706.456ZM828.148 715V697.912H824.812V715H828.148ZM843.165 709.96C843.165 708.424 842.757 707.2 841.845 706.36C841.101 705.64 840.141 705.232 838.581 705.016L836.541 704.704C835.821 704.608 835.317 704.368 834.981 704.056C834.621 703.72 834.501 703.288 834.501 702.832C834.501 701.656 835.341 700.672 837.117 700.672C838.245 700.672 839.565 700.816 840.621 701.848L842.733 699.76C841.269 698.344 839.565 697.768 837.213 697.768C833.517 697.768 831.261 699.904 831.261 702.952C831.261 704.392 831.669 705.52 832.485 706.312C833.253 707.056 834.285 707.512 835.797 707.728L837.837 708.04C838.701 708.16 839.037 708.304 839.373 708.616C839.733 708.976 839.901 709.456 839.901 710.032C839.901 711.4 838.845 712.168 836.853 712.168C835.293 712.168 833.829 711.808 832.749 710.728L830.589 712.888C832.269 714.592 834.237 715.144 836.829 715.144C840.429 715.144 843.165 713.272 843.165 709.96ZM858.761 715V697.912H855.425V704.896H849.641V697.912H846.305V715H849.641V707.848H855.425V715H858.761ZM881.886 697.912H878.406L875.742 708.688L872.622 697.912H870.126L867.006 708.688L864.366 697.912H860.886L865.446 715H868.23L871.374 704.632L874.518 715H877.302L881.886 697.912ZM896.747 715L890.507 697.912H887.891L881.675 715H885.155L886.187 711.976H892.259L893.267 715H896.747ZM891.371 709.168H887.123L889.283 702.952L891.371 709.168ZM909.891 709.96C909.891 708.424 909.483 707.2 908.571 706.36C907.827 705.64 906.867 705.232 905.307 705.016L903.267 704.704C902.547 704.608 902.043 704.368 901.707 704.056C901.347 703.72 901.227 703.288 901.227 702.832C901.227 701.656 902.067 700.672 903.843 700.672C904.971 700.672 906.291 700.816 907.347 701.848L909.459 699.76C907.995 698.344 906.291 697.768 903.939 697.768C900.243 697.768 897.987 699.904 897.987 702.952C897.987 704.392 898.395 705.52 899.211 706.312C899.979 707.056 901.011 707.512 902.523 707.728L904.563 708.04C905.427 708.16 905.763 708.304 906.099 708.616C906.459 708.976 906.627 709.456 906.627 710.032C906.627 711.4 905.571 712.168 903.579 712.168C902.019 712.168 900.555 711.808 899.475 710.728L897.315 712.888C898.995 714.592 900.963 715.144 903.555 715.144C907.155 715.144 909.891 713.272 909.891 709.96ZM925.487 715V697.912H922.151V704.896H916.367V697.912H913.031V715H916.367V707.848H922.151V715H925.487ZM940.717 715V712.024H932.797V707.872H939.541V704.896H932.797V700.888H940.717V697.912H929.461V715H940.717ZM956.928 715L953.112 707.632C954.768 707.032 956.232 705.544 956.232 703.144C956.232 700.288 954.168 697.912 950.688 697.912H943.992V715H947.328V708.184H949.728L953.064 715H956.928ZM952.896 703.144C952.896 704.464 951.936 705.4 950.472 705.4H947.328V700.888H950.472C951.936 700.888 952.896 701.824 952.896 703.144Z" fill="white"/>
<path d="M814.92 745V727.912H813.192L810 730.672V732.64L813.192 729.832V745H814.92ZM827.459 745V727.912H825.731L822.539 730.672V732.64L825.731 729.832V745H827.459ZM837.094 737.776V735.52H834.838V737.776H837.094ZM837.094 745V742.744H834.838V745H837.094ZM850.267 745V743.464H842.923L848.899 735.832C849.835 734.632 850.267 733.744 850.267 732.376C850.267 729.568 848.371 727.768 845.563 727.768C842.707 727.768 840.859 729.712 840.859 732.4H842.587C842.587 730.192 843.979 729.304 845.563 729.304C847.435 729.304 848.539 730.528 848.539 732.376C848.539 733.312 848.227 734.056 847.579 734.896L840.835 743.464V745H850.267ZM862.782 740.344C862.782 738.208 861.894 736.816 860.166 736.168C861.702 735.472 862.47 734.176 862.47 732.376C862.47 729.592 860.55 727.744 857.766 727.744C855.174 727.744 853.158 729.376 852.966 732.136H854.694C854.862 730.384 855.966 729.28 857.766 729.28C859.422 729.28 860.742 730.36 860.742 732.4C860.742 734.32 859.782 735.496 857.694 735.496H857.334V737.008H857.694C860.022 737.008 861.054 738.256 861.054 740.32C861.054 742.408 859.614 743.632 857.766 743.632C856.134 743.632 854.622 742.792 854.478 740.656H852.75C852.894 743.752 855.078 745.168 857.766 745.168C860.55 745.168 862.782 743.488 862.782 740.344Z" fill="white"/>
<path d="M905.92 745V727.912H904.192L901 730.672V732.64L904.192 729.832V745H905.92ZM921.843 740.296C921.843 738.304 920.739 736.96 919.299 736.144C920.643 735.376 921.507 734.128 921.507 732.352C921.507 729.688 919.515 727.768 916.803 727.768C914.091 727.768 912.099 729.688 912.099 732.352C912.099 734.128 912.987 735.376 914.331 736.144C912.891 736.96 911.763 738.304 911.763 740.296C911.763 743.176 913.971 745.144 916.803 745.144C919.635 745.144 921.843 743.176 921.843 740.296ZM920.115 740.272C920.115 742.168 918.675 743.608 916.803 743.608C914.931 743.608 913.491 742.168 913.491 740.272C913.491 738.376 914.931 736.936 916.803 736.936C918.675 736.936 920.115 738.376 920.115 740.272ZM919.779 732.376C919.779 734.176 918.555 735.424 916.803 735.424C915.051 735.424 913.827 734.176 913.827 732.376C913.827 730.6 915.051 729.304 916.803 729.304C918.555 729.304 919.779 730.6 919.779 732.376ZM928.094 737.776V735.52H925.838V737.776H928.094ZM928.094 745V742.744H925.838V745H928.094ZM941.147 740.44V732.472C941.147 729.64 939.131 727.768 936.467 727.768C933.779 727.768 931.787 729.64 931.787 732.472V740.44C931.787 743.272 933.779 745.144 936.467 745.144C939.131 745.144 941.147 743.272 941.147 740.44ZM939.419 740.344C939.419 742.216 938.363 743.608 936.467 743.608C934.571 743.608 933.515 742.216 933.515 740.344V732.568C933.515 730.696 934.571 729.304 936.467 729.304C938.363 729.304 939.419 730.696 939.419 732.568V740.344ZM953.782 740.344C953.782 738.208 952.894 736.816 951.166 736.168C952.702 735.472 953.47 734.176 953.47 732.376C953.47 729.592 951.55 727.744 948.766 727.744C946.174 727.744 944.158 729.376 943.966 732.136H945.694C945.862 730.384 946.966 729.28 948.766 729.28C950.422 729.28 951.742 730.36 951.742 732.4C951.742 734.32 950.782 735.496 948.694 735.496H948.334V737.008H948.694C951.022 737.008 952.054 738.256 952.054 740.32C952.054 742.408 950.614 743.632 948.766 743.632C947.134 743.632 945.622 742.792 945.478 740.656H943.75C943.894 743.752 946.078 745.168 948.766 745.168C951.55 745.168 953.782 743.488 953.782 740.344Z" fill="white"/>
<path d="M873 737H891M891 737L886.909 742M891 737L886.909 732" stroke="white" stroke-width="2" stroke-linecap="round" stroke-linejoin="round"/>
<path fill-rule="evenodd" clip-rule="evenodd" d="M910 572.34H856C854.012 572.34 852.4 573.934 852.4 575.9V647.1C852.4 649.066 854.012 650.66 856 650.66H910C911.988 650.66 913.6 649.066 913.6 647.1V575.9C913.6 573.934 911.988 572.34 910 572.34ZM856 567C851.029 567 847 570.985 847 575.9V647.1C847 652.015 851.029 656 856 656H910C914.971 656 919 652.015 919 647.1V575.9C919 570.985 914.971 567 910 567H856Z" fill="white"/>
<path fill-rule="evenodd" clip-rule="evenodd" d="M915.4 590.14H849.25V584.8H915.4V590.14Z" fill="white"/>
<path fill-rule="evenodd" clip-rule="evenodd" d="M873.548 606.16H860.781V612.554C860.781 615.963 863.653 618.784 867.164 618.784C870.676 618.784 873.548 615.963 873.548 612.554V606.16ZM858.081 603.49V612.554C858.081 617.47 862.194 621.454 867.164 621.454C872.135 621.454 876.248 617.47 876.248 612.554V603.49H858.081Z" fill="white"/>
<path fill-rule="evenodd" clip-rule="evenodd" d="M865.73 634.218L865.73 619.563L868.43 619.563L868.43 634.218L865.73 634.218Z" fill="white"/>
<path fill-rule="evenodd" clip-rule="evenodd" d="M874.509 633.434C874.509 634.172 873.904 634.769 873.159 634.769L861.039 634.769C860.293 634.769 859.689 634.172 859.689 633.434C859.689 632.697 860.293 632.099 861.039 632.099L873.159 632.099C873.904 632.099 874.509 632.697 874.509 633.434Z" fill="white"/>
<path fill-rule="evenodd" clip-rule="evenodd" d="M893.519 632.86C900.975 632.86 907.019 626.883 907.019 619.51C907.019 612.137 900.975 606.16 893.519 606.16C886.063 606.16 880.019 612.137 880.019 619.51C880.019 626.883 886.063 632.86 893.519 632.86ZM893.519 635.53C902.466 635.53 909.719 628.358 909.719 619.51C909.719 610.662 902.466 603.49 893.519 603.49C884.572 603.49 877.319 610.662 877.319 619.51C877.319 628.358 884.572 635.53 893.519 635.53Z" fill="white"/>
<path fill-rule="evenodd" clip-rule="evenodd" d="M893.519 626.352C897.34 626.352 900.438 623.289 900.438 619.51C900.438 615.731 897.34 612.668 893.519 612.668C889.698 612.668 886.6 615.731 886.6 619.51C886.6 623.289 889.698 626.352 893.519 626.352ZM893.519 629.022C898.831 629.022 903.138 624.763 903.138 619.51C903.138 614.257 898.831 609.998 893.519 609.998C888.207 609.998 883.9 614.257 883.9 619.51C883.9 624.763 888.207 629.022 893.519 629.022Z" fill="white"/>
<path d="M901 578.57C901 580.045 899.791 581.24 898.3 581.24C896.809 581.24 895.6 580.045 895.6 578.57C895.6 577.095 896.809 575.9 898.3 575.9C899.791 575.9 901 577.095 901 578.57Z" fill="white"/>
<path d="M909.1 578.57C909.1 580.045 907.891 581.24 906.4 581.24C904.909 581.24 903.7 580.045 903.7 578.57C903.7 577.095 904.909 575.9 906.4 575.9C907.891 575.9 909.1 577.095 909.1 578.57Z" fill="white"/>
<rect x="281" y="102" width="267" height="64" rx="32" fill="url(#paint4_linear)"/>
<path d="M366.768 150V147.12H352.998L364.203 132.81C365.958 130.56 366.768 128.895 366.768 126.33C366.768 121.065 363.213 117.69 357.948 117.69C352.593 117.69 349.128 121.335 349.128 126.375H352.368C352.368 122.235 354.978 120.57 357.948 120.57C361.458 120.57 363.528 122.865 363.528 126.33C363.528 128.085 362.943 129.48 361.728 131.055L349.083 147.12V150H366.768ZM377.724 150V145.77H373.494V150H377.724ZM396.513 150V117.96H393.273L387.288 123.135V126.825L393.273 121.56V150H396.513ZM427.809 150L418.989 136.32L426.504 127.86H422.454L412.464 139.38V117.96H409.224V150H412.464V143.61L416.784 138.66L423.804 150H427.809ZM467.01 117.96H463.365L457.11 143.79L450.045 117.96H446.985L439.92 143.79L433.665 117.96H430.02L438.21 150H441.405L448.515 124.35L455.625 150H458.82L467.01 117.96ZM489.173 150V135.78C489.173 130.785 486.248 127.59 481.208 127.59C478.688 127.59 476.618 128.49 474.998 130.29V117.96H471.758V150H474.998V136.32C474.998 132.405 477.158 130.47 480.533 130.47C483.908 130.47 485.933 132.405 485.933 136.32V150H489.173Z" fill="white"/>
<path d="M320.479 122.792C320.834 121.843 319.624 121.115 318.996 121.9L308.925 134.501C308.509 135.022 308.78 135.813 309.422 135.948L315.755 137.283L312.473 146.168C312.117 147.13 313.359 147.85 313.973 147.037L323.544 134.341C323.94 133.816 323.664 133.047 323.033 132.913L317.155 131.668L320.479 122.792Z" fill="white"/>
<path fill-rule="evenodd" clip-rule="evenodd" d="M330.756 120.068C338.659 127.993 338.652 140.824 330.735 148.74C322.812 156.664 309.966 156.664 302.042 148.74C294.972 141.67 294.211 130.679 299.759 122.764L297.26 122.911C296.446 122.959 295.748 122.338 295.7 121.525C295.652 120.711 296.273 120.013 297.086 119.965L302.999 119.618C303.744 119.574 304.404 120.093 304.537 120.827L305.581 126.565C305.727 127.367 305.195 128.135 304.393 128.281C303.591 128.427 302.823 127.895 302.677 127.093L302.194 124.434C297.435 131.199 298.08 140.605 304.129 146.653C310.9 153.424 321.878 153.424 328.649 146.653C335.419 139.883 335.419 128.905 328.649 122.134C328.635 122.12 328.621 122.106 328.608 122.091C326.615 119.932 320.2 115.729 311.349 117.481C310.55 117.639 309.773 117.119 309.615 116.32C309.457 115.521 309.977 114.744 310.776 114.586C320.786 112.605 328.18 117.295 330.756 120.068Z" fill="white"/>
<rect x="315" y="179" width="228" height="64" rx="32" fill="url(#paint5_linear)"/>
<path d="M398.149 227V194.96H394.909L388.924 200.135V203.825L394.909 198.56V227H398.149ZM428.005 218.18C428.005 214.445 425.935 211.925 423.235 210.395C425.755 208.955 427.375 206.615 427.375 203.285C427.375 198.29 423.64 194.69 418.555 194.69C413.47 194.69 409.735 198.29 409.735 203.285C409.735 206.615 411.4 208.955 413.92 210.395C411.22 211.925 409.105 214.445 409.105 218.18C409.105 223.58 413.245 227.27 418.555 227.27C423.865 227.27 428.005 223.58 428.005 218.18ZM424.765 218.135C424.765 221.69 422.065 224.39 418.555 224.39C415.045 224.39 412.345 221.69 412.345 218.135C412.345 214.58 415.045 211.88 418.555 211.88C422.065 211.88 424.765 214.58 424.765 218.135ZM424.135 203.33C424.135 206.705 421.84 209.045 418.555 209.045C415.27 209.045 412.975 206.705 412.975 203.33C412.975 200 415.27 197.57 418.555 197.57C421.84 197.57 424.135 200 424.135 203.33ZM439.725 213.455V209.225H435.495V213.455H439.725ZM439.725 227V222.77H435.495V227H439.725ZM464.2 218.45V203.51C464.2 198.2 460.42 194.69 455.425 194.69C450.385 194.69 446.65 198.2 446.65 203.51V218.45C446.65 223.76 450.385 227.27 455.425 227.27C460.42 227.27 464.2 223.76 464.2 218.45ZM460.96 218.27C460.96 221.78 458.98 224.39 455.425 224.39C451.87 224.39 449.89 221.78 449.89 218.27V203.69C449.89 200.18 451.87 197.57 455.425 197.57C458.98 197.57 460.96 200.18 460.96 203.69V218.27ZM487.89 218.27C487.89 214.265 486.225 211.655 482.985 210.44C485.865 209.135 487.305 206.705 487.305 203.33C487.305 198.11 483.705 194.645 478.485 194.645C473.625 194.645 469.845 197.705 469.485 202.88H472.725C473.04 199.595 475.11 197.525 478.485 197.525C481.59 197.525 484.065 199.55 484.065 203.375C484.065 206.975 482.265 209.18 478.35 209.18H477.675V212.015H478.35C482.715 212.015 484.65 214.355 484.65 218.225C484.65 222.14 481.95 224.435 478.485 224.435C475.425 224.435 472.59 222.86 472.32 218.855H469.08C469.35 224.66 473.445 227.315 478.485 227.315C483.705 227.315 487.89 224.165 487.89 218.27Z" fill="white"/>
<path fill-rule="evenodd" clip-rule="evenodd" d="M363.746 231.495C369.131 231.495 373.497 227.124 373.497 221.733C373.497 216.342 369.131 211.972 363.746 211.972C358.36 211.972 353.994 216.342 353.994 221.733C353.994 227.124 358.36 231.495 363.746 231.495ZM363.746 234C370.514 234 376 228.508 376 221.733C376 214.958 370.514 209.466 363.746 209.466C356.978 209.466 351.492 214.958 351.492 221.733C351.492 228.508 356.978 234 363.746 234Z" fill="white"/>
<path fill-rule="evenodd" clip-rule="evenodd" d="M341.171 197.891H366.075C366.996 197.891 367.743 198.639 367.743 199.561V210.134C368.628 210.439 369.466 210.843 370.246 211.332V199.561C370.246 197.255 368.378 195.386 366.075 195.386H341.171C338.867 195.386 337 197.255 337 199.561V224.491C337 226.797 338.867 228.667 341.171 228.667H353.636C353.104 227.891 352.659 227.051 352.315 226.161H341.171C340.25 226.161 339.503 225.414 339.503 224.491V199.561C339.503 198.639 340.25 197.891 341.171 197.891Z" fill="white"/>
<path fill-rule="evenodd" clip-rule="evenodd" d="M353.623 192C354.314 192 354.874 192.561 354.874 193.253V200.079C354.874 200.771 354.314 201.332 353.623 201.332C352.932 201.332 352.372 200.771 352.372 200.079V193.253C352.372 192.561 352.932 192 353.623 192Z" fill="white"/>
<path fill-rule="evenodd" clip-rule="evenodd" d="M342.967 192C343.658 192 344.218 192.561 344.218 193.253V200.079C344.218 200.771 343.658 201.332 342.967 201.332C342.276 201.332 341.716 200.771 341.716 200.079V193.253C341.716 192.561 342.276 192 342.967 192Z" fill="white"/>
<path fill-rule="evenodd" clip-rule="evenodd" d="M364.279 192C364.97 192 365.53 192.561 365.53 193.253V200.079C365.53 200.771 364.97 201.332 364.279 201.332C363.588 201.332 363.027 200.771 363.027 200.079V193.253C363.027 192.561 363.588 192 364.279 192Z" fill="white"/>
<path fill-rule="evenodd" clip-rule="evenodd" d="M369.074 205.279H337.959V202.773H369.074V205.279Z" fill="white"/>
<path fill-rule="evenodd" clip-rule="evenodd" d="M354.308 207.946H353.151C352.691 207.946 352.317 208.319 352.317 208.781V209.939C352.317 210.4 352.691 210.774 353.151 210.774H354.308C354.769 210.774 355.142 210.4 355.142 209.939V208.781C355.142 208.319 354.769 207.946 354.308 207.946ZM353.151 206.693C351.999 206.693 351.066 207.628 351.066 208.781V209.939C351.066 211.092 351.999 212.026 353.151 212.026H354.308C355.46 212.026 356.394 211.092 356.394 209.939V208.781C356.394 207.628 355.46 206.693 354.308 206.693H353.151Z" fill="white"/>
<path fill-rule="evenodd" clip-rule="evenodd" d="M345.996 207.946H344.84C344.379 207.946 344.005 208.319 344.005 208.781V209.939C344.005 210.4 344.379 210.774 344.84 210.774H345.996C346.457 210.774 346.831 210.4 346.831 209.939V208.781C346.831 208.319 346.457 207.946 345.996 207.946ZM344.84 206.693C343.688 206.693 342.754 207.628 342.754 208.781V209.939C342.754 211.092 343.688 212.026 344.84 212.026H345.996C347.148 212.026 348.082 211.092 348.082 209.939V208.781C348.082 207.628 347.148 206.693 345.996 206.693H344.84Z" fill="white"/>
<path fill-rule="evenodd" clip-rule="evenodd" d="M345.996 214.132H344.84C344.379 214.132 344.005 214.506 344.005 214.967V216.125C344.005 216.587 344.379 216.96 344.84 216.96H345.996C346.457 216.96 346.831 216.587 346.831 216.125V214.967C346.831 214.506 346.457 214.132 345.996 214.132ZM344.84 212.88C343.688 212.88 342.754 213.814 342.754 214.967V216.125C342.754 217.278 343.688 218.213 344.84 218.213H345.996C347.148 218.213 348.082 217.278 348.082 216.125V214.967C348.082 213.814 347.148 212.88 345.996 212.88H344.84Z" fill="white"/>
<path fill-rule="evenodd" clip-rule="evenodd" d="M345.996 220.319H344.84C344.379 220.319 344.005 220.693 344.005 221.154V222.312C344.005 222.773 344.379 223.147 344.84 223.147H345.996C346.457 223.147 346.831 222.773 346.831 222.312V221.154C346.831 220.693 346.457 220.319 345.996 220.319ZM344.84 219.066C343.688 219.066 342.754 220.001 342.754 221.154V222.312C342.754 223.465 343.688 224.4 344.84 224.4H345.996C347.148 224.4 348.082 223.465 348.082 222.312V221.154C348.082 220.001 347.148 219.066 345.996 219.066H344.84Z" fill="white"/>
<path fill-rule="evenodd" clip-rule="evenodd" d="M363.852 213.76C364.544 213.76 365.104 214.321 365.104 215.013L365.104 221.626C365.104 222.318 364.544 222.879 363.852 222.879C363.161 222.879 362.601 222.318 362.601 221.626L362.601 215.013C362.601 214.321 363.161 213.76 363.852 213.76Z" fill="white"/>
<path fill-rule="evenodd" clip-rule="evenodd" d="M369.579 221.626C369.579 222.318 369.019 222.879 368.328 222.879H363.852C363.161 222.879 362.601 222.318 362.601 221.626C362.601 220.935 363.161 220.374 363.852 220.374H368.328C369.019 220.374 369.579 220.935 369.579 221.626Z" fill="white"/>
</g>
<defs>
<filter id="filter0_b" x="-20" y="-18.8169" width="1120" height="1118.82" filterUnits="userSpaceOnUse" color-interpolation-filters="sRGB">
<feFlood flood-opacity="0" result="BackgroundImageFix"/>
<feGaussianBlur in="BackgroundImage" stdDeviation="10"/>
<feComposite in2="SourceAlpha" operator="in" result="effect1_backgroundBlur"/>
<feBlend mode="normal" in="SourceGraphic" in2="effect1_backgroundBlur" result="shape"/>
</filter>
<filter id="filter1_b" x="-20" y="-18.8164" width="1120" height="1118.82" filterUnits="userSpaceOnUse" color-interpolation-filters="sRGB">
<feFlood flood-opacity="0" result="BackgroundImageFix"/>
<feGaussianBlur in="BackgroundImage" stdDeviation="10"/>
<feComposite in2="SourceAlpha" operator="in" result="effect1_backgroundBlur"/>
<feBlend mode="normal" in="SourceGraphic" in2="effect1_backgroundBlur" result="shape"/>
</filter>
<radialGradient id="paint0_radial" cx="0" cy="0" r="1" gradientUnits="userSpaceOnUse" gradientTransform="translate(539.93 539.952) rotate(87.7554) scale(537.96 473.242)">
<stop offset="0.395478" stop-color="#F4E696"/>
<stop offset="0.732477" stop-color="#F4E696" stop-opacity="0"/>
</radialGradient>
<radialGradient id="paint1_radial" cx="0" cy="0" r="1" gradientUnits="userSpaceOnUse" gradientTransform="translate(536.5 552) rotate(89.5659) scale(528.015 442.966)">
<stop offset="0.391621" stop-color="#75C7CC"/>
<stop offset="1" stop-color="#75C7CC" stop-opacity="0"/>
</radialGradient>
<radialGradient id="paint2_angular" cx="0" cy="0" r="1" gradientUnits="userSpaceOnUse" gradientTransform="translate(540 540.592) rotate(-90) scale(539.592 540.183)">
<stop offset="0.00837803" stop-opacity="0"/>
<stop offset="0.746255" stop-opacity="0"/>
<stop offset="0.84811" stop-opacity="0.7"/>
<stop offset="0.993528"/>
</radialGradient>
<linearGradient id="paint3_linear" x1="813" y1="541" x2="951" y2="679" gradientUnits="userSpaceOnUse">
<stop stop-color="#E24C3A"/>
<stop offset="1" stop-color="#E24C3A" stop-opacity="0.5"/>
</linearGradient>
<linearGradient id="paint4_linear" x1="281" y1="102" x2="503" y2="166" gradientUnits="userSpaceOnUse">
<stop stop-color="#E24C3A"/>
<stop offset="1" stop-color="#E24C3A" stop-opacity="0.5"/>
</linearGradient>
<linearGradient id="paint5_linear" x1="315" y1="179" x2="508.596" y2="226.659" gradientUnits="userSpaceOnUse">
<stop stop-color="#E24C3A"/>
<stop offset="1" stop-color="#E24C3A" stop-opacity="0.5"/>
</linearGradient>
</defs>
</svg>
