<svg width="253" height="253" viewBox="0 0 253 253" fill="none" xmlns="http://www.w3.org/2000/svg">
<circle cx="126.5" cy="126.5" r="126.5" fill="url(#paint0_linear)" fill-opacity="0.5"/>
<path fill-rule="evenodd" clip-rule="evenodd" d="M78.0363 83.7104C76.0837 85.663 76.0837 88.8289 78.0363 90.7815L113.165 125.91L78.0362 161.038C76.0836 162.991 76.0836 166.157 78.0362 168.11L85.7099 175.783C87.6626 177.736 90.8284 177.736 92.781 175.783L127.91 140.655L163.038 175.783C164.991 177.736 168.157 177.736 170.109 175.783L177.783 168.11C179.735 166.157 179.735 162.991 177.783 161.038L142.654 125.91L177.783 90.7815C179.735 88.8289 179.735 85.6631 177.783 83.7104L170.109 76.0368C168.156 74.0841 164.991 74.0841 163.038 76.0368L127.91 111.165L92.7811 76.0367C90.8285 74.0841 87.6626 74.0841 85.71 76.0367L78.0363 83.7104Z" fill="white"/>
<defs>
<linearGradient id="paint0_linear" x1="0" y1="0" x2="253" y2="253" gradientUnits="userSpaceOnUse">
<stop stop-color="#ECECEC"/>
<stop offset="1" stop-color="#D1D3D4" stop-opacity="0.5"/>
</linearGradient>
</defs>
</svg>
