<svg width="1080" height="1080" viewBox="0 0 1080 1079" fill="none" xmlns="http://www.w3.org/2000/svg">
<path d="M540 1079C521.561 1079 503.134 1078.07 484.789 1076.21C466.791 1074.38 448.896 1071.65 431.171 1068.03C413.779 1064.47 396.371 1059.99 379.421 1054.72C362.676 1049.51 345.983 1043.4 329.808 1036.56C313.79 1029.79 297.908 1022.14 282.608 1013.82C267.419 1005.57 252.439 996.474 238.084 986.776C223.808 977.131 209.821 966.676 196.513 955.69C183.243 944.739 170.341 933.013 158.166 920.837C145.991 908.661 134.266 895.763 123.313 882.49C112.329 869.18 101.87 855.19 92.2271 840.919C82.5271 826.568 73.427 811.589 65.178 796.396C56.864 781.09 49.213 765.208 42.439 749.196C35.601 733.028 29.492 716.336 24.281 699.583C19.012 682.644 14.535 665.232 10.975 647.832C7.35327 630.107 4.6222 612.212 2.79199 594.214C0.933885 575.868 0.00204291 557.44 0 539C0.000838709 520.56 0.931317 502.133 2.78796 483.788C4.61811 465.79 7.34918 447.895 10.9709 430.171C14.5319 412.771 19.009 395.359 24.277 378.42C29.488 361.667 35.5971 344.975 42.4351 328.808C49.2101 312.79 56.861 296.908 65.174 281.608C73.4249 266.418 82.526 251.438 92.223 237.084C101.871 222.803 112.33 208.817 123.309 195.513C134.264 182.239 145.99 169.337 158.162 157.166C170.334 144.995 183.239 133.266 196.509 122.313C209.809 111.335 223.798 100.876 238.08 91.2266C252.427 81.5336 267.407 72.4326 282.604 64.1776C297.904 55.8636 313.789 48.2127 329.804 41.4387C345.973 34.5997 362.665 28.4896 379.417 23.2806C396.363 18.0096 413.774 13.5326 431.167 9.97363C448.892 6.35128 466.787 3.6202 484.785 1.79065C491.118 1.14765 497.585 0.607613 503.996 0.190613V328.024C501.621 328.424 499.223 328.873 496.868 329.355C483.099 332.175 469.644 336.352 456.698 341.824C443.972 347.211 431.798 353.819 420.346 361.555C408.982 369.237 398.377 377.987 388.675 387.686C378.977 397.387 370.227 407.992 362.544 419.357C354.809 430.809 348.202 442.982 342.813 455.708C337.341 468.653 333.164 482.109 330.343 495.878C327.451 510.069 325.996 524.516 326 539C325.996 553.485 327.453 567.934 330.347 582.128C333.168 595.897 337.345 609.353 342.817 622.299C348.206 635.024 354.813 647.198 362.548 658.65C370.231 670.014 378.981 680.619 388.679 690.321C398.381 700.019 408.986 708.769 420.35 716.453C431.801 724.188 443.975 730.795 456.7 736.183C469.646 741.655 483.101 745.831 496.87 748.652C511.064 751.546 525.514 753.003 540 753C554.486 753.003 568.935 751.546 583.129 748.652C596.898 745.831 610.354 741.655 623.3 736.183C636.025 730.794 648.199 724.187 659.65 716.452C671.015 708.769 681.62 700.018 691.322 690.32C701.02 680.618 709.77 670.013 717.453 658.649C725.188 647.197 731.795 635.024 737.184 622.3C742.656 609.353 746.833 595.898 749.654 582.129C752.548 567.935 754.004 553.485 754 539C754.003 524.514 752.547 510.064 749.653 495.871C746.832 482.102 742.655 468.646 737.183 455.701C731.795 442.975 725.187 430.801 717.452 419.35C709.769 407.985 701.019 397.38 691.321 387.679C681.619 377.98 671.014 369.23 659.649 361.548C648.198 353.813 636.025 347.205 623.3 341.817C610.354 336.345 596.899 332.168 583.13 329.348C580.774 328.866 578.376 328.418 576.001 328.017V0.182617C582.426 0.604617 588.89 1.14465 595.213 1.78265C613.211 3.61224 631.106 6.34332 648.83 9.96564C666.23 13.5256 683.643 18.0026 700.581 23.2726C717.334 28.4836 734.026 34.5927 750.194 41.4307C766.213 48.2057 782.094 55.8566 797.394 64.1696C812.585 72.4216 827.565 81.5216 841.917 91.2186C856.199 100.867 870.185 111.326 883.488 122.305C896.765 133.262 909.667 144.988 921.835 157.158C934.003 169.328 945.735 182.234 956.688 195.505C967.67 208.813 978.129 222.8 987.774 237.076C997.467 251.423 1006.57 266.404 1014.82 281.6C1023.14 296.907 1030.79 312.789 1037.56 328.8C1044.4 344.962 1050.51 361.654 1055.72 378.412C1060.99 395.35 1065.47 412.762 1069.03 430.163C1072.65 447.887 1075.38 465.782 1077.21 483.78C1079.07 502.128 1080 520.558 1080 539C1080 557.438 1079.07 575.865 1077.21 594.211C1075.38 612.209 1072.65 630.104 1069.03 647.829C1065.47 665.229 1060.99 682.64 1055.72 699.58C1050.51 716.33 1044.4 733.022 1037.56 749.193C1030.79 765.205 1023.14 781.087 1014.83 796.393C1006.57 811.593 997.468 826.572 987.777 840.916C978.124 855.203 967.665 869.19 956.691 882.487C945.738 895.758 934.011 908.66 921.838 920.834C909.665 933.008 896.766 944.734 883.491 955.687C870.191 966.664 856.204 977.123 841.92 986.773C827.575 996.464 812.595 1005.56 797.397 1013.82C782.09 1022.14 766.208 1029.79 750.197 1036.56C734.023 1043.4 717.33 1049.51 700.584 1054.72C683.636 1059.99 666.225 1064.47 648.833 1068.03C631.109 1071.65 613.214 1074.38 595.216 1076.21C576.869 1078.07 558.441 1079 540 1079Z" fill="black"/>
</svg>
