<svg width="253" height="253" viewBox="0 0 253 253" fill="none" xmlns="http://www.w3.org/2000/svg">
<circle cx="126.5" cy="126.5" r="126.5" fill="url(#paint0_linear)"/>
<path fill-rule="evenodd" clip-rule="evenodd" d="M184.109 98.8261H118.891C116.49 98.8261 114.543 100.773 114.543 103.174V190.13C114.543 192.532 116.49 194.478 118.891 194.478H184.109C186.51 194.478 188.457 192.532 188.457 190.13V103.174C188.457 100.773 186.51 98.8261 184.109 98.8261ZM118.891 92.3043C112.888 92.3043 108.022 97.1708 108.022 103.174V190.13C108.022 196.134 112.888 201 118.891 201H184.109C190.112 201 194.978 196.134 194.978 190.13V103.174C194.978 97.1708 190.112 92.3043 184.109 92.3043H118.891Z" fill="white"/>
<path fill-rule="evenodd" clip-rule="evenodd" d="M150.957 177.087C162.362 177.087 171.609 167.841 171.609 156.435C171.609 145.029 162.362 135.783 150.957 135.783C139.551 135.783 130.304 145.029 130.304 156.435C130.304 167.841 139.551 177.087 150.957 177.087ZM150.957 183.609C165.964 183.609 178.13 171.443 178.13 156.435C178.13 141.427 165.964 129.261 150.957 129.261C135.949 129.261 123.783 141.427 123.783 156.435C123.783 171.443 135.949 183.609 150.957 183.609Z" fill="white"/>
<path fill-rule="evenodd" clip-rule="evenodd" d="M190.63 120.565H110.739V114.043H190.63V120.565Z" fill="white"/>
<path fill-rule="evenodd" clip-rule="evenodd" d="M147.525 142.074C147.781 142.937 147.288 143.844 146.424 144.1C141.881 145.444 138.198 149.416 137.348 154.621C137.203 155.51 136.365 156.113 135.476 155.968C134.588 155.823 133.985 154.985 134.13 154.096C135.181 147.659 139.752 142.673 145.499 140.973C146.363 140.717 147.27 141.21 147.525 142.074Z" fill="white"/>
<path fill-rule="evenodd" clip-rule="evenodd" d="M163.304 167.841C159.003 168.182 154.551 167.295 149.608 165.584C146.392 164.471 141.996 164.296 138.086 164.714C136.149 164.92 134.397 165.266 133.038 165.68C132.358 165.887 131.806 166.102 131.39 166.311C130.951 166.531 130.763 166.694 130.713 166.751L128.265 164.597C128.713 164.088 129.323 163.699 129.928 163.396C130.555 163.082 131.29 162.803 132.088 162.56C133.685 162.074 135.646 161.695 137.74 161.471C141.892 161.028 146.825 161.17 150.675 162.503C155.398 164.138 159.37 164.882 163.046 164.59C166.691 164.301 170.176 162.984 173.913 160.277L175.826 162.918C171.683 165.919 167.637 167.497 163.304 167.841Z" fill="white"/>
<path fill-rule="evenodd" clip-rule="evenodd" d="M129.761 114.043V96.1087H136.283V114.043H129.761Z" fill="white"/>
<path fill-rule="evenodd" clip-rule="evenodd" d="M74.8696 57.5217H140.087C142.488 57.5217 144.435 59.4683 144.435 61.8696V97.7391H150.957V61.8696C150.957 55.8665 146.09 51 140.087 51H74.8696C68.8665 51 64 55.8665 64 61.8696V186.326C64 192.329 68.8665 197.196 74.8696 197.196H79.2277C79.2209 197.285 79.2174 197.376 79.2174 197.467C79.2174 199.418 80.799 201 82.75 201H88.1848C90.1358 201 91.7174 199.418 91.7174 197.467C91.7174 197.376 91.7139 197.285 91.7071 197.196H122.706C122.699 197.285 122.696 197.376 122.696 197.467C122.696 199.418 124.277 201 126.228 201H131.663C133.614 201 135.196 199.418 135.196 197.467C135.196 197.376 135.192 197.285 135.185 197.196H140.087C141.788 197.196 143.397 196.805 144.831 196.109H112.37V190.674H74.8696C72.4683 190.674 70.5217 188.727 70.5217 186.326V109.696H112.37V103.174H70.5217V61.8696C70.5217 59.4683 72.4683 57.5217 74.8696 57.5217ZM86.8261 131.978C86.8261 130.177 85.3661 128.717 83.5652 128.717C81.7643 128.717 80.3043 130.177 80.3043 131.978L80.3043 168.935C80.3043 170.736 81.7643 172.196 83.5652 172.196C85.3661 172.196 86.8261 170.736 86.8261 168.935L86.8261 131.978ZM83.5652 66.7609C85.3661 66.7609 86.8261 68.2208 86.8261 70.0217L86.8261 89.0435C86.8261 90.8444 85.3661 92.3043 83.5652 92.3043C81.7643 92.3043 80.3043 90.8444 80.3043 89.0435L80.3044 70.0217C80.3044 68.2208 81.7643 66.7609 83.5652 66.7609Z" fill="white"/>
<defs>
<linearGradient id="paint0_linear" x1="0" y1="0" x2="253" y2="253" gradientUnits="userSpaceOnUse">
<stop stop-color="#75C7CC"/>
<stop offset="1" stop-color="#75C7CC" stop-opacity="0.5"/>
</linearGradient>
</defs>
</svg>
